<?xml version="1.0" encoding="UTF-8"?><svg id="Ebene_1" xmlns="http://www.w3.org/2000/svg" width="59.71" height="59.71" viewBox="0 0 59.71 59.71"><defs><style>.cls-1{fill:#fff;}.cls-1,.cls-2{opacity:.5;}.cls-1,.cls-3{stroke-width:0px;}.cls-3{fill:#adccd8;}</style></defs><path class="cls-1" d="m48.96,30.56c-2.98-1.24-6.06-2.51-8.95-3.45-1.8-.6-3.54-1.06-5.19-1.38-.34-.05-.69-.13-1.02-.36-.31-.22-.63-.54-.97-.87-.85-.83-1.81-1.76-2.95-1.69-1.19-.08-2.16.85-3.01,1.69-.34.33-.66.65-.96.87-.33.23-.69.31-1.04.37-1.64.32-3.38.78-5.17,1.37-2.89.93-5.97,2.21-8.95,3.45l-1.58.67,1.24.31c.37.09.74.19,1.03.26,7.47,2.02,12.96,2.89,18.35,2.89h.12c5.39,0,10.88-.86,18.35-2.89.3-.08.67-.17,1.05-.27l1.24-.31-1.6-.67Z"/><g class="cls-2"><path class="cls-3" d="m29.86,0C13.39,0,0,13.39,0,29.86s13.39,29.86,29.86,29.86,29.86-13.39,29.86-29.86S46.32,0,29.86,0Zm0,56.95c-14.94,0-27.09-12.15-27.09-27.09S14.92,2.76,29.86,2.76s27.09,12.15,27.09,27.09-12.15,27.09-27.09,27.09Z"/><path class="cls-3" d="m52.07,30.97c-.04-.12-.19-.27-.16-.24l-.02-.05s-.04-.1-.04-.1c-2.92-6.05-8.47-10.59-14.85-12.72-2.45-1.11-4.73,1.29-7.14,1.25h0c-2.4.04-4.68-2.36-7.14-1.25-6.39,2.13-11.93,6.68-14.85,12.72,0,0-.04.1-.04.1l-.02.05s-.11.12-.16.24c-.06.13-.08.28-.07.39,0,.2.19.47.34.58.05.06.15.21.21.28,2.5,3.14,5.83,5.47,9.44,7.19,3.8,1.88,8.04,2.76,12.3,2.74,4.25.02,8.49-.87,12.3-2.74,3.61-1.72,6.94-4.05,9.44-7.19.05-.07.16-.22.21-.28.15-.1.33-.38.34-.58,0-.11-.01-.26-.07-.39Zm-3.91.43c-7.31,1.98-12.88,2.88-18.3,2.87-5.42,0-10.99-.89-18.3-2.87-.3-.08-.67-.17-1.06-.27,3.06-1.27,6.32-2.64,9.34-3.61,1.74-.58,3.45-1.04,5.12-1.36.42-.07.82-.17,1.2-.43,1.1-.79,2.27-2.59,3.7-2.48,1.43-.11,2.6,1.69,3.7,2.48.38.26.78.37,1.2.43,1.67.32,3.38.78,5.12,1.36,3.02.97,6.28,2.34,9.34,3.61-.38.1-.76.19-1.06.27Z"/></g></svg>