<?xml version="1.0" encoding="UTF-8" standalone="no"?>
<svg id="Ebene_1" data-name="Ebene 1" width="42.23" height="42.23" viewBox="0 0 42.23 42.23" version="1.1" sodipodi:docname="k_app_icon_schildkroete_1.svg" inkscape:version="1.3.2 (091e20e, 2023-11-25)" xmlns:inkscape="http://www.inkscape.org/namespaces/inkscape" xmlns:sodipodi="http://sodipodi.sourceforge.net/DTD/sodipodi-0.dtd" xmlns="http://www.w3.org/2000/svg" xmlns:svg="http://www.w3.org/2000/svg">
  <sodipodi:namedview id="namedview1" pagecolor="#ffffff" bordercolor="#666666" borderopacity="1.0" inkscape:showpageshadow="2" inkscape:pageopacity="0.0" inkscape:pagecheckerboard="0" inkscape:deskcolor="#d1d1d1" inkscape:zoom="14.451368" inkscape:cx="21.07067" inkscape:cy="21.105269" inkscape:window-width="1440" inkscape:window-height="855" inkscape:window-x="0" inkscape:window-y="23" inkscape:window-maximized="1" inkscape:current-layer="Ebene_1" />
  <defs id="defs1">
    <style id="style1">
      .cls-1 {
        fill: #89b3c3;
      }

      .cls-1, .cls-2, .cls-3 {
        stroke-width: 0px;
      }

      .cls-2 {
        fill: #fff;
      }

      .cls-3 {
        fill: #87b1c1;
      }
    </style>
  </defs>
  <circle id="Ellipse_298" data-name="Ellipse 298" class="cls-2" cx="21.120001" cy="21.120001" r="20.120001" />
  <path class="cls-3" d="M 21.12,42.23 C 9.47,42.23 0,32.76 0,21.12 0,9.48 9.47,0 21.12,0 c 11.65,0 21.12,9.47 21.12,21.12 0,11.65 -9.47,21.12 -21.12,21.12 z M 21.12,2 C 10.58,2 2,10.58 2,21.12 2,31.66 10.58,40.24 21.12,40.24 31.66,40.24 40.24,31.66 40.24,21.12 40.24,10.58 31.66,2 21.12,2 Z" id="path1" />
  <path id="Pfad_107" data-name="Pfad 107" class="cls-1" d="m 5.84,19.31 c -0.16,1.5 0.66,2.93 2.04,3.54 -0.07,0.16 -0.1,0.34 -0.1,0.51 0,0.84 0.68,1.53 1.52,1.53 0,0 0,0 0,0 h 0.1 l -0.75,1.43 c -0.31,0.57 -0.27,1.27 0.1,1.8 0.33,0.51 0.89,0.82 1.5,0.82 h 0.14 L 11,28.91 c 1.12,-0.09 2,-0.98 2.08,-2.1 l 0.11,-1.91 h 11.2 l 0.1,1.9 c 0.06,1.13 0.95,2.03 2.08,2.11 l 0.61,0.03 h 0.14 c 0.61,0 1.17,-0.31 1.5,-0.82 0.37,-0.53 0.41,-1.23 0.1,-1.8 l -0.75,-1.46 c 0.79,-0.06 1.39,-0.71 1.4,-1.5 1.17,-0.16 2.29,-0.59 3.27,-1.26 1.07,-0.87 1.79,-2.11 2.01,-3.47 h 1.05 c 0.28,0 0.5,-0.23 0.51,-0.51 0.07,-2.05 -1.53,-3.77 -3.57,-3.84 -0.08,0 -0.16,0 -0.25,0 -1.97,-0.14 -3.67,1.35 -3.8,3.31 0,0.11 0,0.22 0,0.33 0,0.44 -0.07,0.95 -1.09,1.22 -1.62,-3.5 -5.09,-5.77 -8.95,-5.85 -4.29,0.1 -8.06,2.89 -9.39,6.98 C 8.38,20.05 7.45,19.63 6.64,19.04 6.51,18.93 6.32,18.91 6.16,18.97 6.01,19.03 5.9,19.16 5.85,19.31 Z" />
</svg>
