<?xml version="1.0" encoding="UTF-8" standalone="no"?>
<svg id="Ebene_1" width="55.15" height="70.11" viewBox="0 0 55.15 70.11" version="1.1" sodipodi:docname="k_app_auge_1.svg" inkscape:version="1.3.2 (091e20e, 2023-11-25)" xmlns:inkscape="http://www.inkscape.org/namespaces/inkscape" xmlns:sodipodi="http://sodipodi.sourceforge.net/DTD/sodipodi-0.dtd" xmlns="http://www.w3.org/2000/svg" xmlns:svg="http://www.w3.org/2000/svg">
  <sodipodi:namedview id="namedview8" pagecolor="#ffffff" bordercolor="#666666" borderopacity="1.0" inkscape:showpageshadow="2" inkscape:pageopacity="0.0" inkscape:pagecheckerboard="0" inkscape:deskcolor="#d1d1d1" inkscape:zoom="8.7046248" inkscape:cx="27.57155" inkscape:cy="35.038845" inkscape:window-width="1440" inkscape:window-height="855" inkscape:window-x="0" inkscape:window-y="23" inkscape:window-maximized="1" inkscape:current-layer="Ebene_1" />
  <defs id="defs1">
    <style id="style1">.cls-1{fill:#d6e6eb;}.cls-1,.cls-2{stroke-width:0px;}.cls-2{fill:#fff;}</style>
  </defs>
  <path class="cls-1" d="M 54.61,24.39 C 54.45,24.14 54.25,23.93 54.03,23.74 52.48,10.19 41.61,0 27.99,0 14.37,0 2.79,10.37 1.14,23.73 0.91,23.93 0.7,24.14 0.54,24.4 0.19,24.95 0,25.58 0,26.24 c 0,0.04 0,0.08 0,0.12 l 0.84,7.97 c 0.03,1.73 1.36,3.15 3.1,3.34 0.11,0.01 0.22,0 0.33,0 l 3.26,10.3 c 0.04,1.53 0.73,2.97 1.9,3.97 1.2,1.02 2.79,1.46 4.35,1.2 1.71,-0.28 2.96,-0.54 4.07,-0.78 0,0 0.01,0 0.02,0 1.96,1.08 4.09,1.82 6.38,2.18 v 0.79 c 0,0 -1.4,11.63 -1.4,11.63 -0.16,1.05 0.21,1.73 0.54,2.12 0.59,0.69 1.58,1.05 2.85,1.05 h 6.39 c 1.68,0 3.14,-1.25 3.37,-2.84 l 0.23,-0.86 h 0.68 c 1.83,0 3.32,-1.49 3.32,-3.32 0,0 0,0 0,0 0,0 0,0 0,0 0,-0.01 0,-0.02 0,-0.03 0,-0.23 -0.03,-0.46 -0.08,-0.68 -0.02,-0.09 -0.05,-0.17 -0.08,-0.25 -0.04,-0.14 -0.08,-0.28 -0.14,-0.41 -0.04,-0.09 -0.09,-0.17 -0.14,-0.26 -0.07,-0.12 -0.13,-0.23 -0.21,-0.34 0,-0.01 -0.02,-0.03 -0.03,-0.04 l 4.3,-4.33 c 0.62,-0.63 0.97,-1.47 0.96,-2.35 0,-0.5 -0.13,-0.98 -0.34,-1.42 0.74,-0.2 1.45,-0.55 2.05,-1.06 1.18,-1 1.87,-2.44 1.9,-3.98 l 2.87,-10.3 c 1.7,-0.23 2.97,-1.63 3,-3.32 l 0.84,-7.97 c 0,0 0,-0.08 0,-0.12 0,-0.65 -0.19,-1.29 -0.54,-1.84 z m -15.83,29.1 c -0.18,0.45 -0.54,0.8 -0.98,0.99 -0.22,0.09 -0.45,0.14 -0.7,0.14 h -0.11 c 0,0 -0.02,0 -0.02,0 -0.02,0 -0.03,0 -0.05,0 h -5.27 c -0.41,0 -0.75,0.34 -0.75,0.75 0,0.41 0.34,0.75 0.75,0.75 0,0 0,0 0,0 h 5.27 c 0.09,0 0.17,0.01 0.26,0.03 0,0 0.01,0 0.02,0 0.03,0 0.07,0 0.1,0.01 0.11,0.02 0.21,0.06 0.31,0.1 0,0 0.01,0 0.02,0 0.65,0.28 1.11,0.92 1.11,1.67 0,0 0,0 0,0 0,0.02 0,0.03 0,0.05 0,0.1 -0.01,0.2 -0.03,0.29 -0.01,0.07 -0.04,0.13 -0.06,0.2 -0.01,0.04 -0.02,0.08 -0.04,0.12 -0.03,0.08 -0.07,0.16 -0.12,0.24 0,0.02 -0.02,0.03 -0.03,0.05 -0.29,0.48 -0.8,0.8 -1.39,0.85 -0.05,0 -0.1,0.02 -0.16,0.02 h -5.27 c 0,0 0,0 0,0 -0.06,0 -0.12,0.02 -0.18,0.04 -0.27,0.07 -0.47,0.27 -0.54,0.54 -0.01,0.06 -0.03,0.11 -0.03,0.17 0,0.41 0.34,0.75 0.75,0.75 0,0 0,0 0,0 h 5.27 c 0.07,0 0.13,0.01 0.2,0.02 0.04,0 0.08,0 0.12,0.01 0.07,0.01 0.14,0.03 0.2,0.05 0,0 0.01,0 0.02,0 0.1,0.03 0.19,0.07 0.28,0.11 0.02,0 0.04,0.02 0.06,0.03 0.06,0.04 0.13,0.07 0.19,0.11 0,0 0.02,0.01 0.03,0.02 0.03,0.02 0.06,0.05 0.09,0.07 0.05,0.04 0.1,0.09 0.15,0.14 0.04,0.04 0.07,0.08 0.11,0.13 0.03,0.04 0.07,0.08 0.1,0.13 0.01,0.02 0.02,0.05 0.04,0.07 0.02,0.04 0.04,0.08 0.06,0.12 0.02,0.04 0.04,0.07 0.05,0.11 0.03,0.08 0.06,0.17 0.08,0.25 0,0.03 0.02,0.05 0.02,0.08 0.02,0.12 0.04,0.23 0.04,0.36 0,0 0,0 0,0 0,1 -0.82,1.82 -1.82,1.82 h -5.27 c 0,0 0,0 0,0 -0.41,0 -0.75,0.34 -0.75,0.75 0,0.41 0.34,0.75 0.75,0.75 h 3.04 l -0.15,0.56 c -0.14,0.95 -0.94,1.64 -1.9,1.64 h -6.39 c -0.8,0 -1.43,-0.19 -1.71,-0.53 -0.19,-0.22 -0.25,-0.52 -0.19,-0.94 l 1.41,-11.74 v -0.69 c 0,0 0,-1.13 0,-1.13 v -0.47 c 0,0 0,-0.08 0,-0.11 v -12.5 c 0,-1 0.82,-1.82 1.82,-1.82 1,0 1.82,0.82 1.82,1.82 v 9.74 c 0,0.11 0.02,0.21 0.06,0.3 0.12,0.27 0.38,0.45 0.69,0.45 h 6.96 c 0.08,0 0.16,0.01 0.24,0.02 0.39,0.05 0.75,0.23 1.02,0.49 0.04,0.04 0.07,0.08 0.1,0.12 0.18,0.21 0.32,0.46 0.39,0.74 0.01,0.05 0.02,0.1 0.03,0.15 0.02,0.1 0.03,0.2 0.03,0.3 0,0.24 -0.05,0.48 -0.14,0.69 z m 4.01,2.2 -2.59,2.61 c 0.01,-0.12 0.04,-0.24 0.04,-0.36 0,0 0,0 0,0 0,0 0,0 0,0 0,-0.02 0,-0.04 0,-0.06 0,-0.22 -0.03,-0.43 -0.07,-0.63 C 40.14,57.12 40.1,57 40.05,56.87 40.02,56.79 40,56.7 39.97,56.62 c -0.06,-0.15 -0.14,-0.28 -0.22,-0.41 -0.03,-0.05 -0.06,-0.1 -0.09,-0.15 -0.09,-0.13 -0.2,-0.26 -0.31,-0.37 -0.04,-0.04 -0.07,-0.08 -0.11,-0.12 -0.04,-0.04 -0.07,-0.09 -0.11,-0.12 0.75,-0.58 1.24,-1.47 1.29,-2.48 0.06,-0.05 0.13,-0.09 0.2,-0.13 0.69,-0.39 1.59,-0.3 2.18,0.29 0.02,0.01 0.03,0.03 0.04,0.05 0.32,0.34 0.5,0.77 0.5,1.23 0,0.49 -0.18,0.94 -0.53,1.29 z m 9.69,-25.53 -0.42,3.98 c 0,0 0,0.08 0,0.12 0,0.58 -0.44,1.06 -1.04,1.15 -0.02,0 -0.04,0.01 -0.06,0.02 -0.07,0 -0.21,0 -0.44,-0.08 L 50.16,35.22 48.1,34.49 c -0.3,-0.11 -0.63,-0.08 -0.91,0.07 -0.28,0.15 -0.48,0.41 -0.56,0.72 -1.64,6.47 -4.85,11.36 -9.13,14.26 -0.13,-0.02 -0.27,-0.04 -0.41,-0.04 h -6.21 v -5.28 h 1.51 c 0.55,0 1,-0.45 1,-1 0,-0.55 -0.45,-1 -1,-1 h -1.51 v -1.71 c 0,-1.83 -1.49,-3.32 -3.32,-3.32 -1.83,0 -3.32,1.49 -3.32,3.32 v 1.71 c 0,0 -1.51,0 -1.51,0 -0.55,0 -1,0.45 -1,1 0,0.55 0.45,1 1,1 h 1.51 v 5.52 c 0,0 0,0.88 0,0.88 v 0.88 c 0,0 0,0.77 0,0.77 -0.79,-0.14 -1.55,-0.35 -2.3,-0.6 C 21.36,51.48 20.8,51.26 20.25,51.02 19.8,50.82 19.37,50.6 18.94,50.36 14,47.62 10.29,42.41 8.49,35.29 8.41,34.98 8.21,34.72 7.93,34.57 7.76,34.48 7.58,34.44 7.4,34.44 7.27,34.44 7.15,34.46 7.02,34.5 L 5.25,35.13 4.6,35.36 C 4.53,35.38 4.49,35.39 4.43,35.4 4.31,35.43 4.21,35.44 4.16,35.43 3.88,35.4 3.64,35.27 3.45,35.1 3.22,34.89 3.07,34.6 3.07,34.27 c 0,-0.04 0,-0.08 0,-0.12 L 3.03,33.76 2.59,29.59 2.23,26.19 c 0,-0.2 0.07,-0.39 0.18,-0.56 0.09,-0.14 0.2,-0.23 0.31,-0.3 0.14,-0.08 0.27,-0.13 0.37,-0.15 0.32,-0.07 0.68,0.04 0.98,0.27 l 0.51,1.21 c 0.2,0.48 0.72,0.76 1.23,0.67 0.52,-0.09 0.9,-0.52 0.93,-1.04 0.09,-1.59 0.29,-3.13 0.58,-4.61 1.64,0.25 3.34,0.49 5.13,0.7 l 5.22,-8.96 0.72,9.51 c 2.8,0.19 5.73,0.31 8.81,0.32 7.77,0.02 14.69,-0.65 20.58,-1.57 0.29,1.48 0.49,3.02 0.58,4.6 0.03,0.52 0.42,0.95 0.93,1.04 0.51,0.09 1.02,-0.19 1.23,-0.67 l 0.51,-1.21 c 0.3,-0.24 0.67,-0.34 0.98,-0.27 0.14,0.03 0.26,0.08 0.37,0.15 0.12,0.08 0.23,0.17 0.31,0.29 0.11,0.17 0.17,0.36 0.18,0.56 l -0.42,3.98 z" id="path6" style="display:inline" />
  <path class="cls-1" d="M41.01,30.53c.12-.12.19-.29.18-.47,0-.17-.09-.34-.22-.45-.36-.3-3.54-2.89-5.62-2.89s-5.31,3.27-5.67,3.65c-.12.13-.18.3-.17.47.01.17.1.34.23.45.36.29,3.54,2.79,5.61,2.79s5.3-3.19,5.66-3.56ZM35.35,32.83c-1.16,0-3.14-1.27-4.27-2.1.7-.67,1.6-1.43,2.44-1.99-.22.34-.35.74-.35,1.18,0,1.2.98,2.18,2.18,2.18s2.18-.98,2.18-2.18c0-.57-.23-1.09-.59-1.48.96.46,1.98,1.17,2.68,1.69-1.28,1.2-3.22,2.69-4.27,2.69Z" id="path7" />
  <path class="cls-1" d="m 19.8,26.72 c -2.07,0 -5.26,2.59 -5.62,2.89 -0.13,0.11 -0.22,0.28 -0.22,0.45 0,0.17 0.06,0.35 0.18,0.47 0.36,0.36 3.55,3.56 5.66,3.56 2.11,0 5.25,-2.51 5.61,-2.79 0.14,-0.11 0.22,-0.27 0.23,-0.45 0.01,-0.17 -0.05,-0.35 -0.17,-0.47 -0.36,-0.37 -3.55,-3.65 -5.67,-3.65 z m 0,6.11 c -1.05,0 -2.99,-1.5 -4.27,-2.69 0.7,-0.53 1.73,-1.23 2.68,-1.69 -0.36,0.39 -0.59,0.91 -0.59,1.48 0,1.2 0.98,2.18 2.18,2.18 1.2,0 2.18,-0.98 2.18,-2.18 0,-0.43 -0.13,-0.84 -0.35,-1.18 0.84,0.55 1.74,1.31 2.44,1.99 -1.13,0.83 -3.11,2.1 -4.27,2.1 z" id="path8" style="display:inline" />
</svg>
