<?xml version="1.0" encoding="UTF-8"?><svg id="Ebene_1" xmlns="http://www.w3.org/2000/svg" width="102.37" height="54.76" viewBox="0 0 102.37 54.76"><defs><style>.cls-1{fill:#89b3c3;}.cls-1,.cls-2,.cls-3{stroke-width:0px;}.cls-2{fill:#88b2c2;}.cls-3{fill:#fff;}</style></defs><path id="Pfad_3443" class="cls-1" d="M102.37,30.38c0,5.85-4.75,10.6-10.6,10.6-5.85,0-10.6-4.75-10.6-10.6s4.75-10.6,10.6-10.6c5.85,0,10.6,4.75,10.6,10.6h0"/><path class="cls-3" d="M97.21,28.59c-1.4-3.04-5.01-4.39-8.06-2.99-.04.02-.08.05-.12.07l.76-1.96c.1-.26-.03-.55-.29-.65-.26-.1-.55.03-.65.29l-1.29,3.35c-.1.15-.11.33-.03.48,0,0,0,0,0,0,0,0,0,.01.01.02.02.03.03.07.06.1,0,0,.02.01.03.02.03.04.08.06.12.09,0,0,.01,0,.02.01.02,0,.03.02.05.03l3.42,1.3c.06.02.12.03.18.03.2,0,.39-.12.47-.32.1-.26-.03-.55-.29-.64l-2.6-.99c.19-.12.38-.23.58-.32,2.54-1.17,5.56-.05,6.73,2.5,1.17,2.54.05,5.56-2.5,6.73-2.54,1.17-5.56.05-6.73-2.5-.12-.25-.41-.36-.66-.25-.25.12-.36.41-.25.66,1.02,2.23,3.23,3.54,5.53,3.54.85,0,1.71-.18,2.53-.55,3.04-1.4,4.38-5.01,2.99-8.06Z"/><path class="cls-2" d="M61.54,30.38c0-4.21,1.63-8.15,4.6-11.12.59-.58.59-1.54,0-2.12s-1.54-.59-2.12,0c-3.53,3.53-5.48,8.23-5.48,13.24s1.95,9.71,5.48,13.24c.29.29.68.44,1.06.44s.77-.15,1.06-.44c.58-.59.58-1.54,0-2.12-2.97-2.96-4.6-6.91-4.6-11.12Z"/><path class="cls-2" d="M72.09,20.02c-.59-.59-1.54-.58-2.12,0-2.77,2.76-4.29,6.44-4.29,10.36s1.52,7.6,4.29,10.36c.29.29.68.44,1.06.44s.77-.15,1.06-.44c.58-.59.58-1.54,0-2.12-2.2-2.2-3.41-5.12-3.41-8.24s1.21-6.04,3.41-8.24c.59-.59.59-1.54,0-2.12Z"/><path class="cls-2" d="M75.81,30.39c0-2.02.79-3.93,2.22-5.36.59-.59.59-1.54,0-2.12-.59-.59-1.54-.58-2.12,0-2,2-3.1,4.66-3.1,7.48s1.1,5.48,3.1,7.48c.29.29.68.44,1.06.44s.77-.15,1.06-.44c.58-.59.58-1.54,0-2.12-1.43-1.43-2.22-3.33-2.22-5.36Z"/><path class="cls-2" d="M54.61,24.37c-.18-.28-.41-.51-.66-.72C52.37,10.15,41.51,0,27.92,0c-.05,0-.1,0-.14,0-.07,0-.13-.01-.2-.01-.2,0-.4.03-.6.03-.31,0-.61.03-.92.05-.28.02-.56.04-.84.06C12.65,1.39,2.6,11.28,1.07,23.76c-.2.18-.38.38-.53.61-.35.55-.54,1.18-.54,1.84,0,.04,0,.08,0,.12l.84,7.97c.03,1.73,1.36,3.16,3.11,3.34.08,0,.17,0,.25,0l3.27,10.33c.04,1.53.73,2.97,1.9,3.97,1.21,1.02,2.79,1.46,4.34,1.2,1.71-.28,2.96-.55,4.07-.78.04,0,.07-.02.11-.02,2.88,1.58,6.13,2.43,9.67,2.43s6.94-.89,9.87-2.54c.2.04.4.08.61.13,1.11.23,2.36.49,4.07.78.29.05.59.07.88.07,1.26,0,2.49-.44,3.46-1.27,1.18-1,1.87-2.45,1.9-3.99l2.88-10.31c1.73-.2,3.03-1.62,3.06-3.33l.84-7.97s0-.08,0-.12c0-.66-.19-1.29-.54-1.84Z"/><path class="cls-2" d="M52.51,29.8l-.45,4.31s0,.08,0,.12c0,.6-.47,1.1-1.09,1.17,0,0,0,0-.01,0-.11.01-.26-.02-.43-.08l-.41-.15-2-.71c-.3-.11-.63-.08-.91.07s-.48.41-.56.72c-1.78,7.04-5.43,12.22-10.3,14.98-.43.24-.87.47-1.31.68-.56.26-1.14.49-1.73.68-1.79.6-3.7.92-5.72.92s-3.81-.31-5.56-.87c-.58-.19-1.15-.41-1.71-.66-.45-.2-.89-.42-1.32-.66-4.95-2.74-8.67-7.96-10.47-15.08-.08-.31-.28-.57-.56-.72-.17-.09-.35-.13-.53-.13-.13,0-.25.02-.38.06l-1.84.65-.58.21c-.08.03-.16.05-.24.07-.08.01-.15.02-.21.01-.35-.04-.63-.22-.83-.47-.16-.2-.26-.43-.26-.7,0-.04,0-.08,0-.12v-.03s-.44-4.17-.44-4.17l-.4-3.76c0-.2.07-.39.18-.56.07-.11.16-.19.25-.25.16-.11.32-.17.43-.19.32-.07.69.04.98.27l.51,1.21c.2.48.71.77,1.23.67.52-.09.9-.52.93-1.04.09-1.6.29-3.14.59-4.63,1.74.27,3.56.53,5.47.75l5.22-8.96.72,9.51c2.8.19,5.73.31,8.81.32,7.62.02,14.43-.62,20.25-1.51.28,1.45.48,2.96.57,4.52.03.52.42.95.93,1.04.51.09,1.02-.19,1.23-.67l.51-1.21c.3-.24.66-.34.98-.27.11.02.21.07.3.12.15.08.29.18.38.32t0,0c.11.17.17.36.18.56l-.38,3.64Z"/><path class="cls-3" d="M52.72,25.6s0,0,0,0c-.09-.14-.23-.24-.38-.32-.09-.05-.19-.1-.3-.12-.32-.07-.68.04-.98.27l-.51,1.21c-.2.48-.72.76-1.23.67-.52-.09-.9-.52-.93-1.04-.09-1.56-.29-3.07-.57-4.52-5.82.89-12.63,1.53-20.25,1.51-3.07,0-6.01-.13-8.81-.32l-.72-9.51-5.22,8.96c-1.91-.22-3.74-.47-5.47-.75-.29,1.49-.5,3.03-.59,4.63-.03.52-.42.95-.93,1.04-.52.1-1.02-.19-1.23-.67l-.51-1.21c-.3-.24-.67-.34-.98-.27-.11.02-.28.08-.43.19-.09.06-.18.14-.25.25-.11.17-.17.36-.18.56l.4,3.76.44,4.17v.03s0,.08,0,.12c0,.26.1.5.26.7.2.25.48.43.83.47.06,0,.13,0,.21-.01.07-.01.15-.03.24-.07l.58-.21,1.84-.65c.12-.04.25-.06.38-.06.18,0,.37.04.53.13.28.15.48.41.56.72,1.8,7.12,5.52,12.34,10.47,15.08.43.24.87.46,1.32.66.56.25,1.13.47,1.71.66,1.75.56,3.6.87,5.56.87s3.92-.33,5.72-.92c.59-.2,1.17-.42,1.73-.68.45-.21.88-.43,1.31-.68,4.86-2.77,8.52-7.94,10.3-14.98.08-.31.28-.57.56-.72s.61-.17.91-.07l2,.71.41.15c.17.06.32.09.43.08,0,0,0,0,.01,0,.62-.06,1.09-.57,1.09-1.17,0-.04,0-.08,0-.12l.45-4.31.38-3.64c0-.2-.07-.39-.18-.56ZM27.57,42.1c3.25,0,5.53-1.61,6.37-2.3.43-.35,1.05-.29,1.41.13.35.42.29,1.06-.13,1.41-1,.83-3.75,2.76-7.65,2.76h-.07c-3.72-.02-6.34-1.74-7.58-2.76-.42-.35-.48-.98-.13-1.41.35-.42.98-.49,1.41-.13.83.69,3.1,2.28,6.31,2.3h.06ZM18.23,32c-.41-.51-.67-1.16-.67-1.87,0-1.66,1.35-3,3-3s3,1.35,3,3c0,.71-.26,1.35-.67,1.87h-4.67ZM36.92,32h-4.67c-.41-.51-.67-1.16-.67-1.87,0-1.66,1.35-3,3-3s3,1.35,3,3c0,.71-.26,1.35-.67,1.87Z"/><path class="cls-2" d="M33.94,39.79c-.84.7-3.12,2.3-6.37,2.3h-.06c-3.21-.02-5.48-1.62-6.31-2.3-.42-.35-1.06-.29-1.41.13-.35.42-.29,1.06.13,1.41,1.23,1.02,3.86,2.74,7.58,2.76h.07c3.9,0,6.64-1.93,7.65-2.76.42-.35.48-.98.13-1.41-.35-.42-.98-.48-1.41-.13Z"/><path class="cls-2" d="M34.58,27.13c-1.66,0-3,1.35-3,3,0,.71.26,1.35.67,1.87h4.67c.41-.51.67-1.16.67-1.87,0-1.66-1.35-3-3-3Z"/><path class="cls-2" d="M23.57,30.13c0-1.66-1.35-3-3-3s-3,1.35-3,3c0,.71.26,1.35.67,1.87h4.67c.41-.51.67-1.16.67-1.87Z"/><path class="cls-2" d="M61.57,30.38c0-4.21,1.63-8.15,4.6-11.12.59-.58.59-1.54,0-2.12s-1.54-.59-2.12,0c-3.53,3.53-5.48,8.23-5.48,13.24s1.95,9.71,5.48,13.24c.29.29.68.44,1.06.44s.77-.15,1.06-.44c.58-.59.58-1.54,0-2.12-2.97-2.96-4.6-6.91-4.6-11.12Z"/><path class="cls-2" d="M72.12,20.02c-.59-.59-1.54-.58-2.12,0-2.77,2.76-4.29,6.44-4.29,10.36s1.52,7.6,4.29,10.36c.29.29.68.44,1.06.44s.77-.15,1.06-.44c.58-.59.58-1.54,0-2.12-2.2-2.2-3.41-5.12-3.41-8.24s1.21-6.04,3.41-8.24c.59-.59.59-1.54,0-2.12Z"/><path class="cls-2" d="M75.84,30.39c0-2.02.79-3.93,2.22-5.36.59-.59.59-1.54,0-2.12-.59-.59-1.54-.58-2.12,0-2,2-3.1,4.66-3.1,7.48s1.1,5.48,3.1,7.48c.29.29.68.44,1.06.44s.77-.15,1.06-.44c.58-.59.58-1.54,0-2.12-1.43-1.43-2.22-3.33-2.22-5.36Z"/></svg>