<?xml version="1.0" encoding="UTF-8"?>
<svg id="Ebene_1" data-name="Ebene 1" xmlns="http://www.w3.org/2000/svg" width="42.23" height="42.23" viewBox="0 0 42.23 42.23">
  <defs>
    <style>
      .cls-1 {
        fill: #89b3c3;
      }

      .cls-1, .cls-2 {
        stroke-width: 0px;
      }

      .cls-2 {
        fill: #fff;
      }
    </style>
  </defs>
  <g id="Gruppe_1643" data-name="Gruppe 1643">
    <g id="Gruppe_1642" data-name="Gruppe 1642">
      <g id="Gruppe_1627" data-name="Gruppe 1627">
        <g id="Gruppe_1626" data-name="Gruppe 1626">
          <g>
            <circle id="Ellipse_298" data-name="Ellipse 298" class="cls-2" cx="21.12" cy="21.12" r="20.12"/>
            <path class="cls-1" d="M21.12,42.23C9.47,42.23,0,32.76,0,21.12S9.47,0,21.12,0s21.12,9.47,21.12,21.12-9.47,21.12-21.12,21.12ZM21.12,2C10.58,2,2,10.58,2,21.12s8.58,19.12,19.12,19.12,19.12-8.58,19.12-19.12S31.66,2,21.12,2Z"/>
          </g>
        </g>
      </g>
    </g>
  </g>
  <path class="cls-1" d="M25.18,6.16c-.11.01-.21.07-.26.16l-12.13,17.63c-.16.23.04.58.3.58h6.6l-3.33,11.07c-.05.17.04.37.2.44.16.08.36.03.46-.12l12.42-17.8c.16-.23-.03-.58-.3-.58h-6.81l3.25-10.89c.08-.24-.16-.52-.4-.48h0Z"/>
</svg>