<?xml version="1.0" encoding="UTF-8" standalone="no"?>
<svg width="292.92001" height="456.89999" viewBox="0 0 292.92001 456.89999" version="1.1" id="svg173" sodipodi:docname="k_app_video_ende_rosa_screen.svg" inkscape:version="1.3.1 (91b66b0, 2023-11-16)" xmlns:inkscape="http://www.inkscape.org/namespaces/inkscape" xmlns:sodipodi="http://sodipodi.sourceforge.net/DTD/sodipodi-0.dtd" xmlns:xlink="http://www.w3.org/1999/xlink" xmlns="http://www.w3.org/2000/svg" xmlns:svg="http://www.w3.org/2000/svg">
  <sodipodi:namedview id="namedview173" pagecolor="#ffffff" bordercolor="#666666" borderopacity="1.0" inkscape:showpageshadow="2" inkscape:pageopacity="0.0" inkscape:pagecheckerboard="0" inkscape:deskcolor="#d1d1d1" inkscape:zoom="0.2229997" inkscape:cx="132.28717" inkscape:cy="843.05046" inkscape:window-width="1440" inkscape:window-height="855" inkscape:window-x="0" inkscape:window-y="23" inkscape:window-maximized="1" inkscape:current-layer="svg173" />
  <defs id="defs5">
    <style id="style1">.cls-1, .cls-2, .cls-3, .cls-4, .cls-5, .cls-6, .cls-7, .cls-8, .cls-9, .cls-10, .cls-11, .cls-12, .cls-13, .cls-14, .cls-15, .cls-16, .cls-17, .cls-18, .cls-19, .cls-20, .cls-21, .cls-22, .cls-23, .cls-24, .cls-25, .cls-26 { stroke-width: 0px; }
.cls-2 { fill: url(#Neues_Verlaufsfeld_1-6); }
.cls-4 { fill: url(#Neues_Verlaufsfeld_1-8); }
.cls-5 { fill: #373738; }
.cls-6, .cls-27, .cls-20, .cls-21, .cls-22 { mix-blend-mode: multiply; }
.cls-7 { opacity: .4; }
.cls-7, .cls-26 { fill: #f5aaa5; }
.cls-8 { fill: #bb1264; }
.cls-29, .cls-30 { stroke-linecap: round;        stroke-linejoin: round; }
.cls-9 { fill: #e5715a; }
.cls-10 { fill: #adccd8; }
.cls-11 { fill: #3a3a39; }
.cls-12 { fill: #5883a5; }
.cls-14, .cls-31 { fill: #e72f72; }
.cls-30 { stroke: #b7c18d;        stroke-width: .59px; }
.cls-30, .cls-16 { opacity: .5; }
.cls-30, .cls-16, .cls-24 { fill: #fff; }
.cls-15 { fill: #3a3a39; }
.cls-32 { opacity: .6; }
.cls-17 { fill: #b7c18d; }
.cls-18 { fill: #fff299; }
.cls-19 { fill: #f4f6e6; }
.cls-21 { fill: url(#Neues_Verlaufsfeld_1-7); }
.cls-22 { fill: url(#Neues_Verlaufsfeld_1-5); }
.cls-23 { fill: #e4e9c0; }
.cls-25 { fill: #f9c9bd; }
</style>
    <linearGradient id="Neues_Verlaufsfeld_1" data-name="Neues Verlaufsfeld 1" x1="520.15002" y1="1557.39" x2="602.46997" y2="1509.87" gradientUnits="userSpaceOnUse">
      <stop offset="0" stop-color="#c3cfe7" id="stop1" />
      <stop offset=".23" stop-color="#c9d3e9" id="stop2" />
      <stop offset=".55" stop-color="#dae1f0" id="stop3" />
      <stop offset=".91" stop-color="#f7f8fb" id="stop4" />
      <stop offset="1" stop-color="#fff" id="stop5" />
    </linearGradient>
    <linearGradient id="Neues_Verlaufsfeld_1-5" data-name="Neues Verlaufsfeld 1" x1="321.92001" y1="455.37" x2="404.23999" y2="407.84" xlink:href="#Neues_Verlaufsfeld_1" gradientTransform="translate(-251.92,-110.91)" />
    <linearGradient id="Neues_Verlaufsfeld_1-6" data-name="Neues Verlaufsfeld 1" x1="432.48001" y1="-80.559998" x2="457.22" y2="-80.559998" gradientTransform="rotate(5.43,-3596.0061,-340.6241)" xlink:href="#Neues_Verlaufsfeld_1" />
    <linearGradient id="Neues_Verlaufsfeld_1-7" data-name="Neues Verlaufsfeld 1" x1="401.87" y1="-89.860001" x2="427.75" y2="-89.860001" gradientTransform="rotate(5.43,-3596.0061,-340.6241)" xlink:href="#Neues_Verlaufsfeld_1" />
    <linearGradient id="Neues_Verlaufsfeld_1-8" data-name="Neues Verlaufsfeld 1" x1="370.04001" y1="-48.400002" x2="426.20001" y2="-48.400002" gradientTransform="rotate(5.43,-3433.0328,-329.01392)" xlink:href="#Neues_Verlaufsfeld_1" />
  </defs>
  <path class="cls-16" d="m 266.22,426.21 c 0,16.95 -59.6,30.69 -133.11,30.69 C 59.6,456.9 0,443.16 0,426.21 c 0,-16.95 59.6,-30.7 133.11,-30.7 73.51,0 133.11,13.75 133.11,30.7 z" id="path93" style="isolation:isolate" />
  <path class="cls-24" d="m 284.07,176.8 c 5.53,-6.73 8.85,-15.35 8.85,-24.74 0,-21.56 -17.47,-39.03 -39.03,-39.03 -2.98,0 -5.87,0.36 -8.66,1 -7.85,-16.75 -24.82,-28.37 -44.54,-28.37 -16.28,0 -30.66,7.93 -39.62,20.11 -4.35,-1.26 -8.93,-1.97 -13.69,-1.97 -27.18,0 -49.22,22.03 -49.22,49.22 0,8.64 2.24,16.74 6.15,23.8 h 179.75 z" id="path94" style="isolation:isolate" />
  <path class="cls-24" d="m 141.44,78.58 c 3.8,-4.63 6.08,-10.54 6.08,-17 0,-14.8 -12,-26.81 -26.81,-26.81 -2.05,0 -4.03,0.25 -5.95,0.68 -5.39,-11.5 -17.04,-19.49 -30.59,-19.49 -11.18,0 -21.06,5.45 -27.21,13.81 -2.99,-0.86 -6.13,-1.35 -9.4,-1.35 -18.67,0 -33.8,15.13 -33.8,33.8 0,5.93 1.54,11.5 4.22,16.34 h 123.46 z" id="path95" style="isolation:isolate" />
  <path class="cls-24" d="m 115.72,62.62 c -3.8,-4.63 -6.08,-10.54 -6.08,-17 0,-14.8 12,-26.81 26.81,-26.81 2.05,0 4.03,0.25 5.95,0.68 C 147.79,7.99 159.44,0 172.99,0 c 11.18,0 21.06,5.45 27.21,13.81 2.99,-0.86 6.13,-1.35 9.4,-1.35 18.67,0 33.8,15.13 33.8,33.8 0,5.93 -1.54,11.5 -4.22,16.34 H 115.72 Z" id="path96" style="isolation:isolate" />
  <rect class="cls-25" x="137.59001" y="376.41" width="13.96" height="33.540001" id="rect96" style="isolation:isolate" />
  <rect class="cls-25" x="114.50002" y="376.41" width="13.96" height="33.540001" id="rect97" style="isolation:isolate" />
  <path class="cls-14" d="m 129.3,388.94 h -15.63 c -0.56,0 -1.01,0.45 -1.01,1.01 0,0.56 0.45,1.01 1.01,1.01 v 31.41 h 15.63 v -31.41 c 0.56,0 1.01,-0.45 1.01,-1.01 0,-0.56 -0.45,-1.01 -1.01,-1.01 z" id="path97" style="isolation:isolate" />
  <path class="cls-14" d="m 153.4,408.14 c 0,-0.56 -0.45,-1.01 -1.02,-1.01 v -1.57 c 0.56,0 1.02,-0.45 1.02,-1.01 0,-0.56 -0.45,-1.01 -1.02,-1.01 h -15.63 c -0.56,0 -1.01,0.45 -1.01,1.01 0,0.56 0.45,1.01 1.01,1.01 v 1.57 c -0.56,0 -1.01,0.45 -1.01,1.01 0,0.56 0.45,1.01 1.01,1.01 v 2.01 c -0.56,0 -1.01,0.45 -1.01,1.01 0,0.56 0.45,1.01 1.01,1.01 v 9.19 h 15.63 v -9.19 c 0.56,0 1.02,-0.45 1.02,-1.01 0,-0.56 -0.45,-1.01 -1.02,-1.01 v -2.01 c 0.56,0 1.02,-0.45 1.02,-1.01 z" id="path98" style="isolation:isolate" />
  <path class="cls-25" d="m 204.36,294.43 -1.49,-0.45 2.06,-6.79 1.49,0.45 c 1.31,0.4 2.71,0.17 3.91,-0.49 1.76,-0.96 3.84,-1.24 5.63,-0.45 3.11,1.38 4.17,5.45 3.27,8.48 -0.91,3.06 -4.08,5.91 -7.46,5.32 -1.93,-0.34 -3.51,-1.72 -4.44,-3.5 -0.63,-1.22 -1.66,-2.18 -2.98,-2.58 z" id="path99" style="isolation:isolate" />
  <path class="cls-5" d="m 221.97879,253.49689 2.24548,0.49781 -12.03405,54.28206 c -0.13852,0.62483 -0.75657,1.01019 -1.37164,0.87383 v 0 c -0.62483,-0.13852 -1.01019,-0.75658 -0.87384,-1.37164 z" id="path100" style="isolation:isolate" />
  <path class="cls-25" d="m 215.96,286.7 c -0.35,-0.16 -0.72,-0.24 -1.09,-0.32 -0.11,0.02 -0.22,0.01 -0.33,0.05 -2.22,0.72 -3.02,4.34 -1.8,8.07 0.32,0.97 0.74,1.84 1.23,2.6 1.02,1.58 3.42,1.52 4.42,-0.08 0.37,-0.59 0.66,-1.21 0.85,-1.85 0.9,-3.03 -0.16,-7.1 -3.27,-8.48 z" id="path101" style="isolation:isolate" />
  <circle class="cls-5" cx="211.14" cy="308.01999" r="2.02" id="circle101" style="isolation:isolate" />
  <g id="g105" style="isolation:isolate" transform="translate(-251.92,-110.91)">
    <path class="cls-11" d="m 381.22,533.29 h -19.54 v -3.21 c 1.1,-4.51 5.18,-7.7 9.81,-7.68 4.6,0.02 8.63,3.2 9.73,7.68 z" id="path102" />
    <path class="cls-23" d="m 373.01,525.63 h -3 c -1.43,0 -2.59,-1.16 -2.59,-2.59 0,-1.43 1.16,-2.59 2.59,-2.59 h 3 c 1.43,0 2.59,1.16 2.59,2.59 0,1.43 -1.16,2.59 -2.59,2.59 z" id="path103" />
    <path class="cls-11" d="m 408.21,533.29 h -19.54 v -3.21 c 1.1,-4.51 5.18,-7.7 9.81,-7.68 4.6,0.02 8.63,3.2 9.73,7.68 z" id="path104" />
    <path class="cls-23" d="m 399.94,525.63 h -3 c -1.43,0 -2.58,-1.16 -2.58,-2.59 0,-1.43 1.16,-2.59 2.58,-2.59 h 3 c 1.43,0 2.58,1.16 2.58,2.59 0,1.43 -1.16,2.59 -2.58,2.59 z" id="path105" />
  </g>
  <g id="g111" style="isolation:isolate" transform="translate(-251.92,-110.91)">
    <path class="cls-25" d="m 325.22,348.69 0.49,1.47 -6.73,2.26 -0.49,-1.47 c -0.44,-1.3 -1.43,-2.3 -2.66,-2.9 -1.81,-0.87 -3.24,-2.41 -3.63,-4.33 -0.68,-3.33 2.03,-6.56 5.01,-7.58 3.02,-1.04 7.18,-0.11 8.66,2.98 0.85,1.77 0.63,3.85 -0.28,5.64 -0.62,1.22 -0.81,2.62 -0.37,3.92 z" id="path106" />
    <path class="cls-25" d="m 327.3,337.8 c 0.51,3.34 -1.24,6.44 -1.67,6.36 -0.23,-0.04 0.03,-0.97 -0.32,-2.89 -0.32,-1.77 -0.61,-2.2 -0.97,-3.88 -0.07,-0.33 -0.96,-4.47 -0.22,-4.75 0.63,-0.24 2.74,2.22 3.19,5.16 z" id="path107" />
    <path class="cls-25" d="m 321.24,332.11 c 0.41,1.16 1.72,4.82 0.47,5.72 -0.43,0.31 -1,0.17 -1.07,0.15 -0.28,-0.07 -1.39,-0.46 -2.15,-4.91 -0.23,-1.33 -0.96,-5.66 -0.15,-5.9 0.72,-0.21 2.21,3 2.9,4.94 z" id="path108" />
    <path class="cls-25" d="m 317.26,332.04 c 0.34,0.69 2.32,4.67 1.11,5.7 -0.28,0.24 -0.62,0.24 -0.7,0.23 -1.63,0 -2.75,-3.52 -3.19,-4.77 -0.75,-2.09 -1.46,-5.38 -0.73,-5.68 0.72,-0.3 2.59,2.65 3.52,4.52 z" id="path109" />
    <path class="cls-25" d="m 314.15,334.17 c 0.45,0.73 2.66,4.3 1.6,5.41 -0.04,0.04 -0.17,0.18 -0.39,0.23 -1.26,0.34 -3.07,-2.55 -3.89,-4.25 -1.04,-2.14 -1.9,-5.25 -1.22,-5.6 0.72,-0.37 2.88,2.55 3.9,4.2 z" id="path110" />
    <path class="cls-25" d="m 313.29,340.17 c 0.97,2.13 1.02,3.67 1.05,5.16 0.02,1.18 -0.12,1.29 -0.2,1.32 -0.61,0.24 -2.47,-2.74 -3.59,-5.62 -0.74,-1.92 -1.73,-5.31 -1.07,-5.63 0.64,-0.31 2.7,2.37 3.8,4.78 z" id="path111" />
  </g>
  <polygon class="cls-10" points="367.04,374.1 363.21,358.38 325.33,368.99 321.29,385.91 " id="polygon111" style="isolation:isolate" transform="translate(-251.92,-110.91)" />
  <path class="cls-10" d="m 74.67,236.36 c -1.08,1.11 -2.64,2.47 -4.74,3.64 -3.59,2.01 -6.98,2.5 -8.98,2.62 2.81,10.79 5.62,21.58 8.42,32.38 l 14.96,-5.03 z" id="path112" style="isolation:isolate" />
  <path class="cls-12" d="m 121.29,244.73 c -4.26,1.21 -10.31,3.61 -15.49,8.76 -9.66,9.61 -10.47,22.97 -10.93,28.28 -1.33,15.51 -6.22,38.94 -20.25,76.49 6.36,4.61 17.55,11.44 33,14.64 10.18,2.11 19.04,1.99 25.48,1.37 V 248.9 l -11.82,-4.18 z" id="path113" style="isolation:isolate" />
  <path class="cls-8" d="m 169.92,225.86 c 1.07,27.76 -15.22,51.48 -36.43,51.48 -21.21,0 -37.49,-23.72 -36.43,-51.48 1.01,-26.23 17.16,-40.37 36.43,-40.37 19.27,0 35.42,14.15 36.43,40.37 z" id="path114" style="isolation:isolate" />
  <path class="cls-14" d="m 152.67,202.15 c 3.81,6.24 6.21,14.16 6.58,23.71 0.97,25.37 -12.56,47.32 -31.09,50.91 1.74,0.34 3.51,0.57 5.33,0.57 21.21,0 37.49,-23.72 36.42,-51.48 -0.37,-9.54 -2.76,-17.47 -6.56,-23.71 h -10.69 z" id="path115" style="isolation:isolate" />
  <g id="g117" style="isolation:isolate" transform="translate(-251.92,-110.91)">
    <path class="cls-25" d="m 417.06,323.79 c -2.2,-1.2 -5.41,-0.58 -7.42,1.26 -0.66,0.6 -1.14,1.3 -1.44,2.03 0.16,-0.18 0.28,-0.39 0.47,-0.56 1.78,-1.61 4.35,-2.18 5.89,-1.18 1.71,1.11 1.49,3.69 -0.66,5.64 -0.85,0.77 -1.81,1.26 -2.75,1.51 1.94,0.44 4.31,-0.1 6.1,-1.72 2.61,-2.37 2.36,-5.58 -0.18,-6.97 z" id="path116" />
    <path class="cls-26" d="m 413.89,330.97 c 2.15,-1.95 2.37,-4.53 0.66,-5.64 -1.54,-1 -4.11,-0.43 -5.89,1.18 -0.19,0.17 -0.31,0.37 -0.47,0.56 -0.62,1.48 -0.47,3.06 0.64,4.2 0.6,0.62 1.41,1 2.3,1.21 0.94,-0.24 1.9,-0.74 2.75,-1.51 z" id="path117" />
  </g>
  <path class="cls-12" d="m 144.92,244.73 c 4.26,1.21 10.31,3.61 15.49,8.76 9.66,9.61 10.47,22.97 10.93,28.28 1.33,15.51 6.22,38.94 20.25,76.49 -6.36,4.61 -17.55,11.44 -33,14.64 -10.18,2.11 -19.04,1.99 -25.48,1.37 0,-41.79 0,-83.58 0,-125.37 l 11.82,-4.18 z" id="path118" style="isolation:isolate" />
  <path class="cls-10" d="m 152.02,302.41 h -37.83 l -12.72,-35.9 c -2.68,-7.56 1.19,-15.84 8.68,-18.7 6.02,-2.3 13.74,-4.22 22.82,-4.24 9.18,-0.02 16.99,1.91 23.07,4.23 7.5,2.86 11.37,11.14 8.7,18.71 z" id="path119" style="isolation:isolate" />
  <path class="cls-25" d="m 124.3,227.23 v 18.36 c 0,4.88 3.96,8.84 8.84,8.84 4.88,0 8.84,-3.96 8.84,-8.84 v -18.36 z" id="path120" style="isolation:isolate" />
  <path class="cls-10" d="m 175.22,358.5 c -3.23,-27.97 -12.42,-47.6 -21.24,-64.18 h -41.75 c -8.82,16.58 -18.01,36.21 -21.24,64.18 -0.82,7.11 -1.18,13.87 -1.2,20.22 3.11,1.55 7.63,3.52 13.3,5.02 4.18,1.1 14.96,3.53 28.67,1.5 8.45,-1.25 9.19,-2.88 18.21,-4.83 10.9,-2.35 20.21,-2.2 26.45,-1.69 -0.02,-5.15 -0.27,-12.09 -1.2,-20.22 z" id="path121" style="isolation:isolate" />
  <ellipse class="cls-25" cx="132.98" cy="211.38998" rx="27.870001" ry="29.790001" id="ellipse121" style="isolation:isolate" />
  <g id="g123" style="isolation:isolate" transform="translate(-251.92,-110.91)">
    <ellipse class="cls-26" cx="366.79999" cy="336.32999" rx="4.52" ry="6.25" transform="rotate(-28.68,366.84014,336.36264)" id="ellipse122" />
    <ellipse class="cls-26" cx="403" cy="336.32999" rx="6.25" ry="4.52" transform="rotate(-61.32,402.96915,336.33041)" id="ellipse123" />
  </g>
  <path class="cls-7" d="m 133.14,241.26 c -3.08,0 -6.04,-0.5 -8.84,-1.42 v 3.44 c 2.79,0.56 5.76,0.68 8.84,0.28 3.08,-0.4 6.04,-1.28 8.84,-2.56 v -1.16 c -2.79,0.92 -5.76,1.42 -8.84,1.42 z" id="path123" style="isolation:isolate" />
  <path class="cls-22" d="m 120.72,292.83 c 0,-16.63 0.48,-32.78 1.36,-48.29 -4.48,0.78 -8.49,1.96 -11.92,3.27 -7.49,2.86 -11.35,11.14 -8.68,18.7 l 10.21,28.84 c -8.66,16.37 -17.54,35.76 -20.7,63.15 -0.82,7.11 -1.18,13.87 -1.2,20.22 3.11,1.55 7.63,3.52 13.3,5.02 3.56,0.94 11.96,2.82 22.86,2.1 -3.35,-28.02 -5.24,-59.59 -5.24,-93.01 z" id="path124" style="isolation:isolate;fill:url(#Neues_Verlaufsfeld_1-5)" />
  <path class="cls-12" d="m 124.29,243.66 c -0.61,-0.29 -2.37,-1.04 -4.49,-0.55 -1.62,0.37 -3.6,1.5 -3.86,2.68 -0.37,1.69 2.51,4.75 16.47,10.8 0.32,-0.78 0.65,-1.55 0.97,-2.33 -1.43,-0.71 -3.87,-2.16 -6.01,-4.85 -1.75,-2.18 -2.62,-4.33 -3.07,-5.75 z" id="path125" style="isolation:isolate" />
  <path class="cls-12" d="m 141.99,243.66 c 0.61,-0.29 2.37,-1.04 4.49,-0.55 1.62,0.37 3.6,1.5 3.86,2.68 0.37,1.69 -2.51,4.75 -16.47,10.8 -0.32,-0.78 -0.65,-1.55 -0.97,-2.33 1.43,-0.71 3.87,-2.16 6.01,-4.85 1.75,-2.18 2.62,-4.33 3.07,-5.75 z" id="path126" style="isolation:isolate" />
  <circle class="cls-12" cx="133.11" cy="255.25" r="4.6500001" id="circle126" style="isolation:isolate" />
  <g id="g128" style="isolation:isolate" transform="translate(-251.92,-110.91)">
    <path class="cls-12" d="m 382.19,367.89 -5.91,6.54 c 0.11,0.56 0.52,2.15 1.97,3.47 1.7,1.54 3.66,1.64 4.18,1.66 0.87,-3.84 1.73,-7.67 2.6,-11.51 z" id="path127" />
    <path class="cls-12" d="m 387.86,367.89 5.91,6.54 c -0.11,0.56 -0.52,2.15 -1.97,3.47 -1.7,1.54 -3.66,1.64 -4.18,1.66 -0.87,-3.84 -1.73,-7.67 -2.6,-11.51 z" id="path128" />
  </g>
  <path class="cls-8" d="m 155.63,290.32 c -7.3,-0.23 -14.81,-0.36 -22.53,-0.36 -7.3,0 -14.81,0.11 -22.53,0.36 -0.34,0 -0.62,0.29 -0.6,0.63 l 0.21,6.16 c 0.01,0.32 0.28,0.58 0.6,0.58 7.24,0.22 14.68,0.34 22.31,0.34 7.63,0 14.69,-0.11 22.31,-0.34 0.32,0 0.59,-0.26 0.6,-0.58 l 0.21,-6.16 c 0.01,-0.34 -0.26,-0.63 -0.6,-0.63 z" id="path129" style="isolation:isolate" />
  <polygon class="cls-10" points="421.46,399.85 430.86,387.82 460.36,397.01 454.39,411.62 " id="polygon129" style="isolation:isolate" transform="translate(-251.92,-110.91)" />
  <path class="cls-10" d="m 169.54,288.94 -17.61,-42.55 c 9.14,1.32 21.98,5.38 24.5,14.05 l 5.72,23.39 z" id="path130" style="isolation:isolate" />
  <polygon class="cls-10" points="352.42,488.54 351.67,484.19 347.76,482.37 351.56,480.28 352.05,475.88 355.15,478.94 359.37,478.05 357.48,482.03 359.6,485.88 355.34,485.27 " id="polygon130" style="isolation:isolate" transform="translate(-251.92,-110.91)" />
  <path class="cls-14" d="m 117.17,199.36 h -11.7 c -4.85,6.56 -7.98,15.42 -8.4,26.51 -0.49,12.71 2.71,24.56 8.39,33.75 h 12.46 c -5.81,-9.17 -9.15,-21.03 -8.83,-33.75 0.29,-11.1 3.31,-19.95 8.08,-26.51 z" id="path131" style="isolation:isolate" />
  <path class="cls-14" d="m 120.99,199.36 h -7.6 c -2.87,5.73 -4.62,12.75 -4.84,21.02 -0.33,12.56 2.99,24.28 8.75,33.36 h 2.08 c -3.99,-8.24 -6.23,-17.99 -6.01,-28.33 0.23,-10.84 3.07,-19.54 7.63,-26.05 z" id="path132" style="isolation:isolate" />
  <g id="g133" style="isolation:isolate" transform="translate(-251.92,-110.91)">
    <circle class="cls-8" cx="385.03" cy="405.06" r="5.52" id="circle132" />
    <path class="cls-23" d="m 385.03,412.08 c -3.87,0 -7.02,-3.15 -7.02,-7.02 0,-3.87 3.15,-7.02 7.02,-7.02 3.87,0 7.02,3.15 7.02,7.02 0,3.87 -3.15,7.02 -7.02,7.02 z m 0,-11.04 c -2.22,0 -4.02,1.8 -4.02,4.02 0,2.22 1.8,4.02 4.02,4.02 2.22,0 4.02,-1.8 4.02,-4.02 0,-2.22 -1.8,-4.02 -4.02,-4.02 z" id="path133" />
  </g>
  <path class="cls-19" d="m 183.6,364.2 c -1.18,-4.5 -2.64,-9.23 -4.47,-14.12 -0.53,-1.43 -1.08,-2.83 -1.64,-4.19 1.32,4.43 2.49,9.37 3.28,14.78 0.25,1.69 0.45,3.33 0.61,4.94 l 2.21,-1.41 z" id="path134" style="isolation:isolate" />
  <circle class="cls-24" cx="121.87999" cy="216.60999" r="3.28" id="circle134" style="isolation:isolate" />
  <g class="cls-32" id="g135" style="isolation:isolate" transform="translate(-251.92,-110.91)">
    <path class="cls-9" d="m 387.33,335.58 c -1.08,-1.81 -3.71,-1.79 -4.76,0.04 -0.14,0.25 -0.53,0.08 -0.45,-0.19 0.5,-1.89 3.03,-2.66 4.57,-1.5 0.51,0.36 0.9,0.88 1.07,1.46 0.04,0.13 -0.04,0.26 -0.16,0.3 -0.1,0.03 -0.22,-0.02 -0.27,-0.11 z" id="path135" />
  </g>
  <g class="cls-32" id="g142" style="isolation:isolate" transform="translate(-251.92,-110.91)">
    <circle class="cls-9" cx="394.82999" cy="333.41" r="0.34" id="circle135" />
    <circle class="cls-9" cx="390.51001" cy="335.44" r="0.30000001" id="circle136" />
    <circle class="cls-9" cx="390.51001" cy="333.20001" r="0.43000001" id="circle137" />
    <circle class="cls-9" cx="392.67999" cy="334.59" r="0.46000001" id="circle138" />
    <circle class="cls-9" cx="391.82001" cy="331.62" r="0.28" id="circle139" />
    <circle class="cls-9" cx="387.73999" cy="331.01999" r="0.41" id="circle140" />
    <circle class="cls-9" cx="388.38" cy="333.31" r="0.31999999" id="circle141" />
    <circle class="cls-9" cx="390.12" cy="330.10999" r="0.41" id="circle142" />
  </g>
  <g class="cls-32" id="g150" style="isolation:isolate" transform="translate(-251.92,-110.91)">
    <circle class="cls-9" cx="375.07001" cy="333.35999" r="0.34" id="circle143" />
    <circle class="cls-9" cx="379.39001" cy="335.39999" r="0.30000001" id="circle144" />
    <circle class="cls-9" cx="379.39001" cy="333.14999" r="0.43000001" id="circle145" />
    <circle class="cls-9" cx="377.22" cy="334.54999" r="0.46000001" id="circle146" />
    <circle class="cls-9" cx="378.07999" cy="331.57001" r="0.28" id="circle147" />
    <circle class="cls-9" cx="382.16" cy="330.98001" r="0.41" id="circle148" />
    <circle class="cls-9" cx="381.51001" cy="333.26999" r="0.31999999" id="circle149" />
    <circle class="cls-9" cx="379.78" cy="330.07001" r="0.41" id="circle150" />
  </g>
  <circle class="cls-24" cx="143.97002" cy="216.60999" r="3.28" id="circle151" style="isolation:isolate" />
  <g id="g154" style="isolation:isolate" transform="translate(-251.92,-110.91)">
    <circle class="cls-24" cx="395.89001" cy="327.51999" r="3.28" id="circle152" />
    <circle class="cls-15" cx="395.89001" cy="327.51999" r="1.98" id="circle153" />
    <circle class="cls-24" cx="394.64999" cy="326.48999" r="0.72000003" id="circle154" />
  </g>
  <g id="g156" style="isolation:isolate" transform="translate(-251.92,-110.91)">
    <path class="cls-24" d="m 392.85,339.54 c -1.07,0.85 -3.38,2.42 -6.71,2.95 -4.34,0.69 -7.72,-0.81 -8.91,-1.42 h -0.07 c 2.5,3.58 6.81,5.1 10.42,3.87 3.69,-1.26 5.08,-4.87 5.27,-5.41" id="path154" />
    <path class="cls-9" d="m 377.3,340.97 c 4.68,5.32 11.9,4.82 15.37,-1.49 0.1,-0.19 0.41,-0.08 0.36,0.13 -1.07,5.68 -7.68,8.21 -12.48,5.2 -1.5,-0.88 -2.72,-2.18 -3.53,-3.65 -0.1,-0.17 0.15,-0.34 0.28,-0.19 z" id="path155" />
    <path class="cls-9" d="m 392.95,339.67 c -3.86,4.37 -11.15,4.87 -15.81,1.58 -0.18,-0.12 -0.03,-0.41 0.17,-0.34 5.14,1.83 10.7,1.14 15.43,-1.5 0.16,-0.09 0.34,0.13 0.21,0.26 z" id="path156" />
  </g>
  <g id="g158" style="isolation:isolate" transform="translate(-251.92,-110.91)">
    <circle class="cls-24" cx="373.79999" cy="327.51999" r="3.28" id="circle156" />
    <circle class="cls-15" cx="373.79999" cy="327.51999" r="1.98" id="circle157" />
    <circle class="cls-24" cx="372.56" cy="326.48999" r="0.72000003" id="circle158" />
  </g>
  <path class="cls-14" d="m 103.97,203.29 -0.27,8.51 c 7.92,1.64 18.23,2.64 29.54,2.64 2.37,0 4.68,-0.06 6.95,-0.14 -1.41,-2.09 -2.15,-4.83 -1.84,-7.73 0.79,1.38 2.03,3.09 3.97,4.48 2.72,1.94 5.67,2.42 8.02,2.54 -0.68,-0.82 -1.33,-1.68 -1.9,-2.61 -0.8,-1.33 -1.32,-2.54 -1.66,-3.44 2.03,0.14 3.59,0.59 4.63,0.97 3.33,1.22 6.03,3.44 6.83,4.11 1.72,1.43 2,2.03 2.53,1.92 0.94,-0.19 1.83,-2.43 1.62,-11.46 l 0.12,0.2 h -58.55 z" id="path158" style="isolation:isolate" />
  <g id="g164" style="isolation:isolate" transform="translate(-251.92,-110.91)">
    <path class="cls-10" d="m 435.78,307.26 -4.26,-13.98 c -0.36,-1.18 -1.3,-2.01 -2.49,-2.19 l -6.8,-1.06 c -1.02,-0.16 -1.87,-0.77 -2.35,-1.69 l -11.72,-13.91 -17.55,-6.73 c -2.05,-0.78 -4.46,-0.27 -6.29,1.33 -6.38,4.84 -10.61,9.76 -13.27,13.35 -6.13,8.27 -9.15,16.49 -11.11,21.82 -0.83,2.25 -1.44,4.15 -1.84,5.47 l 55.11,5.6 c 0.15,-1.84 0.26,-3.71 0.33,-5.62 0.12,-3.52 -0.11,-6.78 -0.57,-9.85 1.19,0.74 2.66,0.94 4.1,0.5 l 4.38,-1.34 c 1.37,-0.42 2.79,-0.14 3.79,0.75 l 9.49,8.37 c 0.35,-0.27 0.71,-0.53 1.06,-0.8 z" id="path159" />
    <g class="cls-27" id="g160">
      <path class="cls-2" d="m 409.26,303.81 c 2.1,2.93 3.07,5.82 3.07,5.82 0.6,1.77 0.84,3.31 0.95,4.34 0.1,-1.43 0.2,-2.86 0.25,-4.33 0.12,-3.52 -0.11,-6.78 -0.57,-9.85 -1.67,-1.21 -3.43,-2.42 -5.29,-3.61 -5.83,-3.73 -11.49,-6.58 -16.71,-8.78 9.48,6.88 15.93,13.08 18.31,16.4 z" id="path160" style="fill:url(#Neues_Verlaufsfeld_1-6)" />
    </g>
    <path class="cls-21" d="m 372.39,302.65 c 1.3,-13.68 7.09,-25.83 15.71,-35.24 -1.33,0.12 -2.67,0.63 -3.78,1.61 -6.38,4.84 -10.61,9.76 -13.27,13.35 -6.13,8.27 -9.15,16.49 -11.11,21.82 -0.83,2.25 -1.44,4.15 -1.84,5.47 l 14.15,1.44 c -0.12,-2.78 -0.12,-5.59 0.15,-8.44 z" id="path161" style="fill:url(#Neues_Verlaufsfeld_1-7)" />
    <polygon class="cls-8" points="359.57,303.33 414.13,308.73 413.65,316.19 357.44,310.49 " id="polygon161" />
    <path class="cls-10" d="m 327.08,303.89 c 38.56,11.97 79.47,-0.78 118.03,11.21 q 0,0 0,0 c -1.04,5.26 -7.15,8.41 -13.07,7.33 -31.85,-6.03 -64.94,1.02 -96.71,-5.81 -5.91,-1.27 -9.29,-7.48 -8.24,-12.73 v 0 z" id="path162" />
    <g class="cls-27" id="g163">
      <path class="cls-4" d="m 374.42,309.55 c -15.96,-0.04 -31.84,-0.84 -47.34,-5.65 v 0 c -1.04,5.25 2.34,11.46 8.24,12.73 15.32,3.29 30.95,3.36 46.6,3.22 -4.52,-1.46 -7.43,-5.9 -7.5,-10.3 z" id="path163" style="fill:url(#Neues_Verlaufsfeld_1-8)" />
    </g>
  </g>
  <g id="g167" style="isolation:isolate" transform="translate(-251.92,-110.91)">
    <path class="cls-17" d="m 483.34,527.3 c -3.35,3.35 -8.79,3.35 -12.15,0 -3.35,-3.35 -3.35,-8.79 0,-12.15 0.11,1.17 0.59,4.73 3.48,7.88 3.36,3.65 7.63,4.17 8.67,4.27 z" id="path164" />
    <path class="cls-17" d="m 483.34,527.3 c -4.68,0.75 -9.09,-2.43 -9.84,-7.12 -0.75,-4.68 2.43,-9.09 7.12,-9.84 -0.6,1.01 -2.3,4.18 -1.8,8.42 0.58,4.93 3.73,7.85 4.52,8.54 z" id="path165" />
    <path class="cls-17" d="m 483.34,527.3 c 3.35,3.35 8.79,3.35 12.15,0 3.35,-3.35 3.35,-8.79 0,-12.15 -0.11,1.17 -0.59,4.73 -3.48,7.88 -3.36,3.65 -7.63,4.17 -8.67,4.27 z" id="path166" />
    <path class="cls-17" d="m 483.34,527.3 c 4.68,0.75 9.09,-2.43 9.84,-7.12 0.75,-4.68 -2.43,-9.09 -7.12,-9.84 0.6,1.01 2.3,4.18 1.8,8.42 -0.58,4.93 -3.73,7.85 -4.52,8.54 z" id="path167" />
  </g>
  <line class="cls-30" x1="231.49001" y1="379.17999" x2="231.49001" y2="416.36002" id="line167" style="isolation:isolate" />
  <g id="g172" style="isolation:isolate" transform="translate(-251.92,-110.91)">
    <path class="cls-18" d="m 487.7,481.13 c 0,4.67 -4.29,8.46 -4.29,8.46 0,0 -4.29,-3.79 -4.29,-8.46 0,-4.67 4.29,-8.46 4.29,-8.46 0,0 4.29,3.79 4.29,8.46 z" id="path168" />
    <path class="cls-18" d="m 476.69,482.9 c 4.45,1.44 6.72,6.69 6.72,6.69 0,0 -4.93,2.91 -9.37,1.46 -4.45,-1.44 -6.72,-6.69 -6.72,-6.69 0,0 4.93,-2.91 9.37,-1.46 z" id="path169" />
    <path class="cls-18" d="m 474.97,493.92 c 2.75,-3.78 8.44,-4.33 8.44,-4.33 0,0 1.24,5.58 -1.51,9.37 -2.75,3.79 -8.44,4.33 -8.44,4.33 0,0 -1.24,-5.58 1.51,-9.37 z" id="path170" />
    <path class="cls-18" d="m 484.92,498.96 c -2.75,-3.78 -1.51,-9.37 -1.51,-9.37 0,0 5.69,0.55 8.44,4.33 2.75,3.78 1.51,9.37 1.51,9.37 0,0 -5.69,-0.55 -8.44,-4.33 z" id="path171" />
    <path class="cls-18" d="m 492.78,491.05 c -4.45,1.44 -9.37,-1.46 -9.37,-1.46 0,0 2.28,-5.25 6.72,-6.69 4.45,-1.44 9.37,1.46 9.37,1.46 0,0 -2.28,5.25 -6.72,6.69 z" id="path172" />
  </g>
  <circle class="cls-12" cx="231.53001" cy="379.10001" r="2.9300001" id="circle172" style="isolation:isolate" />
  <polygon class="cls-24" points="468.47,369.35 471.87,363.57 467.42,358.55 473.97,360 477.37,354.22 478.01,360.9 484.56,362.35 478.41,365.02 479.06,371.7 474.61,366.68 " id="polygon172" style="isolation:isolate" transform="translate(-251.92,-110.91)" />
</svg>
