<?xml version="1.0" encoding="UTF-8"?><svg id="Ebene_1" xmlns="http://www.w3.org/2000/svg" width="134.5" height="58" viewBox="0 0 134.5 58"><defs><style>.cls-1{fill:#fff;stroke:#89b3c3;stroke-linecap:round;stroke-linejoin:round;stroke-width:3px;}.cls-2{fill:#89b3c3;}.cls-2,.cls-3{stroke-width:0px;}.cls-3{fill:#eaf2f5;}</style></defs><g id="Rechteck_353"><path class="cls-3" d="m29,0h76.5c16.02,0,29,12.98,29,29h0c0,16.02-12.98,29-29,29H29C12.98,58,0,45.02,0,29h0C0,12.98,12.98,0,29,0Z"/></g><circle class="cls-1" cx="67.25" cy="28.96" r="20.12"/><path class="cls-2" d="m76.87,27.62c1.04.6,1.04,2.09,0,2.69l-6.93,4-6.93,4c-1.04.6-2.33-.15-2.33-1.34v-8s0-8,0-8c0-1.2,1.29-1.94,2.33-1.34l6.93,4,6.93,4Z"/></svg>