<?xml version="1.0" encoding="UTF-8"?><svg id="Ebene_1" xmlns="http://www.w3.org/2000/svg" width="45.29" height="59.96" viewBox="0 0 45.29 59.96"><defs><style>.cls-1{fill:none;stroke:#fff;}.cls-1,.cls-2{stroke-linecap:round;stroke-linejoin:round;}.cls-2{fill:#fff;stroke:#5883a5;stroke-width:2px;}.cls-3{fill:#5883a5;stroke-width:0px;}</style></defs><circle class="cls-2" cx="22.64" cy="22.64" r="21.64"/><path class="cls-3" d="m22.64,38.76c-5.85,0-10.6,4.75-10.6,10.6s4.75,10.6,10.6,10.6,10.6-4.75,10.6-10.6-4.75-10.6-10.6-10.6Z"/><g id="Gruppe_787"><g id="Gruppe_786"><path id="Pfad_2339" class="cls-1" d="m22.28,47.26l-3.42-1.3,1.33-3.45"/><path id="Pfad_2338" class="cls-1" d="m17.49,52.43c1.27,2.82,4.59,4.08,7.41,2.81,2.82-1.27,4.08-4.59,2.81-7.41-.91-2.01-2.91-3.3-5.12-3.3-1.38,0-2.71.5-3.74,1.42"/></g></g><g id="Gruppe_252"><path id="Pfad_107" class="cls-3" d="m9.66,21.11c-.14,1.27.56,2.49,1.74,3.01-.06.14-.09.29-.09.43,0,.72.58,1.3,1.29,1.3,0,0,0,0,0,0h.08l-.64,1.22c-.26.49-.23,1.08.08,1.53.28.43.76.69,1.28.69h.12l.52-.03c.95-.08,1.7-.84,1.77-1.79l.09-1.62h9.52l.09,1.62c.05.96.81,1.73,1.76,1.79l.52.03h.12c.52,0,1-.26,1.27-.69.31-.45.35-1.04.09-1.53l-.64-1.24c.67-.05,1.18-.61,1.19-1.27,1-.13,1.95-.5,2.78-1.07.91-.74,1.52-1.79,1.71-2.95h.9c.24,0,.43-.2.43-.43.06-1.74-1.3-3.2-3.04-3.26-.07,0-.14,0-.21,0-1.67-.11-3.12,1.15-3.23,2.82,0,.09,0,.19,0,.28,0,.38-.06.81-.93,1.04-1.38-2.97-4.33-4.9-7.61-4.98-3.65.08-6.85,2.46-7.98,5.93-.83-.19-1.62-.54-2.31-1.04-.11-.09-.27-.11-.4-.06-.13.05-.22.16-.26.29Z"/></g></svg>