<?xml version="1.0" encoding="UTF-8"?><svg id="Ebene_1" xmlns="http://www.w3.org/2000/svg" viewBox="0 0 16.05 18.01"><defs><style>.cls-1{fill:#89b3c3;stroke-width:0px;}</style></defs><g id="Gruppe_599"><g id="Gruppe_598"><path id="Pfad_915" class="cls-1" d="m15.3,0c-.41,0-.75.34-.75.75v12.06H3.09l3.29-2.35c.34-.24.42-.71.18-1.05-.24-.34-.71-.42-1.05-.18L.32,12.95c-.34.24-.42.71-.18,1.05.05.07.11.13.18.18l5.2,3.71c.34.24.8.16,1.04-.18.24-.34.16-.81-.18-1.05l-3.29-2.34h12.21c.41,0,.75-.34.75-.75V.75c0-.41-.34-.75-.75-.75"/></g></g></svg>