<?xml version="1.0" encoding="UTF-8"?><svg id="Ebene_1" xmlns="http://www.w3.org/2000/svg" width="55.15" height="70.11" viewBox="0 0 55.15 70.11"><defs><style>.cls-1{fill:#88b2c2;}.cls-1,.cls-2{stroke-width:0px;}.cls-2{fill:#fff;}</style></defs><path class="cls-2" d="M21.98,29.93c0,1.2-.98,2.18-2.18,2.18s-2.18-.98-2.18-2.18c0-.57.23-1.09.59-1.48-.96.46-1.98,1.17-2.68,1.69,1.28,1.2,3.22,2.69,4.27,2.69,1.16,0,3.14-1.27,4.27-2.1-.7-.67-1.6-1.43-2.44-1.99.22.34.35.74.35,1.18Z"/><path class="cls-2" d="M37.53,29.93c0,1.2-.98,2.18-2.18,2.18s-2.18-.98-2.18-2.18c0-.43.13-.84.35-1.18-.84.55-1.74,1.31-2.44,1.99,1.13.83,3.11,2.1,4.27,2.1,1.05,0,2.99-1.5,4.27-2.69-.7-.53-1.73-1.23-2.68-1.69.36.39.59.91.59,1.48Z"/><path class="cls-2" d="M52.41,25.33c-.11-.07-.23-.12-.37-.15-.32-.07-.68.04-.98.27l-.51,1.21c-.21.48-.72.76-1.23.67-.52-.09-.9-.52-.93-1.04-.09-1.59-.29-3.12-.58-4.6-5.89.92-12.81,1.59-20.58,1.57-3.07,0-6.01-.13-8.81-.32l-.72-9.51-5.22,8.96c-1.79-.21-3.49-.44-5.13-.7-.29,1.48-.49,3.02-.58,4.61-.03.52-.42.95-.93,1.04-.51.09-1.02-.19-1.23-.67l-.51-1.21c-.3-.24-.67-.34-.98-.27-.09.02-.23.06-.37.15-.11.07-.23.16-.31.3-.11.17-.17.36-.18.56l.36,3.4.44,4.17.04.39s0,.08,0,.12c0,.33.15.62.38.83.19.18.43.31.71.33.05,0,.15,0,.27-.03.05-.01.1-.02.17-.04l.65-.23,1.77-.63c.12-.04.25-.06.38-.06.18,0,.37.04.53.13.28.15.48.41.56.72,1.8,7.11,5.51,12.32,10.45,15.07.43.24.86.46,1.31.66.55.25,1.11.46,1.69.65.75.24,1.51.46,2.3.6v-.77s0-.88,0-.88v-.88s0-5.52,0-5.52h-1.51c-.55,0-1-.45-1-1s.45-1,1-1h1.51v-1.71c0-1.83,1.49-3.32,3.32-3.32s3.32,1.49,3.32,3.32v1.71h1.51c.55,0,1,.45,1,1s-.45,1-1,1h-1.51v5.28h6.21c.14,0,.27.02.41.04,4.28-2.9,7.5-7.79,9.13-14.26.08-.31.28-.57.56-.72s.61-.17.91-.07l2.06.73.36.13c.23.08.37.09.44.08.02,0,.04-.01.06-.02.59-.09,1.04-.57,1.04-1.15,0-.04,0-.08,0-.12l.42-3.98.42-3.98c0-.2-.07-.39-.18-.56-.08-.12-.18-.22-.31-.29ZM25.41,31.29c-.36.29-3.54,2.79-5.61,2.79s-5.3-3.19-5.66-3.56c-.12-.12-.19-.29-.18-.47,0-.17.09-.34.22-.45.36-.29,3.54-2.89,5.62-2.89s5.31,3.27,5.67,3.65c.12.13.18.3.17.47-.01.17-.1.34-.23.45ZM41.01,30.53c-.36.36-3.55,3.56-5.66,3.56s-5.25-2.51-5.61-2.79c-.14-.11-.22-.27-.23-.45-.01-.17.05-.35.17-.47.36-.37,3.55-3.65,5.67-3.65s5.26,2.59,5.62,2.89c.13.11.22.27.22.45,0,.17-.06.35-.18.47Z"/><path class="cls-2" d="M42.78,53.12c-.59-.59-1.49-.68-2.18-.29-.07.04-.13.08-.2.13-.05,1.01-.53,1.9-1.29,2.48.04.04.07.08.11.12.04.04.07.08.11.12.11.12.22.24.31.37.03.05.06.1.09.15.08.13.16.27.22.41.03.08.06.17.08.25.04.13.09.25.12.38.04.2.06.41.07.63,0,.02,0,.04,0,.06,0,0,0,0,0,0,0,0,0,0,0,0,0,.12-.02.24-.04.36l2.59-2.61c.34-.34.53-.8.53-1.29,0-.46-.18-.9-.5-1.23-.01-.02-.02-.03-.04-.05Z"/><path class="cls-2" d="M38.85,52.35c-.07-.28-.21-.53-.39-.74-.03-.04-.07-.08-.1-.12-.27-.26-.63-.44-1.02-.49-.08-.01-.16-.02-.24-.02h-6.96c-.31,0-.57-.19-.69-.45-.04-.09-.06-.19-.06-.3v-9.74c0-1-.82-1.82-1.82-1.82s-1.82.82-1.82,1.82v12.5s0,.08,0,.11v.47s0,1.13,0,1.13v.69s-1.41,11.74-1.41,11.74c-.06.42,0,.72.19.94.29.33.91.53,1.71.53h6.39c.96,0,1.76-.69,1.9-1.64l.15-.56h-3.04c-.41,0-.75-.34-.75-.75s.34-.75.75-.75c0,0,0,0,0,0h5.27c1,0,1.82-.82,1.82-1.82,0,0,0,0,0,0,0-.12-.01-.24-.04-.36,0-.03-.02-.05-.02-.08-.02-.09-.05-.17-.08-.25-.02-.04-.04-.07-.05-.11-.02-.04-.04-.08-.06-.12-.01-.02-.02-.05-.04-.07-.03-.04-.06-.09-.1-.13-.03-.04-.07-.09-.11-.13-.05-.05-.1-.1-.15-.14-.03-.02-.06-.05-.09-.07,0,0-.02-.01-.03-.02-.06-.04-.12-.08-.19-.11-.02-.01-.04-.02-.06-.03-.09-.04-.18-.08-.28-.11,0,0-.01,0-.02,0-.07-.02-.13-.04-.2-.05-.04,0-.08,0-.12-.01-.07,0-.13-.02-.2-.02h-5.27s0,0,0,0c-.41,0-.75-.34-.75-.75,0-.06.02-.11.03-.17.06-.27.27-.48.54-.54.06-.02.12-.04.18-.04,0,0,0,0,0,0h5.27c.05,0,.1-.01.16-.02.59-.05,1.09-.38,1.39-.85,0-.02.02-.03.03-.05.04-.08.09-.15.12-.24.02-.04.02-.08.04-.12.02-.07.04-.13.06-.2.02-.1.03-.19.03-.29,0-.02,0-.03,0-.05,0,0,0,0,0,0,0-.75-.46-1.4-1.11-1.67,0,0-.01,0-.02,0-.1-.04-.2-.07-.31-.1-.03,0-.07,0-.1-.01,0,0-.01,0-.02,0-.09-.01-.17-.03-.26-.03h-5.27s0,0,0,0c-.41,0-.75-.34-.75-.75s.34-.75.75-.75h5.27s.03,0,.05,0c0,0,.02,0,.02,0h.11c.25,0,.48-.05.7-.14.44-.19.8-.54.98-.99.09-.21.14-.45.14-.69,0-.1-.01-.2-.03-.3,0-.05-.02-.1-.03-.15Z"/><path class="cls-1" d="M54.61,24.39c-.16-.25-.36-.46-.58-.65C52.48,10.19,41.61,0,27.99,0S2.79,10.37,1.14,23.73c-.23.2-.44.41-.6.67-.35.55-.54,1.18-.54,1.84,0,.04,0,.08,0,.12l.84,7.97c.03,1.73,1.36,3.15,3.1,3.34.11.01.22,0,.33,0l3.26,10.3c.04,1.53.73,2.97,1.9,3.97,1.2,1.02,2.79,1.46,4.35,1.2,1.71-.28,2.96-.54,4.07-.78,0,0,.01,0,.02,0,1.96,1.08,4.09,1.82,6.38,2.18v.79s-1.4,11.63-1.4,11.63c-.16,1.05.21,1.73.54,2.12.59.69,1.58,1.05,2.85,1.05h6.39c1.68,0,3.14-1.25,3.37-2.84l.23-.86h.68c1.83,0,3.32-1.49,3.32-3.32,0,0,0,0,0,0s0,0,0,0c0-.01,0-.02,0-.03,0-.23-.03-.46-.08-.68-.02-.09-.05-.17-.08-.25-.04-.14-.08-.28-.14-.41-.04-.09-.09-.17-.14-.26-.07-.12-.13-.23-.21-.34,0-.01-.02-.03-.03-.04l4.3-4.33c.62-.63.97-1.47.96-2.35,0-.5-.13-.98-.34-1.42.74-.2,1.45-.55,2.05-1.06,1.18-1,1.87-2.44,1.9-3.98l2.87-10.3c1.7-.23,2.97-1.63,3-3.32l.84-7.97s0-.08,0-.12c0-.65-.19-1.29-.54-1.84ZM38.78,53.49c-.18.45-.54.8-.98.99-.22.09-.45.14-.7.14h-.11s-.02,0-.02,0c-.02,0-.03,0-.05,0h-5.27c-.41,0-.75.34-.75.75s.34.75.75.75c0,0,0,0,0,0h5.27c.09,0,.17.01.26.03,0,0,.01,0,.02,0,.03,0,.07,0,.1.01.11.02.21.06.31.1,0,0,.01,0,.02,0,.65.28,1.11.92,1.11,1.67,0,0,0,0,0,0,0,.02,0,.03,0,.05,0,.1-.01.2-.03.29-.01.07-.04.13-.06.2-.01.04-.02.08-.04.12-.03.08-.07.16-.12.24,0,.02-.02.03-.03.05-.29.48-.8.8-1.39.85-.05,0-.1.02-.16.02h-5.27s0,0,0,0c-.06,0-.12.02-.18.04-.27.07-.47.27-.54.54-.01.06-.03.11-.03.17,0,.41.34.75.75.75,0,0,0,0,0,0h5.27c.07,0,.13.01.2.02.04,0,.08,0,.12.01.07.01.14.03.2.05,0,0,.01,0,.02,0,.1.03.19.07.28.11.02,0,.04.02.06.03.06.04.13.07.19.11,0,0,.02.01.03.02.03.02.06.05.09.07.05.04.1.09.15.14.04.04.07.08.11.13.03.04.07.08.1.13.01.02.02.05.04.07.02.04.04.08.06.12.02.04.04.07.05.11.03.08.06.17.08.25,0,.03.02.05.02.08.02.12.04.23.04.36,0,0,0,0,0,0,0,1-.82,1.82-1.82,1.82h-5.27s0,0,0,0c-.41,0-.75.34-.75.75s.34.75.75.75h3.04l-.15.56c-.14.95-.94,1.64-1.9,1.64h-6.39c-.8,0-1.43-.19-1.71-.53-.19-.22-.25-.52-.19-.94l1.41-11.74v-.69s0-1.13,0-1.13v-.47s0-.08,0-.11v-12.5c0-1,.82-1.82,1.82-1.82s1.82.82,1.82,1.82v9.74c0,.11.02.21.06.3.12.27.38.45.69.45h6.96c.08,0,.16.01.24.02.39.05.75.23,1.02.49.04.04.07.08.1.12.18.21.32.46.39.74.01.05.02.1.03.15.02.1.03.2.03.3,0,.24-.05.48-.14.69ZM42.79,55.69l-2.59,2.61c.01-.12.04-.24.04-.36,0,0,0,0,0,0,0,0,0,0,0,0,0-.02,0-.04,0-.06,0-.22-.03-.43-.07-.63-.03-.13-.07-.25-.12-.38-.03-.08-.05-.17-.08-.25-.06-.15-.14-.28-.22-.41-.03-.05-.06-.1-.09-.15-.09-.13-.2-.26-.31-.37-.04-.04-.07-.08-.11-.12-.04-.04-.07-.09-.11-.12.75-.58,1.24-1.47,1.29-2.48.06-.05.13-.09.2-.13.69-.39,1.59-.3,2.18.29.02.01.03.03.04.05.32.34.5.77.5,1.23,0,.49-.18.94-.53,1.29ZM52.48,30.16l-.42,3.98s0,.08,0,.12c0,.58-.44,1.06-1.04,1.15-.02,0-.04.01-.06.02-.07,0-.21,0-.44-.08l-.36-.13-2.06-.73c-.3-.11-.63-.08-.91.07s-.48.41-.56.72c-1.64,6.47-4.85,11.36-9.13,14.26-.13-.02-.27-.04-.41-.04h-6.21v-5.28h1.51c.55,0,1-.45,1-1s-.45-1-1-1h-1.51v-1.71c0-1.83-1.49-3.32-3.32-3.32s-3.32,1.49-3.32,3.32v1.71s-1.51,0-1.51,0c-.55,0-1,.45-1,1s.45,1,1,1h1.51v5.52s0,.88,0,.88v.88s0,.77,0,.77c-.79-.14-1.55-.35-2.3-.6-.58-.19-1.14-.41-1.69-.65-.45-.2-.88-.42-1.31-.66-4.94-2.74-8.65-7.95-10.45-15.07-.08-.31-.28-.57-.56-.72-.17-.09-.35-.13-.53-.13-.13,0-.25.02-.38.06l-1.77.63-.65.23c-.07.02-.11.03-.17.04-.12.03-.22.04-.27.03-.28-.03-.52-.16-.71-.33-.23-.21-.38-.5-.38-.83,0-.04,0-.08,0-.12l-.04-.39-.44-4.17-.36-3.4c0-.2.07-.39.18-.56.09-.14.2-.23.31-.3.14-.08.27-.13.37-.15.32-.07.68.04.98.27l.51,1.21c.2.48.72.76,1.23.67.52-.09.9-.52.93-1.04.09-1.59.29-3.13.58-4.61,1.64.25,3.34.49,5.13.7l5.22-8.96.72,9.51c2.8.19,5.73.31,8.81.32,7.77.02,14.69-.65,20.58-1.57.29,1.48.49,3.02.58,4.6.03.52.42.95.93,1.04.51.09,1.02-.19,1.23-.67l.51-1.21c.3-.24.67-.34.98-.27.14.03.26.08.37.15.12.08.23.17.31.29.11.17.17.36.18.56l-.42,3.98Z"/><path class="cls-1" d="M41.01,30.53c.12-.12.19-.29.18-.47,0-.17-.09-.34-.22-.45-.36-.3-3.54-2.89-5.62-2.89s-5.31,3.27-5.67,3.65c-.12.13-.18.3-.17.47.01.17.1.34.23.45.36.29,3.54,2.79,5.61,2.79s5.3-3.19,5.66-3.56ZM35.35,32.83c-1.16,0-3.14-1.27-4.27-2.1.7-.67,1.6-1.43,2.44-1.99-.22.34-.35.74-.35,1.18,0,1.2.98,2.18,2.18,2.18s2.18-.98,2.18-2.18c0-.57-.23-1.09-.59-1.48.96.46,1.98,1.17,2.68,1.69-1.28,1.2-3.22,2.69-4.27,2.69Z"/><path class="cls-1" d="M19.8,26.72c-2.07,0-5.26,2.59-5.62,2.89-.13.11-.22.28-.22.45,0,.17.06.35.18.47.36.36,3.55,3.56,5.66,3.56s5.25-2.51,5.61-2.79c.14-.11.22-.27.23-.45.01-.17-.05-.35-.17-.47-.36-.37-3.55-3.65-5.67-3.65ZM19.8,32.83c-1.05,0-2.99-1.5-4.27-2.69.7-.53,1.73-1.23,2.68-1.69-.36.39-.59.91-.59,1.48,0,1.2.98,2.18,2.18,2.18s2.18-.98,2.18-2.18c0-.43-.13-.84-.35-1.18.84.55,1.74,1.31,2.44,1.99-1.13.83-3.11,2.1-4.27,2.1Z"/></svg>