<?xml version="1.0" encoding="UTF-8" standalone="no"?>
<svg id="Ebene_1" width="68.72" height="72.7" viewBox="0 0 68.72 72.7" version="1.1" sodipodi:docname="k_app_mund_1.svg" inkscape:version="1.3.2 (091e20e, 2023-11-25)" xmlns:inkscape="http://www.inkscape.org/namespaces/inkscape" xmlns:sodipodi="http://sodipodi.sourceforge.net/DTD/sodipodi-0.dtd" xmlns="http://www.w3.org/2000/svg" xmlns:svg="http://www.w3.org/2000/svg">
  <sodipodi:namedview id="namedview10" pagecolor="#ffffff" bordercolor="#666666" borderopacity="1.0" inkscape:showpageshadow="2" inkscape:pageopacity="0.0" inkscape:pagecheckerboard="0" inkscape:deskcolor="#d1d1d1" inkscape:zoom="8.3945155" inkscape:cx="34.42724" inkscape:cy="36.333246" inkscape:window-width="1440" inkscape:window-height="855" inkscape:window-x="0" inkscape:window-y="23" inkscape:window-maximized="1" inkscape:current-layer="Ebene_1" />
  <defs id="defs1">
    <style id="style1">.cls-1{fill:#d6e6eb;}.cls-1,.cls-2{stroke-width:0px;}.cls-2{fill:#fff;}</style>
  </defs>
  <path class="cls-1" d="M 67.72,0 C 54.283333,0 40.846667,0 27.41,0 c -1.379554,0.150572 -0.920901,1.7222289 -1,2.6772989 0,6.7042337 0,13.4084671 0,20.1127011 0.361028,1.160896 1.400651,1.989064 2.072575,2.996133 2.776009,3.51396 5.501012,7.072642 8.308831,10.558711 1.521301,0.866749 1.783524,-1.073965 1.628594,-2.126683 0,-3.476054 0,-6.952107 0,-10.428161 9.763333,0 19.526667,0 29.29,0 1.379554,-0.150572 0.920901,-1.722229 1,-2.677299 0,-6.704234 0,-13.4084673 0,-20.112701 0.02061,-0.53792292 -0.491572,-1.01908518 -0.99,-1 z m -1,21.79 c -9.763333,0 -19.526667,0 -29.29,0 -1.369278,0.149453 -0.927121,1.726744 -1,2.677299 0,2.7309 0,5.461801 0,8.192701 -2.67,-3.406667 -5.34,-6.813333 -8.01,-10.22 0,-6.813333 0,-13.6266667 0,-20.44 12.766667,0 25.533333,0 38.3,0 0,6.5966667 0,13.193333 0,19.79 z" id="path3" style="display:inline" />
  <circle class="cls-1" cx="39.23" cy="12.36" r="2.1900001" id="circle3" style="display:inline" />
  <path class="cls-1" d="m 47.57,14.55 c 1.21,0 2.19,-0.98 2.19,-2.19 0,-1.21 -0.98,-2.19 -2.19,-2.19 -1.21,0 -2.19,0.98 -2.19,2.19 0,1.21 0.98,2.19 2.19,2.19 z" id="path4" style="display:inline" />
  <circle class="cls-1" cx="55.900002" cy="12.36" r="2.1900001" id="circle4" style="display:inline" />
  <path class="cls-1" d="m 33.74,55.27 c -4.159317,0.0026 -8.318785,-0.0053 -12.478008,0.004 -1.445807,0.03901 -2.578332,1.585738 -2.171992,2.97604 0.757521,3.10083 3.360472,5.640549 6.472802,6.338486 3.02666,0.739721 6.400922,-0.298377 8.477024,-2.624426 1.03549,-1.153558 1.81307,-2.583752 2.066751,-4.120972 C 36.251306,56.50774 35.073503,55.230182 33.73,55.27 Z m -6.17,7.55 c -2.800313,0.04131 -5.486562,-1.863935 -6.373499,-4.520325 -0.378094,-0.516471 -0.09,-1.19108 0.556018,-1.029675 3.995827,0 7.991654,0 11.987481,0 0.851805,0.348069 -0.05868,1.472389 -0.254683,2.058186 C 32.336707,61.458848 29.990597,62.843055 27.57,62.82 Z" id="path6" style="display:inline" />
  <path class="cls-1" d="m 34.58,45.07 c -1.155611,-0.01536 -2.271636,0.711804 -2.735479,1.768336 -0.42039,0.906507 -0.33203,2.019791 0.224697,2.849316 0.08689,0.113642 0.146403,0.300788 0.32002,0.252348 1.510254,0 3.020508,0 4.530762,0 0.656866,-0.794543 0.853904,-1.937434 0.487192,-2.902761 -0.393461,-1.10699 -1.488132,-1.918133 -2.663415,-1.963344 -0.05455,-0.0028 -0.109163,-0.004 -0.163777,-0.0039 z" id="path7" style="display:inline" />
  <path class="cls-1" d="m 23.57,48.08 c 0.01536,-1.155611 -0.711804,-2.271636 -1.768336,-2.735479 -1.025311,-0.476411 -2.311054,-0.29555 -3.164766,0.445885 -0.881592,0.727959 -1.282082,1.987392 -0.954436,3.086602 0.111971,0.390168 0.306338,0.754827 0.557538,1.072992 1.556667,0 3.113333,0 4.67,0 0.424446,-0.5245 0.672365,-1.193605 0.67,-1.87 z" id="path8" style="display:inline" />
  <path class="cls-1" d="M 54.61,42.31 C 54.43,42.03 54.2,41.8 53.95,41.59 53.1,34.33 49.57,28.05 44.38,23.79 h -5.95 v 11.77 c 0,0.43 -0.27,0.81 -0.67,0.95 -0.11,0.04 -0.22,0.05 -0.33,0.05 -0.3,0 -0.59,-0.14 -0.79,-0.38 L 26.42,23.14 c 0,0 0,0 0,0 V 18 c -0.12,0 -0.24,0 -0.35,0.02 -0.28,0.02 -0.56,0.04 -0.84,0.06 C 12.65,19.34 2.6,29.22 1.07,41.71 0.87,41.89 0.69,42.09 0.54,42.32 0.19,42.87 0,43.5 0,44.16 c 0,0.04 0,0.08 0,0.12 l 0.84,7.97 c 0.03,1.73 1.36,3.16 3.11,3.34 0.08,0 0.17,0 0.25,0 l 3.27,10.33 c 0.04,1.53 0.73,2.97 1.9,3.97 1.21,1.02 2.79,1.46 4.34,1.2 1.71,-0.28 2.96,-0.55 4.07,-0.78 0.04,0 0.07,-0.02 0.11,-0.02 2.88,1.58 6.13,2.43 9.67,2.43 3.54,0 6.94,-0.89 9.87,-2.54 0.2,0.04 0.4,0.08 0.61,0.13 1.11,0.23 2.36,0.49 4.07,0.78 0.29,0.05 0.59,0.07 0.88,0.07 1.26,0 2.49,-0.44 3.46,-1.27 1.18,-1 1.87,-2.45 1.9,-3.99 l 2.88,-10.31 c 1.73,-0.2 3.03,-1.62 3.06,-3.33 l 0.84,-7.97 c 0,0 0,-0.08 0,-0.12 0,-0.66 -0.19,-1.29 -0.54,-1.84 z m -2.1,5.43 -0.45,4.31 c 0,0 0,0.08 0,0.12 0,0.6 -0.47,1.1 -1.09,1.17 0,0 0,0 -0.01,0 -0.08,0 -0.22,0 -0.43,-0.08 l -0.41,-0.15 -2,-0.71 c -0.3,-0.11 -0.63,-0.08 -0.91,0.07 -0.28,0.15 -0.48,0.41 -0.56,0.72 -1.78,7.04 -5.43,12.22 -10.3,14.98 -0.43,0.24 -0.87,0.47 -1.31,0.68 -0.56,0.26 -1.14,0.49 -1.73,0.68 -1.79,0.6 -3.7,0.92 -5.72,0.92 -2.02,0 -3.81,-0.31 -5.56,-0.87 C 21.45,69.39 20.88,69.17 20.32,68.92 19.87,68.72 19.43,68.5 19,68.26 14.05,65.52 10.33,60.3 8.53,53.18 8.45,52.87 8.25,52.61 7.97,52.46 7.8,52.37 7.62,52.33 7.44,52.33 c -0.13,0 -0.25,0.02 -0.38,0.06 L 5.22,53.04 4.64,53.25 C 4.56,53.28 4.48,53.3 4.4,53.32 4.32,53.33 4.25,53.34 4.2,53.33 3.85,53.29 3.57,53.11 3.37,52.87 3.21,52.67 3.11,52.43 3.11,52.17 c 0,-0.04 0,-0.08 0,-0.12 v -0.03 c 0,0 -0.44,-4.17 -0.44,-4.17 l -0.4,-3.76 c 0,-0.2 0.07,-0.39 0.18,-0.56 0.07,-0.11 0.16,-0.19 0.25,-0.25 0.16,-0.11 0.32,-0.17 0.43,-0.19 0.32,-0.07 0.68,0.04 0.98,0.27 l 0.51,1.21 c 0.2,0.48 0.71,0.76 1.23,0.67 0.52,-0.09 0.9,-0.52 0.93,-1.04 0.09,-1.6 0.29,-3.14 0.59,-4.63 1.74,0.27 3.56,0.53 5.47,0.75 l 5.22,-8.96 0.72,9.51 c 2.8,0.19 5.73,0.31 8.81,0.32 7.62,0.02 14.43,-0.62 20.25,-1.51 0.28,1.45 0.48,2.96 0.57,4.52 0.03,0.52 0.42,0.95 0.93,1.04 0.51,0.09 1.02,-0.19 1.23,-0.67 l 0.51,-1.21 c 0.3,-0.24 0.66,-0.34 0.98,-0.27 0.11,0.02 0.21,0.07 0.3,0.12 0.15,0.08 0.29,0.18 0.38,0.32 q 0,0 0,0 c 0.11,0.17 0.17,0.36 0.18,0.56 l -0.38,3.64 z" id="path9" style="display:inline" />
</svg>
