<?xml version="1.0" encoding="UTF-8"?><svg id="Ebene_1" xmlns="http://www.w3.org/2000/svg" width="59.71" height="59.71" viewBox="0 0 59.71 59.71"><defs><style>.cls-1{fill:#fff;}.cls-1,.cls-2{opacity:.5;}.cls-1,.cls-3{stroke-width:0px;}.cls-3{fill:#adccd8;}</style></defs><circle class="cls-1" cx="29.61" cy="29.86" r="9.63"/><g class="cls-2"><path class="cls-3" d="m29.61,24.04c-1.08,0-2.09.3-2.95.81.82.29,1.42,1.06,1.42,1.99,0,1.17-.95,2.11-2.11,2.11-.78,0-1.45-.43-1.82-1.06-.22.61-.35,1.27-.35,1.96,0,3.21,2.6,5.81,5.81,5.81s5.81-2.6,5.81-5.81-2.6-5.81-5.81-5.81Z"/><path class="cls-3" d="m29.86,18.89c-11.81,0-22.39,8.44-22.39,10.97s10.59,10.97,22.39,10.97,22.39-8.82,22.39-10.97-10.06-10.97-22.39-10.97Zm-20.67,10.97c.53-1.27,6.27-6.4,14.23-8.43-2.59,1.91-4.28,4.97-4.28,8.43s1.69,6.52,4.28,8.43c-7.96-2.03-13.7-7.15-14.23-8.43Zm20.43,8.78c-4.84,0-8.78-3.94-8.78-8.78s3.94-8.78,8.78-8.78,8.78,3.94,8.78,8.78-3.94,8.78-8.78,8.78Zm5.98-.19c2.71-1.9,4.5-5.04,4.5-8.59s-1.78-6.7-4.5-8.59c8.23,1.9,14.33,7.26,14.94,8.59-.61,1.33-6.71,6.69-14.94,8.59Z"/><path class="cls-3" d="m29.86,0C13.39,0,0,13.39,0,29.86s13.39,29.86,29.86,29.86,29.86-13.39,29.86-29.86S46.32,0,29.86,0Zm0,56.95c-14.94,0-27.09-12.15-27.09-27.09S14.92,2.76,29.86,2.76s27.09,12.15,27.09,27.09-12.15,27.09-27.09,27.09Z"/></g></svg>