<?xml version="1.0" encoding="UTF-8" standalone="no"?>
<svg id="Ebene_1" data-name="Ebene 1" width="42.23" height="42.23" viewBox="0 0 42.23 42.23" version="1.1" sodipodi:docname="k_app_icon_blitz_1.svg" inkscape:version="1.3.2 (091e20e, 2023-11-25)" xmlns:inkscape="http://www.inkscape.org/namespaces/inkscape" xmlns:sodipodi="http://sodipodi.sourceforge.net/DTD/sodipodi-0.dtd" xmlns="http://www.w3.org/2000/svg" xmlns:svg="http://www.w3.org/2000/svg">
  <sodipodi:namedview id="namedview2" pagecolor="#ffffff" bordercolor="#666666" borderopacity="1.0" inkscape:showpageshadow="2" inkscape:pageopacity="0.0" inkscape:pagecheckerboard="0" inkscape:deskcolor="#d1d1d1" inkscape:zoom="14.451368" inkscape:cx="21.07067" inkscape:cy="21.105269" inkscape:window-width="1440" inkscape:window-height="855" inkscape:window-x="0" inkscape:window-y="23" inkscape:window-maximized="1" inkscape:current-layer="Ebene_1" />
  <defs id="defs1">
    <style id="style1">
      .cls-1 {
        fill: #89b3c3;
      }

      .cls-1, .cls-2 {
        stroke-width: 0px;
      }

      .cls-2 {
        fill: #fff;
      }
    </style>
  </defs>
  <circle id="Ellipse_298" data-name="Ellipse 298" class="cls-2" cx="21.120001" cy="21.120001" r="20.120001" />
  <path class="cls-1" d="M 21.12,42.23 C 9.47,42.23 0,32.76 0,21.12 0,9.48 9.47,0 21.12,0 c 11.65,0 21.12,9.47 21.12,21.12 0,11.65 -9.47,21.12 -21.12,21.12 z M 21.12,2 C 10.58,2 2,10.58 2,21.12 2,31.66 10.58,40.24 21.12,40.24 31.66,40.24 40.24,31.66 40.24,21.12 40.24,10.58 31.66,2 21.12,2 Z" id="path1" />
  <path class="cls-1" d="M 25.18,6.16 C 24.682925,6.4398528 24.471782,7.0705126 24.103541,7.5066585 20.332361,12.987772 16.56118,18.468886 12.79,23.95 c -0.200056,0.815064 0.843334,0.531215 1.32886,0.58 1.857047,0 3.714093,0 5.57114,0 -1.11,3.69 -2.22,7.38 -3.33,11.07 0.06544,0.936933 0.914513,0.185345 1.091742,-0.298761 C 21.447828,29.574159 25.443914,23.84708 29.44,18.12 c 0.206126,-0.815487 -0.843662,-0.530897 -1.32886,-0.58 -1.927047,0 -3.854093,0 -5.78114,0 1.083333,-3.63 2.166667,-7.26 3.25,-10.89 0.08168,-0.2484881 -0.166154,-0.5108085 -0.4,-0.49 z" id="path2" />
</svg>
