<?xml version="1.0" encoding="UTF-8"?><svg id="Ebene_1" xmlns="http://www.w3.org/2000/svg" width="68.72" height="72.7" viewBox="0 0 68.72 72.7"><defs><style>.cls-1{fill:#d6e6eb;}.cls-1,.cls-2{stroke-width:0px;}.cls-2{fill:#fff;}</style></defs><path class="cls-2" d="M21.11,57.41c-.04.06-.11.17-.07.33.77,2.99,3.45,5.07,6.54,5.07s5.77-2.08,6.54-5.07c.04-.16-.03-.28-.07-.33-.04-.05-.14-.15-.3-.15h-12.34c-.16,0-.26.09-.3.15Z"/><path class="cls-2" d="M52.72,43.54c-.09-.14-.23-.24-.38-.32-.09-.05-.19-.1-.3-.12-.32-.07-.68.04-.98.27l-.51,1.21c-.2.48-.72.76-1.23.67-.52-.09-.9-.52-.93-1.04-.09-1.56-.29-3.07-.57-4.52-5.82.89-12.63,1.53-20.25,1.51-3.07,0-6.01-.13-8.81-.32l-.72-9.51-5.22,8.96c-1.91-.22-3.74-.47-5.47-.75-.29,1.49-.5,3.03-.59,4.63-.03.52-.42.95-.93,1.04-.52.09-1.02-.19-1.23-.67l-.51-1.21c-.3-.24-.66-.34-.98-.27-.11.02-.28.08-.43.19-.09.06-.18.14-.25.25-.11.17-.17.36-.18.56l.4,3.76.44,4.17v.03s0,.08,0,.12c0,.27.1.5.26.7.2.25.48.43.83.46.06,0,.13,0,.2-.01.07-.01.15-.03.24-.07l.58-.21,1.84-.65c.12-.04.25-.06.38-.06.18,0,.37.04.53.13.28.15.48.41.56.72,1.8,7.12,5.52,12.34,10.47,15.08.43.24.87.46,1.32.66.56.25,1.13.47,1.71.66,1.75.56,3.6.87,5.56.87s3.92-.33,5.72-.92c.59-.2,1.17-.42,1.73-.68.45-.21.88-.43,1.31-.68,4.86-2.77,8.52-7.94,10.3-14.98.08-.31.28-.57.56-.72.28-.15.61-.17.91-.07l2,.71.41.15c.22.08.35.09.43.08,0,0,0,0,.01,0,.62-.06,1.09-.57,1.09-1.17,0-.04,0-.08,0-.12l.45-4.31.38-3.64c0-.2-.07-.39-.18-.56t0,0ZM18.23,49.95c-.41-.51-.67-1.16-.67-1.87,0-1.66,1.35-3,3-3s3,1.35,3,3c0,.71-.26,1.35-.67,1.87h-4.67ZM33.74,55.27c.74,0,1.42.34,1.88.92.46.59.61,1.34.43,2.06-.99,3.87-4.48,6.57-8.47,6.57s-7.48-2.7-8.48-6.57c-.18-.72-.03-1.47.43-2.06.45-.58,1.14-.92,1.88-.92h12.34ZM36.92,49.95h-4.67c-.41-.51-.67-1.16-.67-1.87,0-1.66,1.35-3,3-3s3,1.35,3,3c0,.71-.26,1.35-.67,1.87Z"/><path class="cls-1" d="M67.72,0H27.41c-.55,0-1,.45-1,1v16.99h0v4.8c0,.22.08.44.21.62l10.01,12.77c.19.25.49.38.79.38.11,0,.22-.02.33-.05.4-.14.67-.52.67-.95v-11.77h29.29c.55,0,1-.45,1-1V1c0-.55-.45-1-1-1ZM66.72,21.79h-29.29c-.46,0-.83.31-.95.73-.03.09-.05.17-.05.27v9.87l-8.01-10.22V2h38.3v19.79Z"/><circle class="cls-1" cx="39.23" cy="12.36" r="2.19"/><path class="cls-1" d="M47.57,14.55c1.21,0,2.19-.98,2.19-2.19s-.98-2.19-2.19-2.19-2.19.98-2.19,2.19.98,2.19,2.19,2.19Z"/><circle class="cls-1" cx="55.9" cy="12.36" r="2.19"/><path class="cls-1" d="M26.41,17.99c-.12,0-.23.02-.35.03.12,0,.24-.01.35-.02h0Z"/><path class="cls-1" d="M33.74,55.27h-12.34c-.74,0-1.42.34-1.88.92-.46.59-.61,1.34-.43,2.06.99,3.87,4.48,6.57,8.48,6.57s7.48-2.7,8.47-6.57c.18-.72.03-1.47-.43-2.06-.45-.58-1.14-.92-1.88-.92ZM27.57,62.82c-3.08,0-5.77-2.08-6.54-5.07-.04-.16.03-.28.07-.33.04-.05.14-.15.3-.15h12.34c.16,0,.26.09.3.15.04.06.11.17.07.33-.77,2.99-3.45,5.07-6.54,5.07Z"/><path class="cls-1" d="M34.58,45.07c-1.66,0-3,1.35-3,3,0,.71.26,1.35.67,1.87h4.67c.41-.51.67-1.16.67-1.87,0-1.66-1.35-3-3-3Z"/><path class="cls-1" d="M23.57,48.08c0-1.66-1.35-3-3-3s-3,1.35-3,3c0,.71.26,1.35.67,1.87h4.67c.41-.51.67-1.16.67-1.87Z"/><path class="cls-1" d="M54.61,42.31c-.18-.28-.41-.51-.66-.72-.85-7.26-4.38-13.54-9.57-17.8h-5.95v11.77c0,.43-.27.81-.67.95-.11.04-.22.05-.33.05-.3,0-.59-.14-.79-.38l-10.22-13.04s0,0,0,0v-5.14c-.12,0-.24,0-.35.02-.28.02-.56.04-.84.06C12.65,19.34,2.6,29.22,1.07,41.71c-.2.18-.38.38-.53.61-.35.55-.54,1.18-.54,1.84,0,.04,0,.08,0,.12l.84,7.97c.03,1.73,1.36,3.16,3.11,3.34.08,0,.17,0,.25,0l3.27,10.33c.04,1.53.73,2.97,1.9,3.97,1.21,1.02,2.79,1.46,4.34,1.2,1.71-.28,2.96-.55,4.07-.78.04,0,.07-.02.11-.02,2.88,1.58,6.13,2.43,9.67,2.43s6.94-.89,9.87-2.54c.2.04.4.08.61.13,1.11.23,2.36.49,4.07.78.29.05.59.07.88.07,1.26,0,2.49-.44,3.46-1.27,1.18-1,1.87-2.45,1.9-3.99l2.88-10.31c1.73-.2,3.03-1.62,3.06-3.33l.84-7.97s0-.08,0-.12c0-.66-.19-1.29-.54-1.84ZM52.51,47.74l-.45,4.31s0,.08,0,.12c0,.6-.47,1.1-1.09,1.17,0,0,0,0-.01,0-.08,0-.22,0-.43-.08l-.41-.15-2-.71c-.3-.11-.63-.08-.91.07-.28.15-.48.41-.56.72-1.78,7.04-5.43,12.22-10.3,14.98-.43.24-.87.47-1.31.68-.56.26-1.14.49-1.73.68-1.79.6-3.7.92-5.72.92s-3.81-.31-5.56-.87c-.58-.19-1.15-.41-1.71-.66-.45-.2-.89-.42-1.32-.66-4.95-2.74-8.67-7.96-10.47-15.08-.08-.31-.28-.57-.56-.72-.17-.09-.35-.13-.53-.13-.13,0-.25.02-.38.06l-1.84.65-.58.21c-.08.03-.16.05-.24.07-.08.01-.15.02-.2.01-.35-.04-.63-.22-.83-.46-.16-.2-.26-.44-.26-.7,0-.04,0-.08,0-.12v-.03s-.44-4.17-.44-4.17l-.4-3.76c0-.2.07-.39.18-.56.07-.11.16-.19.25-.25.16-.11.32-.17.43-.19.32-.07.68.04.98.27l.51,1.21c.2.48.71.76,1.23.67.52-.09.9-.52.93-1.04.09-1.6.29-3.14.59-4.63,1.74.27,3.56.53,5.47.75l5.22-8.96.72,9.51c2.8.19,5.73.31,8.81.32,7.62.02,14.43-.62,20.25-1.51.28,1.45.48,2.96.57,4.52.03.52.42.95.93,1.04.51.09,1.02-.19,1.23-.67l.51-1.21c.3-.24.66-.34.98-.27.11.02.21.07.3.12.15.08.29.18.38.32t0,0c.11.17.17.36.18.56l-.38,3.64Z"/><path class="cls-2" d="M28.41,17.96v4.49l8.01,10.22v-9.87c0-.1.03-.18.05-.27.12-.42.49-.73.95-.73h29.29V2H28.41v15.96ZM55.9,10.16c1.21,0,2.19.98,2.19,2.19s-.98,2.19-2.19,2.19-2.19-.98-2.19-2.19.98-2.19,2.19-2.19ZM47.57,10.16c1.21,0,2.19.98,2.19,2.19s-.98,2.19-2.19,2.19-2.19-.98-2.19-2.19.98-2.19,2.19-2.19ZM39.23,10.16c1.21,0,2.19.98,2.19,2.19s-.98,2.19-2.19,2.19-2.19-.98-2.19-2.19.98-2.19,2.19-2.19Z"/></svg>