<?xml version="1.0" encoding="UTF-8"?>
<svg id="Ebene_1" data-name="Ebene 1" xmlns="http://www.w3.org/2000/svg" width="42.23" height="42.23" viewBox="0 0 42.23 42.23">
  <defs>
    <style>
      .cls-1 {
        fill: #89b3c3;
      }

      .cls-1, .cls-2, .cls-3 {
        stroke-width: 0px;
      }

      .cls-2 {
        fill: #fff;
      }

      .cls-3 {
        fill: #87b1c1;
      }
    </style>
  </defs>
  <g id="Gruppe_1643" data-name="Gruppe 1643">
    <g id="Gruppe_1642" data-name="Gruppe 1642">
      <g id="Gruppe_1627" data-name="Gruppe 1627">
        <g id="Gruppe_1626" data-name="Gruppe 1626">
          <g>
            <circle id="Ellipse_298" data-name="Ellipse 298" class="cls-2" cx="21.12" cy="21.12" r="20.12"/>
            <path class="cls-3" d="M21.12,42.23C9.47,42.23,0,32.76,0,21.12S9.47,0,21.12,0s21.12,9.47,21.12,21.12-9.47,21.12-21.12,21.12ZM21.12,2C10.58,2,2,10.58,2,21.12s8.58,19.12,19.12,19.12,19.12-8.58,19.12-19.12S31.66,2,21.12,2Z"/>
          </g>
        </g>
      </g>
    </g>
  </g>
  <g id="Gruppe_450" data-name="Gruppe 450">
    <g id="Gruppe_252" data-name="Gruppe 252">
      <path id="Pfad_107" data-name="Pfad 107" class="cls-1" d="M5.84,19.31c-.16,1.5.66,2.93,2.04,3.54-.07.16-.1.34-.1.51,0,.84.68,1.53,1.52,1.53,0,0,0,0,0,0h.1l-.75,1.43c-.31.57-.27,1.27.1,1.8.33.51.89.82,1.5.82h.14l.61-.03c1.12-.09,2-.98,2.08-2.1l.11-1.91h11.2l.1,1.9c.06,1.13.95,2.03,2.08,2.11l.61.03h.14c.61,0,1.17-.31,1.5-.82.37-.53.41-1.23.1-1.8l-.75-1.46c.79-.06,1.39-.71,1.4-1.5,1.17-.16,2.29-.59,3.27-1.26,1.07-.87,1.79-2.11,2.01-3.47h1.05c.28,0,.5-.23.51-.51.07-2.05-1.53-3.77-3.57-3.84-.08,0-.16,0-.25,0-1.97-.14-3.67,1.35-3.8,3.31,0,.11,0,.22,0,.33,0,.44-.07.95-1.09,1.22-1.62-3.5-5.09-5.77-8.95-5.85-4.29.1-8.06,2.89-9.39,6.98-.98-.22-1.91-.64-2.72-1.23-.13-.11-.32-.13-.48-.07-.15.06-.26.19-.31.34Z"/>
    </g>
  </g>
</svg>