<?xml version="1.0" encoding="UTF-8"?><svg id="Ebene_1" xmlns="http://www.w3.org/2000/svg" width="37.26" height="27.01" viewBox="0 0 37.26 27.01"><defs><style>.cls-1{fill:#adccd8;stroke-width:0px;}</style></defs><path class="cls-1" d="m33.01,17.54c2.45-.58,4.46-2.07,4.23-3.95-.21-1.72-2.77-4.91-6.35-4.69-.03-.12-.07-.25-.11-.38-.17-.53-.75-2.2-2.87-4.43-1.02-1.08-2.77-2.68-5.42-4.07-.21-.11-.45.08-.38.31.3,1.05,1.09,3.36,2.74,5.51-.16-.08-.32-.15-.49-.23-1.37-.62-3.63-1.46-6.66-1.74-.19-.02-.32.2-.2.35.67.88,2.51,3.04,5.24,4.47,1.79.94,3.61,1.38,4.97,1.59-.76.8-1.2,1.87-1.2,3l-.66.02c-.49-.31-1.01-.62-1.56-.91-3.2-1.67-6.12-2.13-7.85-2.27,0,0,0,.01,0,.02-.97-.09-2.01-.02-3.05.23-.94.22-1.81.57-2.57,1.02-.03-.76-.37-1.44-.98-1.83-1.09-.68-2.63-.18-3.44,1.12-.81,1.3-.59,2.9.5,3.58.3.19.63.28.97.3-.42.97-.53,2.02-.25,3.04.03.13.08.25.12.38-.78.33-1.9.55-3.5.31-.23.08-.41.25-.51.46L.09,24.83c-.21.45-.02.99.43,1.2l.55.26c.15.07.33,0,.4-.14l2.51-3.62c.21-.45.76-.65,1.21-.43,1.04.51,3.45,1.11,5.28,1.22,1.14.07,2.13-.04,2.92-.2.1-.02.19-.06.28-.11,1.08-.7,2.02-1.23,2.74-1.61,2.38-1.25,3.1-1.28,3.64-1.17.46.09.48.22,1.6.85,1.88,1.06,2.44,1.02,3.4,1.65.76.49,1.73,1.34,2.61,2.84.16.18.39.28.63.29l7.52,1.15c.5.02.92-.36.94-.86l.03-.6c.08-.4-.18-.78-.57-.86l-.84-.17c-.3-.06-.59.07-.75.31l-2.94-.63c-.5-.02-.89-.45-.86-.95.06-1.16-.02-2.74-.63-4.47-.09-.27-.2-.53-.3-.77.19-.12.37-.23.54-.34.84.11,1.72.07,2.6-.13Z"/></svg>