<?xml version="1.0" encoding="UTF-8" standalone="no"?>
<svg id="Ebene_1" width="134.5" height="58" viewBox="0 0 134.5 58" version="1.1" sodipodi:docname="k_app_weiter_pfeil_1.svg" inkscape:version="1.3.1 (91b66b0, 2023-11-16)" xmlns:inkscape="http://www.inkscape.org/namespaces/inkscape" xmlns:sodipodi="http://sodipodi.sourceforge.net/DTD/sodipodi-0.dtd" xmlns="http://www.w3.org/2000/svg" xmlns:svg="http://www.w3.org/2000/svg">
  <sodipodi:namedview id="namedview2" pagecolor="#ffffff" bordercolor="#666666" borderopacity="1.0" inkscape:showpageshadow="2" inkscape:pageopacity="0.0" inkscape:pagecheckerboard="0" inkscape:deskcolor="#d1d1d1" inkscape:zoom="7.6293103" inkscape:cx="62.522034" inkscape:cy="31.457627" inkscape:window-width="1840" inkscape:window-height="1153" inkscape:window-x="0" inkscape:window-y="23" inkscape:window-maximized="0" inkscape:current-layer="Ebene_1" />
  <defs id="defs1">
    <style id="style1">.cls-1{fill:none;stroke:#89b3c3;stroke-linecap:round;stroke-linejoin:round;stroke-width:2.5px;}.cls-2{fill:#89b3c3;}.cls-2,.cls-3{stroke-width:0px;}.cls-3{fill:#eaf2f5;}</style>
  </defs>
  <path class="cls-3" d="M 29,56.5 C 13.84,56.5 1.5,44.16 1.5,29 1.5,13.84 13.84,1.5 29,1.5 h 76.5 c 15.16,0 27.5,12.34 27.5,27.5 0,15.16 -12.34,27.5 -27.5,27.5 z" id="path1" style="display:inline" />
  <path class="cls-2" d="m 105.5,3 c 14.34,0 26,11.66 26,26 0,14.34 -11.66,26 -26,26 H 29 C 14.66,55 3,43.34 3,29 3,14.66 14.66,3 29,3 h 76.5 m 0,-3 H 29 C 12.98,0 0,12.98 0,29 0,45.02 12.98,58 29,58 h 76.5 c 16.02,0 29,-12.98 29,-29 0,-16.02 -12.99,-29 -29,-29 z" id="path2" style="display:inline" />
  <path id="polyline2" style="color:#000000;fill:#89b3c3;stroke-linecap:round;stroke-linejoin:round;-inkscape-stroke:none" d="M 92.740234 17.130859 A 1.25 1.25 0 0 0 91.855469 17.496094 A 1.25 1.25 0 0 0 91.855469 19.263672 L 100.54297 27.949219 L 32.740234 27.949219 A 1.25 1.25 0 0 0 31.490234 29.199219 A 1.25 1.25 0 0 0 32.740234 30.449219 L 100.54297 30.449219 L 91.65625 39.335938 A 1.25 1.25 0 0 0 91.65625 41.103516 A 1.25 1.25 0 0 0 93.423828 41.103516 L 104.44336 30.083984 A 1.250125 1.250125 0 0 0 104.64258 29.824219 A 1.250125 1.250125 0 0 0 104.80859 29.208984 A 1.25 1.25 0 0 0 104.81055 29.199219 A 1.25 1.25 0 0 0 104.80664 29.162109 A 1.250125 1.250125 0 0 0 104.7832 28.957031 A 1.25 1.25 0 0 0 104.77344 28.902344 A 1.250125 1.250125 0 0 0 104.69922 28.693359 A 1.25 1.25 0 0 0 104.66406 28.619141 A 1.250125 1.250125 0 0 0 104.55078 28.439453 A 1.250125 1.250125 0 0 0 104.54688 28.433594 A 1.25 1.25 0 0 0 104.50977 28.392578 A 1.250125 1.250125 0 0 0 104.44336 28.316406 L 93.623047 17.496094 A 1.25 1.25 0 0 0 92.740234 17.130859 z " />
</svg>
