<?xml version="1.0" encoding="UTF-8"?><svg id="Ebene_1" xmlns="http://www.w3.org/2000/svg" width="60.96" height="60.96" viewBox="0 0 60.96 60.96"><defs><style>.cls-1{fill:none;stroke:#89b3c3;stroke-dasharray:0 0 4.08 4.08;stroke-linecap:round;stroke-linejoin:round;stroke-width:1.25px;}.cls-2{fill:#89b3c3;}.cls-2,.cls-3,.cls-4{stroke-width:0px;}.cls-3{fill:#fff;}.cls-4{fill:#eaf2f5;}</style></defs><path class="cls-4" d="m30.48.63C14.02.63.62,14.02.62,30.48s13.39,29.86,29.86,29.86,29.86-13.39,29.86-29.86S46.94.63,30.48.63Z"/><circle class="cls-1" cx="30.48" cy="30.48" r="29.86" transform="translate(-3.14 3.51) rotate(-6.26)"/><circle class="cls-3" cx="30.24" cy="30.48" r="9.63"/><path class="cls-2" d="m30.24,24.67c-1.08,0-2.09.3-2.95.81.82.29,1.42,1.06,1.42,1.99,0,1.17-.95,2.11-2.11,2.11-.78,0-1.45-.43-1.82-1.06-.22.61-.35,1.27-.35,1.96,0,3.21,2.6,5.81,5.81,5.81s5.81-2.6,5.81-5.81-2.6-5.81-5.81-5.81Z"/><path class="cls-2" d="m30.48,19.51c-11.81,0-22.39,8.44-22.39,10.97s10.59,10.97,22.39,10.97,22.39-8.82,22.39-10.97-10.06-10.97-22.39-10.97Zm-20.67,10.97c.53-1.27,6.27-6.4,14.23-8.43-2.59,1.91-4.28,4.97-4.28,8.43s1.69,6.52,4.28,8.43c-7.96-2.03-13.7-7.15-14.23-8.43Zm20.43,8.78c-4.84,0-8.78-3.94-8.78-8.78s3.94-8.78,8.78-8.78,8.78,3.94,8.78,8.78-3.94,8.78-8.78,8.78Zm5.98-.19c2.71-1.9,4.5-5.04,4.5-8.59s-1.78-6.7-4.5-8.59c8.23,1.9,14.33,7.26,14.94,8.59-.61,1.33-6.71,6.69-14.94,8.59Z"/></svg>