<?xml version="1.0" encoding="UTF-8"?><svg id="Ebene_1" xmlns="http://www.w3.org/2000/svg" viewBox="0 0 25.3 25.33"><defs><style>.cls-1{fill:#adccd8;stroke-width:0px;}</style></defs><g id="Gruppe_896"><path id="Pfad_2508" class="cls-1" d="m24.95,9.75c-.39-.4-.72-.85-1.01-1.32-.82-1.2-2.12-1.99-3.56-2.16,0,0-.55-5.17-4.76-6.27,0,0-.66,4.63,2.72,6.81l-.42.34s-2.22-4.14-6.68-4.15c.58,2.82,2.69,5.07,5.47,5.84-.11.49-.17,1-.18,1.5,0,0,.1,1.39-2.02.86,0,0-6.13-2.14-9.68,3.16-.72,1.07-.68,1.46-.68,1.46,0,0,.03-.19-1.15-.18C1.4,15.57.08,16.79,0,18.36c-.04,1.62,1.24,2.96,2.85,3,.02,0,.03,0,.05,0,1.75-.01,1.68-.58,1.68-.58,0,0,.13,1.51,2.23,2.9.46.34.98.59,1.54.73-.24.16-.3.49-.14.73.06.08.14.15.24.19h8.65c.18-.12.29-.3.31-.51-.01-.25-.28-.5-1.41-.91-.81-.29-1.64-.51-2.48-.66.49-.09.98-.22,1.45-.39.7-.16,1.33-.53,1.81-1.05l2.5,3.54h1.84c.11-.18.17-.39.19-.6.05-.38-.11-.76-.41-.99-.1-.04-.2-.08-.31-.1-.17-.05-.34-.08-.51-.1,0,0-.59-.18-.53-.36.17-1.04.25-2.09.25-3.15,0,0,4-2.54,3.13-5.92-.09-.63.17-1.26.68-1.64,0-.02.01-.03.03-.03,0,0,0,0,0,0,.8-.22,1.4-.89,1.53-1.71.06-.05.11-.11.14-.19-.02-.29-.15-.57-.36-.78"/></g></svg>