<?xml version="1.0" encoding="UTF-8" standalone="no"?>
<svg id="Ebene_1" viewBox="0 0 26.16 26.37" version="1.1" sodipodi:docname="k_app_menu_x.svg" inkscape:version="1.3.2 (091e20e, 2023-11-25)" xmlns:inkscape="http://www.inkscape.org/namespaces/inkscape" xmlns:sodipodi="http://sodipodi.sourceforge.net/DTD/sodipodi-0.dtd" xmlns="http://www.w3.org/2000/svg" xmlns:svg="http://www.w3.org/2000/svg">
  <sodipodi:namedview id="namedview1" pagecolor="#ffffff" bordercolor="#666666" borderopacity="1.0" inkscape:showpageshadow="2" inkscape:pageopacity="0.0" inkscape:pagecheckerboard="0" inkscape:deskcolor="#d1d1d1" inkscape:zoom="23.143012" inkscape:cx="13.092505" inkscape:cy="13.178924" inkscape:window-width="1440" inkscape:window-height="855" inkscape:window-x="0" inkscape:window-y="23" inkscape:window-maximized="1" inkscape:current-layer="Ebene_1" />
  <defs id="defs1">
    <style id="style1">.cls-1{fill:none;stroke:#5883a5;stroke-linecap:round;stroke-linejoin:round;stroke-width:4px;}</style>
  </defs>
  <path style="color:#000000;fill:#5883a5;stroke-linecap:round;stroke-linejoin:round;-inkscape-stroke:none" d="m 2.4101563,0 a 2,2 0 0 0 -1.41406255,0.5859375 2,2 0 0 0 0,2.828125 L 22.746094,25.154297 a 2,2 0 0 0 2.828125,0 2,2 0 0 0 0,-2.828125 L 3.8242188,0.5859375 A 2,2 0 0 0 2.4101563,0 Z" id="Linie_120" />
  <path style="color:#000000;fill:#5883a5;stroke-linecap:round;stroke-linejoin:round;-inkscape-stroke:none" d="M 23.740234,0.61914062 A 2,2 0 0 0 22.326172,1.2070312 L 0.5859375,22.957031 a 2,2 0 0 0 0,2.828125 2,2 0 0 0 2.828125,-0.002 L 25.154297,4.0332031 a 2,2 0 0 0 0,-2.828125 2,2 0 0 0 -1.414063,-0.58593748 z" id="Linie_120-2" />
</svg>
