<?xml version="1.0" encoding="UTF-8" standalone="no"?>
<svg id="Ebene_1" width="79.695" height="68.711998" viewBox="0 0 79.694996 68.711998" version="1.1" sodipodi:docname="k_app_ohr_3.svg" inkscape:version="1.3.2 (091e20e, 2023-11-25)" xmlns:inkscape="http://www.inkscape.org/namespaces/inkscape" xmlns:sodipodi="http://sodipodi.sourceforge.net/DTD/sodipodi-0.dtd" xmlns="http://www.w3.org/2000/svg" xmlns:svg="http://www.w3.org/2000/svg">
  <sodipodi:namedview id="namedview13" pagecolor="#ffffff" bordercolor="#666666" borderopacity="1.0" inkscape:showpageshadow="2" inkscape:pageopacity="0.0" inkscape:pagecheckerboard="0" inkscape:deskcolor="#d1d1d1" inkscape:zoom="9.3433464" inkscape:cx="39.814429" inkscape:cy="34.355999" inkscape:window-width="1440" inkscape:window-height="855" inkscape:window-x="0" inkscape:window-y="23" inkscape:window-maximized="1" inkscape:current-layer="Ebene_1" />
  <defs id="defs1">
    <style id="style1">.cls-1{fill:#89b3c3;}.cls-1,.cls-2,.cls-3{stroke-width:0px;}.cls-2{fill:#88b2c2;}.cls-3{fill:#fff;}</style>
  </defs>
  <g id="g13">
    <path id="Pfad_3443" class="cls-1" d="M 79.6949 58.1124 C 79.6949 63.9624 74.9449 68.7124 69.0949 68.7124 C 63.2449 68.7124 58.4949 63.9624 58.4949 58.1124 C 58.4949 52.2624 63.2449 47.5124 69.0949 47.5124 C 74.9449 47.5124 79.6949 52.2624 79.6949 58.1124 Z" />
    <path class="cls-3" d="M 74.5349 56.3224 C 73.5152 54.0223 70.955 52.5462 68.4537 52.8036 C 67.7276 52.8758 67.0005 53.0575 66.3549 53.4024 C 66.614 52.7152 66.8993 52.0366 67.1418 51.3439 C 67.2644 50.6707 66.1947 50.5605 66.1222 51.2193 C 65.685 52.3707 65.2239 53.5192 64.8024 54.6724 C 64.8001 55.195 65.3951 55.2475 65.7619 55.4169 C 66.7273 55.7762 67.684 56.163 68.6549 56.5049 C 69.2664 56.6463 69.488 55.6389 68.8564 55.5263 C 68.0125 55.205 67.1687 54.8837 66.3249 54.5624 C 68.2535 53.2822 71.0287 53.6185 72.6259 55.2832 C 74.1898 56.813 74.5565 59.3829 73.477 61.2867 C 72.4229 63.3029 69.9105 64.3899 67.7206 63.7651 C 66.2321 63.3845 64.9781 62.2808 64.3523 60.8854 C 63.7607 60.2255 63.0882 61.3082 63.6998 61.7896 C 64.9147 64.073 67.6983 65.346 70.2217 64.8027 C 72.5977 64.3605 74.5676 62.3575 74.9855 59.9779 C 75.2237 58.7495 75.0672 57.4494 74.5449 56.3124 Z" id="path1" />
  </g>
  <path class="cls-2" d="M 54.61,24.38 C 54.43,24.1 54.2,23.87 53.95,23.66 52.37,10.16 41.51,0.01 27.92,0.01 c -0.05,0 -0.1,0 -0.14,0 -0.07,0 -0.13,-0.01 -0.2,-0.01 -0.2,0 -0.4,0.03 -0.6,0.03 -0.31,0 -0.61,0.03 -0.92,0.05 C 25.78,0.1 25.5,0.12 25.22,0.14 12.65,1.4 2.6,11.29 1.07,23.77 0.87,23.95 0.69,24.15 0.54,24.38 0.19,24.93 0,25.56 0,26.22 c 0,0.04 0,0.08 0,0.12 l 0.84,7.97 c 0.03,1.73 1.36,3.16 3.11,3.34 0.08,0 0.17,0 0.25,0 l 3.27,10.33 c 0.04,1.53 0.73,2.97 1.9,3.97 1.21,1.02 2.79,1.46 4.34,1.2 1.71,-0.28 2.96,-0.55 4.07,-0.78 0.04,0 0.07,-0.02 0.11,-0.02 2.88,1.58 6.13,2.43 9.67,2.43 3.54,0 6.94,-0.89 9.87,-2.54 0.2,0.04 0.4,0.08 0.61,0.13 1.11,0.23 2.36,0.49 4.07,0.78 0.29,0.05 0.59,0.07 0.88,0.07 1.26,0 2.49,-0.44 3.46,-1.27 1.18,-1 1.87,-2.45 1.9,-3.99 l 2.88,-10.31 c 1.73,-0.2 3.03,-1.62 3.06,-3.33 l 0.84,-7.97 c 0,0 0,-0.08 0,-0.12 0,-0.66 -0.19,-1.29 -0.54,-1.84 z" id="path5" style="display:inline" />
  <path class="cls-3" d="m 52.72,25.61 c 0,0 0,0 0,0 -0.09,-0.14 -0.23,-0.24 -0.38,-0.32 -0.09,-0.05 -0.19,-0.1 -0.3,-0.12 -0.32,-0.07 -0.68,0.04 -0.98,0.27 l -0.51,1.21 c -0.2,0.48 -0.72,0.76 -1.23,0.67 C 48.8,27.23 48.42,26.8 48.39,26.28 48.3,24.72 48.1,23.21 47.82,21.76 42,22.65 35.19,23.29 27.57,23.27 c -3.07,0 -6.01,-0.13 -8.81,-0.32 L 18.04,13.44 12.82,22.4 C 10.91,22.18 9.08,21.93 7.35,21.65 7.06,23.14 6.85,24.68 6.76,26.28 6.73,26.8 6.34,27.23 5.83,27.32 5.31,27.42 4.81,27.13 4.6,26.65 L 4.09,25.44 C 3.79,25.2 3.42,25.1 3.11,25.17 3,25.19 2.83,25.25 2.68,25.36 2.59,25.42 2.5,25.5 2.43,25.61 2.32,25.78 2.26,25.97 2.25,26.17 l 0.4,3.76 0.44,4.17 v 0.03 c 0,0 0,0.08 0,0.12 0,0.26 0.1,0.5 0.26,0.7 0.2,0.25 0.48,0.43 0.83,0.47 0.06,0 0.13,0 0.21,-0.01 0.07,-0.01 0.15,-0.03 0.24,-0.07 l 0.58,-0.21 1.84,-0.65 c 0.12,-0.04 0.25,-0.06 0.38,-0.06 0.18,0 0.37,0.04 0.53,0.13 0.28,0.15 0.48,0.41 0.56,0.72 1.8,7.12 5.52,12.34 10.47,15.08 0.43,0.24 0.87,0.46 1.32,0.66 0.56,0.25 1.13,0.47 1.71,0.66 1.75,0.56 3.6,0.87 5.56,0.87 1.96,0 3.92,-0.33 5.72,-0.92 0.59,-0.2 1.17,-0.42 1.73,-0.68 0.45,-0.21 0.88,-0.43 1.31,-0.68 4.86,-2.77 8.52,-7.94 10.3,-14.98 0.08,-0.31 0.28,-0.57 0.56,-0.72 0.28,-0.15 0.61,-0.17 0.91,-0.07 l 2,0.71 0.41,0.15 c 0.17,0.06 0.32,0.09 0.43,0.08 0,0 0,0 0.01,0 0.62,-0.06 1.09,-0.57 1.09,-1.17 0,-0.04 0,-0.08 0,-0.12 l 0.45,-4.31 0.38,-3.64 c 0,-0.2 -0.07,-0.39 -0.18,-0.56 z m -25.15,16.5 c 3.25,0 5.53,-1.61 6.37,-2.3 0.43,-0.35 1.05,-0.29 1.41,0.13 0.35,0.42 0.29,1.06 -0.13,1.41 -1,0.83 -3.75,2.76 -7.65,2.76 H 27.5 C 23.78,44.09 21.16,42.37 19.92,41.35 19.5,41 19.44,40.37 19.79,39.94 c 0.35,-0.42 0.98,-0.49 1.41,-0.13 0.83,0.69 3.1,2.28 6.31,2.3 z m -9.34,-10.1 c -0.41,-0.51 -0.67,-1.16 -0.67,-1.87 0,-1.66 1.35,-3 3,-3 1.65,0 3,1.35 3,3 0,0.71 -0.26,1.35 -0.67,1.87 h -4.67 z m 18.69,0 h -4.67 c -0.41,-0.51 -0.67,-1.16 -0.67,-1.87 0,-1.66 1.35,-3 3,-3 1.65,0 3,1.35 3,3 0,0.71 -0.26,1.35 -0.67,1.87 z" id="path7" style="display:inline" />
  <g id="g14">
    <path class="cls-2" d="m 61.54,30.38 c 0,-4.21 1.63,-8.15 4.6,-11.12 0.59,-0.58 0.59,-1.54 0,-2.12 -0.59,-0.58 -1.54,-0.59 -2.12,0 -3.53,3.53 -5.48,8.23 -5.48,13.24 0,5.01 1.95,9.71 5.48,13.24 0.29,0.29 0.68,0.44 1.06,0.44 0.38,0 0.77,-0.15 1.06,-0.44 0.58,-0.59 0.58,-1.54 0,-2.12 -2.97,-2.96 -4.6,-6.91 -4.6,-11.12 z" id="path2" />
    <path class="cls-2" d="m 72.09,20.02 c -0.59,-0.59 -1.54,-0.58 -2.12,0 -2.77,2.76 -4.29,6.44 -4.29,10.36 0,3.92 1.52,7.6 4.29,10.36 0.29,0.29 0.68,0.44 1.06,0.44 0.38,0 0.77,-0.15 1.06,-0.44 0.58,-0.59 0.58,-1.54 0,-2.12 -2.2,-2.2 -3.41,-5.12 -3.41,-8.24 0,-3.12 1.21,-6.04 3.41,-8.24 0.59,-0.59 0.59,-1.54 0,-2.12 z" id="path3" />
    <path class="cls-2" d="m 75.81,30.39 c 0,-2.02 0.79,-3.93 2.22,-5.36 0.59,-0.59 0.59,-1.54 0,-2.12 -0.59,-0.59 -1.54,-0.58 -2.12,0 -2,2 -3.1,4.66 -3.1,7.48 0,2.82 1.1,5.48 3.1,7.48 0.29,0.29 0.68,0.44 1.06,0.44 0.38,0 0.77,-0.15 1.06,-0.44 0.58,-0.59 0.58,-1.54 0,-2.12 -1.43,-1.43 -2.22,-3.33 -2.22,-5.36 z" id="path4" />
  </g>
</svg>
