<?xml version="1.0" encoding="UTF-8" standalone="no"?>
<svg id="Ebene_1" width="79.695" height="68.711998" viewBox="0 0 79.695 68.712" version="1.1" sodipodi:docname="k_app_ohr_2.svg" inkscape:version="1.3.2 (091e20e, 2023-11-25)" xmlns:inkscape="http://www.inkscape.org/namespaces/inkscape" xmlns:sodipodi="http://sodipodi.sourceforge.net/DTD/sodipodi-0.dtd" xmlns="http://www.w3.org/2000/svg" xmlns:svg="http://www.w3.org/2000/svg">
  <sodipodi:namedview id="namedview12" pagecolor="#ffffff" bordercolor="#666666" borderopacity="1.0" inkscape:showpageshadow="2" inkscape:pageopacity="0.0" inkscape:pagecheckerboard="0" inkscape:deskcolor="#d1d1d1" inkscape:zoom="9.3433464" inkscape:cx="39.814429" inkscape:cy="34.355999" inkscape:window-width="1440" inkscape:window-height="855" inkscape:window-x="0" inkscape:window-y="23" inkscape:window-maximized="0" inkscape:current-layer="Ebene_1" />
  <defs id="defs1">
    <style id="style1">.cls-1{fill:#88b2c2;}.cls-1,.cls-2{stroke-width:0px;}.cls-2{fill:#fff;}</style>
  </defs>
  <path class="cls-1" d="m 61.54,30.38 c 0,-4.21 1.63,-8.15 4.6,-11.12 0.59,-0.58 0.59,-1.54 0,-2.12 -0.59,-0.58 -1.54,-0.59 -2.12,0 -3.53,3.53 -5.48,8.23 -5.48,13.24 0,5.01 1.95,9.71 5.48,13.24 0.29,0.29 0.68,0.44 1.06,0.44 0.38,0 0.77,-0.15 1.06,-0.44 0.58,-0.59 0.58,-1.54 0,-2.12 -2.97,-2.96 -4.6,-6.91 -4.6,-11.12 z" id="path1" />
  <path class="cls-1" d="m 72.09,20.02 c -0.59,-0.59 -1.54,-0.58 -2.12,0 -2.77,2.76 -4.29,6.44 -4.29,10.36 0,3.92 1.52,7.6 4.29,10.36 0.29,0.29 0.68,0.44 1.06,0.44 0.38,0 0.77,-0.15 1.06,-0.44 0.58,-0.59 0.58,-1.54 0,-2.12 -2.2,-2.2 -3.41,-5.12 -3.41,-8.24 0,-3.12 1.21,-6.04 3.41,-8.24 0.59,-0.59 0.59,-1.54 0,-2.12 z" id="path2" />
  <path class="cls-1" d="m 75.81,30.39 c 0,-2.02 0.79,-3.93 2.22,-5.36 0.59,-0.59 0.59,-1.54 0,-2.12 -0.59,-0.59 -1.54,-0.58 -2.12,0 -2,2 -3.1,4.66 -3.1,7.48 0,2.82 1.1,5.48 3.1,7.48 0.29,0.29 0.68,0.44 1.06,0.44 0.38,0 0.77,-0.15 1.06,-0.44 0.58,-0.59 0.58,-1.54 0,-2.12 -1.43,-1.43 -2.22,-3.33 -2.22,-5.36 z" id="path3" />
  <path class="cls-1" d="M 54.61,24.37 C 54.43,24.09 54.2,23.86 53.95,23.65 52.37,10.15 41.51,0 27.92,0 c -0.05,0 -0.1,0 -0.14,0 -0.07,0 -0.13,-0.01 -0.2,-0.01 -0.2,0 -0.4,0.03 -0.6,0.03 -0.31,0 -0.61,0.03 -0.92,0.05 C 25.78,0.09 25.5,0.11 25.22,0.13 12.65,1.39 2.6,11.28 1.07,23.76 0.87,23.94 0.69,24.14 0.54,24.37 0.19,24.92 0,25.55 0,26.21 c 0,0.04 0,0.08 0,0.12 l 0.84,7.97 c 0.03,1.73 1.36,3.16 3.11,3.34 0.08,0 0.17,0 0.25,0 l 3.27,10.33 c 0.04,1.53 0.73,2.97 1.9,3.97 1.21,1.02 2.79,1.46 4.34,1.2 1.71,-0.28 2.96,-0.55 4.07,-0.78 0.04,0 0.07,-0.02 0.11,-0.02 2.88,1.58 6.13,2.43 9.67,2.43 3.54,0 6.94,-0.89 9.87,-2.54 0.2,0.04 0.4,0.08 0.61,0.13 1.11,0.23 2.36,0.49 4.07,0.78 0.29,0.05 0.59,0.07 0.88,0.07 1.26,0 2.49,-0.44 3.46,-1.27 1.18,-1 1.87,-2.45 1.9,-3.99 l 2.88,-10.31 c 1.73,-0.2 3.03,-1.62 3.06,-3.33 l 0.84,-7.97 c 0,0 0,-0.08 0,-0.12 0,-0.66 -0.19,-1.29 -0.54,-1.84 z" id="path4" />
  <path class="cls-1" d="m 52.51,29.8 -0.45,4.31 c 0,0 0,0.08 0,0.12 0,0.6 -0.47,1.1 -1.09,1.17 0,0 0,0 -0.01,0 -0.11,0.01 -0.26,-0.02 -0.43,-0.08 l -0.41,-0.15 -2,-0.71 c -0.3,-0.11 -0.63,-0.08 -0.91,0.07 -0.28,0.15 -0.48,0.41 -0.56,0.72 -1.78,7.04 -5.43,12.22 -10.3,14.98 -0.43,0.24 -0.87,0.47 -1.31,0.68 -0.56,0.26 -1.14,0.49 -1.73,0.68 -1.79,0.6 -3.7,0.92 -5.72,0.92 -2.02,0 -3.81,-0.31 -5.56,-0.87 C 21.45,51.45 20.88,51.23 20.32,50.98 19.87,50.78 19.43,50.56 19,50.32 14.05,47.58 10.33,42.36 8.53,35.24 8.45,34.93 8.25,34.67 7.97,34.52 7.8,34.43 7.62,34.39 7.44,34.39 c -0.13,0 -0.25,0.02 -0.38,0.06 L 5.22,35.1 4.64,35.31 C 4.56,35.34 4.48,35.36 4.4,35.38 4.32,35.39 4.25,35.4 4.19,35.39 3.84,35.35 3.56,35.17 3.36,34.92 3.2,34.72 3.1,34.49 3.1,34.22 c 0,-0.04 0,-0.08 0,-0.12 v -0.03 c 0,0 -0.44,-4.17 -0.44,-4.17 l -0.4,-3.76 c 0,-0.2 0.07,-0.39 0.18,-0.56 0.07,-0.11 0.16,-0.19 0.25,-0.25 0.16,-0.11 0.32,-0.17 0.43,-0.19 0.32,-0.07 0.69,0.04 0.98,0.27 l 0.51,1.21 c 0.2,0.48 0.71,0.77 1.23,0.67 0.52,-0.09 0.9,-0.52 0.93,-1.04 0.09,-1.6 0.29,-3.14 0.59,-4.63 1.74,0.27 3.56,0.53 5.47,0.75 l 5.22,-8.96 0.72,9.51 c 2.8,0.19 5.73,0.31 8.81,0.32 7.62,0.02 14.43,-0.62 20.25,-1.51 0.28,1.45 0.48,2.96 0.57,4.52 0.03,0.52 0.42,0.95 0.93,1.04 0.51,0.09 1.02,-0.19 1.23,-0.67 l 0.51,-1.21 c 0.3,-0.24 0.66,-0.34 0.98,-0.27 0.11,0.02 0.21,0.07 0.3,0.12 0.15,0.08 0.29,0.18 0.38,0.32 q 0,0 0,0 c 0.11,0.17 0.17,0.36 0.18,0.56 l -0.38,3.64 z" id="path5" />
  <path class="cls-2" d="m 52.72,25.6 c 0,0 0,0 0,0 -0.09,-0.14 -0.23,-0.24 -0.38,-0.32 -0.09,-0.05 -0.19,-0.1 -0.3,-0.12 -0.32,-0.07 -0.68,0.04 -0.98,0.27 l -0.51,1.21 c -0.2,0.48 -0.72,0.76 -1.23,0.67 C 48.8,27.22 48.42,26.79 48.39,26.27 48.3,24.71 48.1,23.2 47.82,21.75 42,22.64 35.19,23.28 27.57,23.26 c -3.07,0 -6.01,-0.13 -8.81,-0.32 l -0.72,-9.51 -5.22,8.96 C 10.91,22.17 9.08,21.92 7.35,21.64 7.06,23.13 6.85,24.67 6.76,26.27 6.73,26.79 6.34,27.22 5.83,27.31 5.31,27.41 4.81,27.12 4.6,26.64 L 4.09,25.43 C 3.79,25.19 3.42,25.09 3.11,25.16 3,25.18 2.83,25.24 2.68,25.35 2.59,25.41 2.5,25.49 2.43,25.6 2.32,25.77 2.26,25.96 2.25,26.16 l 0.4,3.76 0.44,4.17 v 0.03 c 0,0 0,0.08 0,0.12 0,0.26 0.1,0.5 0.26,0.7 0.2,0.25 0.48,0.43 0.83,0.47 0.06,0 0.13,0 0.21,-0.01 0.07,-0.01 0.15,-0.03 0.24,-0.07 l 0.58,-0.21 1.84,-0.65 c 0.12,-0.04 0.25,-0.06 0.38,-0.06 0.18,0 0.37,0.04 0.53,0.13 0.28,0.15 0.48,0.41 0.56,0.72 1.8,7.12 5.52,12.34 10.47,15.08 0.43,0.24 0.87,0.46 1.32,0.66 0.56,0.25 1.13,0.47 1.71,0.66 1.75,0.56 3.6,0.87 5.56,0.87 1.96,0 3.92,-0.33 5.72,-0.92 0.59,-0.2 1.17,-0.42 1.73,-0.68 0.45,-0.21 0.88,-0.43 1.31,-0.68 4.86,-2.77 8.52,-7.94 10.3,-14.98 0.08,-0.31 0.28,-0.57 0.56,-0.72 0.28,-0.15 0.61,-0.17 0.91,-0.07 l 2,0.71 0.41,0.15 c 0.17,0.06 0.32,0.09 0.43,0.08 0,0 0,0 0.01,0 0.62,-0.06 1.09,-0.57 1.09,-1.17 0,-0.04 0,-0.08 0,-0.12 l 0.45,-4.31 0.38,-3.64 c 0,-0.2 -0.07,-0.39 -0.18,-0.56 z M 27.57,42.1 c 3.25,0 5.53,-1.61 6.37,-2.3 0.43,-0.35 1.05,-0.29 1.41,0.13 0.35,0.42 0.29,1.06 -0.13,1.41 -1,0.83 -3.75,2.76 -7.65,2.76 H 27.5 c -3.72,-0.02 -6.34,-1.74 -7.58,-2.76 -0.42,-0.35 -0.48,-0.98 -0.13,-1.41 0.35,-0.42 0.98,-0.49 1.41,-0.13 0.83,0.69 3.1,2.28 6.31,2.3 z M 18.23,32 c -0.41,-0.51 -0.67,-1.16 -0.67,-1.87 0,-1.66 1.35,-3 3,-3 1.65,0 3,1.35 3,3 0,0.71 -0.26,1.35 -0.67,1.87 h -4.67 z m 18.69,0 h -4.67 c -0.41,-0.51 -0.67,-1.16 -0.67,-1.87 0,-1.66 1.35,-3 3,-3 1.65,0 3,1.35 3,3 0,0.71 -0.26,1.35 -0.67,1.87 z" id="path6" />
  <path class="cls-1" d="m 33.94,39.79 c -0.84,0.7 -3.12,2.3 -6.37,2.3 h -0.06 c -3.21,-0.02 -5.48,-1.62 -6.31,-2.3 -0.42,-0.35 -1.06,-0.29 -1.41,0.13 -0.35,0.42 -0.29,1.06 0.13,1.41 1.23,1.02 3.86,2.74 7.58,2.76 h 0.07 c 3.9,0 6.64,-1.93 7.65,-2.76 0.42,-0.35 0.48,-0.98 0.13,-1.41 C 35,39.5 34.37,39.44 33.94,39.79 Z" id="path7" />
  <path class="cls-1" d="m 34.58,27.13 c -1.66,0 -3,1.35 -3,3 0,0.71 0.26,1.35 0.67,1.87 h 4.67 c 0.41,-0.51 0.67,-1.16 0.67,-1.87 0,-1.66 -1.35,-3 -3,-3 z" id="path8" />
  <path class="cls-1" d="m 23.57,30.13 c 0,-1.66 -1.35,-3 -3,-3 -1.65,0 -3,1.35 -3,3 0,0.71 0.26,1.35 0.67,1.87 h 4.67 c 0.41,-0.51 0.67,-1.16 0.67,-1.87 z" id="path9" />
  <path class="cls-1" d="m 61.57,30.38 c 0,-4.21 1.63,-8.15 4.6,-11.12 0.59,-0.58 0.59,-1.54 0,-2.12 -0.59,-0.58 -1.54,-0.59 -2.12,0 -3.53,3.53 -5.48,8.23 -5.48,13.24 0,5.01 1.95,9.71 5.48,13.24 0.29,0.29 0.68,0.44 1.06,0.44 0.38,0 0.77,-0.15 1.06,-0.44 0.58,-0.59 0.58,-1.54 0,-2.12 -2.97,-2.96 -4.6,-6.91 -4.6,-11.12 z" id="path10" />
  <path class="cls-1" d="m 72.12,20.02 c -0.59,-0.59 -1.54,-0.58 -2.12,0 -2.77,2.76 -4.29,6.44 -4.29,10.36 0,3.92 1.52,7.6 4.29,10.36 0.29,0.29 0.68,0.44 1.06,0.44 0.38,0 0.77,-0.15 1.06,-0.44 0.58,-0.59 0.58,-1.54 0,-2.12 -2.2,-2.2 -3.41,-5.12 -3.41,-8.24 0,-3.12 1.21,-6.04 3.41,-8.24 0.59,-0.59 0.59,-1.54 0,-2.12 z" id="path11" />
  <path class="cls-1" d="m 75.84,30.39 c 0,-2.02 0.79,-3.93 2.22,-5.36 0.59,-0.59 0.59,-1.54 0,-2.12 -0.59,-0.59 -1.54,-0.58 -2.12,0 -2,2 -3.1,4.66 -3.1,7.48 0,2.82 1.1,5.48 3.1,7.48 0.29,0.29 0.68,0.44 1.06,0.44 0.38,0 0.77,-0.15 1.06,-0.44 0.58,-0.59 0.58,-1.54 0,-2.12 -1.43,-1.43 -2.22,-3.33 -2.22,-5.36 z" id="path12" />
</svg>
