<?xml version="1.0" encoding="UTF-8" standalone="no"?>
<svg id="Ebene_1" width="11.71347" height="14.222968" viewBox="0 0 11.713469 14.222968" version="1.1" sodipodi:docname="k_app_wiederholen.svg" inkscape:version="1.3.1 (91b66b0, 2023-11-16)" xmlns:inkscape="http://www.inkscape.org/namespaces/inkscape" xmlns:sodipodi="http://sodipodi.sourceforge.net/DTD/sodipodi-0.dtd" xmlns="http://www.w3.org/2000/svg" xmlns:svg="http://www.w3.org/2000/svg">
  <sodipodi:namedview id="namedview1" pagecolor="#ffffff" bordercolor="#666666" borderopacity="1.0" inkscape:showpageshadow="2" inkscape:pageopacity="0.0" inkscape:pagecheckerboard="0" inkscape:deskcolor="#d1d1d1" inkscape:zoom="7.1185479" inkscape:cx="5.6893626" inkscape:cy="-12.081116" inkscape:window-width="1440" inkscape:window-height="855" inkscape:window-x="0" inkscape:window-y="23" inkscape:window-maximized="1" inkscape:current-layer="Ebene_1" />
  <defs id="defs1">
    <style id="style1">.cls-1{fill:none;stroke:#fff;}.cls-1,.cls-2{stroke-linecap:round;stroke-linejoin:round;}.cls-2{fill:#fff;stroke:#5883a5;stroke-width:2px;}.cls-3{fill:#5883a5;stroke-width:0px;}</style>
  </defs>
  <path style="color:#000000;fill:#5883a5;fill-opacity:1;stroke-linecap:round;stroke-linejoin:round;-inkscape-stroke:none" d="m 3.3794164,0.03344497 a 0.5,0.5 0 0 0 -0.646485,0.287109 L 1.4028534,3.769773 a 0.50005,0.50005 0 0 0 0.289063,0.648437 l 3.419921,1.298828 A 0.5,0.5 0 0 0 5.7583224,5.427976 0.5,0.5 0 0 0 5.4673064,4.783445 L 2.5180874,3.662351 3.6665254,0.67992897 a 0.5,0.5 0 0 0 -0.287109,-0.646484 z" id="Pfad_2339" />
  <path style="color:#000000;fill:#5883a5;fill-opacity:1;stroke-linecap:round;stroke-linejoin:round;-inkscape-stroke:none" d="m 5.6001194,2.019773 c -1.500772,0 -2.949906,0.544379 -4.072266,1.546875 a 0.5,0.5 0 0 0 -0.04102,0.707031 0.5,0.5 0 0 0 0.707032,0.03906 c 0.937638,-0.837502 2.147024,-1.292969 3.40625,-1.292969 2.015428,0 3.834437,1.175344 4.6640616,3.007812 1.157464,2.572726 0.01416,5.587443 -2.5585936,6.746094 -2.573121,1.158817 -5.591076,0.01476 -6.75000005,-2.558594 a 0.5,0.5 0 0 0 -0.660156,-0.25 0.5,0.5 0 0 0 -0.251953,0.660157 C 1.4245494,13.691876 5.0488674,15.066966 8.1157404,13.685785 11.182377,12.304711 12.557467,8.682346 11.176287,5.615473 a 0.50005,0.50005 0 0 0 0,-0.002 C 10.185913,3.425945 8.0046824,2.019723 5.6001154,2.019723 Z" id="Pfad_2338" />
</svg>
