<?xml version="1.0" encoding="UTF-8" standalone="no"?>
<svg id="Ebene_1" viewBox="0 0 15.605755 8.9366874" version="1.1" sodipodi:docname="k_app_pfeil_rechts.svg" width="15.605754" height="8.9366875" inkscape:version="1.3.1 (91b66b0, 2023-11-16)" xmlns:inkscape="http://www.inkscape.org/namespaces/inkscape" xmlns:sodipodi="http://sodipodi.sourceforge.net/DTD/sodipodi-0.dtd" xmlns="http://www.w3.org/2000/svg" xmlns:svg="http://www.w3.org/2000/svg">
  <sodipodi:namedview id="namedview1" pagecolor="#ffffff" bordercolor="#666666" borderopacity="1.0" inkscape:showpageshadow="2" inkscape:pageopacity="0.0" inkscape:pagecheckerboard="0" inkscape:deskcolor="#d1d1d1" inkscape:zoom="36.909462" inkscape:cx="7.8028771" inkscape:cy="4.4703983" inkscape:window-width="1440" inkscape:window-height="855" inkscape:window-x="0" inkscape:window-y="23" inkscape:window-maximized="1" inkscape:current-layer="Ebene_1" />
  <defs id="defs1">
    <inkscape:path-effect effect="fillet_chamfer" id="path-effect1" is_visible="true" lpeversion="1" nodesatellites_param="F,0,0,1,0,0.3144566,0,1 @ F,0,0,1,0,0,0,1 @ F,0,0,1,0,0,0,1 @ F,0,0,1,0,0,0,1 @ F,0,0,1,0,0,0,1 @ F,0,0,1,0,0,0,1 @ F,0,0,1,0,0,0,1 @ F,0,0,1,0,0,0,1 @ F,0,0,1,0,0,0,1 @ F,0,0,1,0,0,0,1 @ F,0,0,1,0,0,0,1 @ F,0,0,1,0,0,0,1 @ F,0,0,1,0,0.55370789,0,1 @ F,0,0,1,0,0.20082099,0,1" radius="0" unit="px" method="auto" mode="F" chamfer_steps="1" flexible="false" use_knot_distance="true" apply_no_radius="true" apply_with_radius="true" only_selected="false" hide_knots="false" />
    <style id="style1">.cls-1{fill:#89b3c3;stroke-width:0px;}</style>
  </defs>
  <path id="Pfad_915" class="cls-1" d="M 14.235543,12.81 H 3.09 L 6.38,10.46 C 6.72,10.22 6.8,9.75 6.56,9.41 6.32,9.07 5.85,8.99 5.51,9.23 l -5.19,3.72 c -0.34,0.24 -0.42,0.71 -0.18,1.05 0.05,0.07 0.11,0.13 0.18,0.18 l 5.2,3.71 c 0.34,0.24 0.8,0.16 1.04,-0.18 C 6.8,17.37 6.72,16.9 6.38,16.66 L 3.09,14.32 h 10.935154 c 0.305805,0 0.808143,0.0215 1.103101,-0.05611 0.306963,-0.08078 0.438546,-0.249395 0.471438,-0.509928 0.01387,-0.10986 0.0079,-0.290793 -0.0088,-0.400372 -0.04865,-0.318538 -0.215198,-0.487294 -0.726973,-0.531606 C 14.691071,12.807014 14.409213,12.81 14.235543,12.81 Z" sodipodi:nodetypes="cccscccccsccczc" inkscape:path-effect="#path-effect1" inkscape:original-d="M 14.55,12.81 H 3.09 L 6.38,10.46 C 6.72,10.22 6.8,9.75 6.56,9.41 6.32,9.07 5.85,8.99 5.51,9.23 l -5.19,3.72 c -0.34,0.24 -0.42,0.71 -0.18,1.05 0.05,0.07 0.11,0.13 0.18,0.18 l 5.2,3.71 c 0.34,0.24 0.8,0.16 1.04,-0.18 C 6.8,17.37 6.72,16.9 6.38,16.66 L 3.09,14.32 h 11.488862 c 0.827801,0 1.044791,-0.248777 1.028622,-0.766389 C 15.591315,13.035999 15.435032,12.81 14.55,12.81 Z" transform="matrix(-1,0,0,1,15.607423,-9.0916563)" />
</svg>
