<?xml version="1.0" encoding="UTF-8"?><svg id="Ebene_1" xmlns="http://www.w3.org/2000/svg" width="62.71" height="73.66" viewBox="0 0 62.71 73.66"><defs><style>.cls-1{fill:none;stroke:#fff;stroke-linecap:round;stroke-linejoin:round;}.cls-2{fill:#eaf2f5;stroke:#89b3c3;stroke-miterlimit:10;stroke-width:3px;}.cls-3{fill:#89b3c3;}.cls-3,.cls-4{stroke-width:0px;}.cls-4{fill:#fff;}</style></defs><path class="cls-2" d="m31.36,1.5C14.89,1.5,1.5,14.89,1.5,31.36s13.39,29.86,29.86,29.86,29.86-13.39,29.86-29.86S47.82,1.5,31.36,1.5Z"/><path class="cls-4" d="m21.69,19.81c-1.43,2.37-1.69,4.56-1.87,6.3-.31,2.88.15,5.1,1.08,9.43,1.7,7.91,3.24,9.64,3.8,10.22.85.87,2.81,2.9,5.17,2.67,2.11-.21,3.43-2.13,5.79-5.68,1.16-1.74,2.72-4.35,4.15-7.78.3-.41,4.69-6.52,2.04-13.17-.31-.77-2.38-5.74-7.61-7.27-.94-.28-3.7-.94-6.81.23-3.41,1.28-5.07,3.94-5.74,5.05Z"/><path class="cls-3" d="m31.47,12.43c-3.4,0-6.75,1.42-9.26,3.96-2.68,2.72-4.12,6.33-4.04,10.16.01.7.6,1.27,1.3,1.25.7-.01,1.26-.6,1.25-1.3-.06-3.14,1.11-6.09,3.31-8.31,2.02-2.05,4.72-3.2,7.43-3.2,5.99.04,9.93,5.69,10.47,9.72.09.77.09,1.55,0,2.37-.23,3.1-1.17,5.2-4.56,11.32-3.78,6.83-5.13,8.87-6.84,9.24-.69.14-1.4.14-2.02.02-1.23-.32-2.31-1.07-3.04-2.11-.4-.58-1.19-.72-1.77-.32-.58.4-.72,1.2-.32,1.77,1.07,1.55,2.67,2.66,4.57,3.15.51.1,1.02.15,1.53.15s1.04-.05,1.57-.16c2.87-.62,4.53-3.22,8.56-10.5,3.39-6.12,4.6-8.6,4.87-12.32.11-.96.11-1.93,0-2.92-.98-7.34-7.5-11.92-12.99-11.96Z"/><path class="cls-3" d="m27.91,21.93c1.24-1.12,2.68-1.65,4.07-1.49,2.73.31,4.94,2.98,5.15,6.22.03.53.49.91,1.01.89.53-.03.93-.49.89-1.02-.26-4.15-3.2-7.59-6.84-8-1.94-.21-3.92.48-5.57,1.97-1.83,1.66-3,4.05-2.98,6.1.02,1.55.73,2.65,1.35,3.61.68,1.04,1.26,1.94,1.14,3.44-.06.71-.24,1.24-.43,1.75-.28.79-.61,1.69-.17,2.87.67,1.8,2.41,2.99,4.38,2.99.11,0,.23,0,.34-.01,1.85-.28,3.36-1.7,3.76-3.53.11-.52-.21-1.03-.73-1.14-.52-.11-1.03.22-1.14.73-.23,1.06-1.11,1.88-2.1,2.04-1.18.08-2.3-.64-2.72-1.75-.19-.5-.09-.82.18-1.56.2-.57.46-1.28.53-2.25.17-2.14-.69-3.47-1.45-4.63-.55-.86-1.03-1.59-1.05-2.6-.02-1.5.93-3.37,2.35-4.66Z"/><g id="Gruppe_787"><g id="Gruppe_786"><path id="Pfad_2337" class="cls-3" d="m41.96,63.06c0,5.85-4.75,10.6-10.6,10.6s-10.6-4.75-10.6-10.6,4.75-10.6,10.6-10.6h0c5.85,0,10.6,4.75,10.6,10.6"/><path id="Pfad_2338" class="cls-1" d="m26.2,66.13c1.27,2.82,4.59,4.08,7.41,2.81,2.82-1.27,4.08-4.59,2.81-7.41-.91-2.01-2.91-3.3-5.12-3.3-1.38,0-2.71.5-3.74,1.42"/><path id="Pfad_2339" class="cls-1" d="m31,60.96l-3.42-1.3,1.33-3.45"/></g></g></svg>