<?xml version="1.0" encoding="UTF-8"?>
<svg id="Ebene_1" data-name="Ebene 1" xmlns="http://www.w3.org/2000/svg" width="42.23" height="42.23" viewBox="0 0 42.23 42.23">
  <defs>
    <style>
      .cls-1 {
        fill: #86b0c0;
      }

      .cls-1, .cls-2, .cls-3 {
        stroke-width: 0px;
      }

      .cls-2 {
        fill: #89b3c3;
      }

      .cls-3 {
        fill: #fff;
      }
    </style>
  </defs>
  <g id="Gruppe_1643" data-name="Gruppe 1643">
    <g id="Gruppe_1642" data-name="Gruppe 1642">
      <g id="Gruppe_1627" data-name="Gruppe 1627">
        <g id="Gruppe_1626" data-name="Gruppe 1626">
          <g>
            <circle id="Ellipse_298" data-name="Ellipse 298" class="cls-3" cx="21.12" cy="21.12" r="20.12"/>
            <path class="cls-1" d="M21.12,42.23C9.47,42.23,0,32.76,0,21.12S9.47,0,21.12,0s21.12,9.47,21.12,21.12-9.47,21.12-21.12,21.12ZM21.12,2C10.58,2,2,10.58,2,21.12s8.58,19.12,19.12,19.12,19.12-8.58,19.12-19.12S31.66,2,21.12,2Z"/>
          </g>
        </g>
      </g>
    </g>
  </g>
  <g id="Gruppe_1536" data-name="Gruppe 1536">
    <g id="Gruppe_1536-2" data-name="Gruppe 1536-2">
      <path id="Pfad_3241" data-name="Pfad 3241" class="cls-2" d="M32.97,21.91c2.05-.49,3.74-1.74,3.54-3.31-.66-2.38-2.86-4-5.32-3.93-.03-.1-.06-.21-.09-.32-.51-1.4-1.33-2.67-2.4-3.71-1.32-1.38-2.85-2.53-4.54-3.41-.11-.06-.25-.02-.3.09-.03.05-.03.11-.02.16.48,1.67,1.26,3.23,2.3,4.61-.13-.06-.27-.13-.41-.19-1.77-.79-3.65-1.29-5.58-1.46-.1-.01-.19.06-.2.16,0,.05,0,.09.04.13,1.19,1.54,2.68,2.82,4.39,3.75,1.31.67,2.72,1.12,4.17,1.34-.65.68-1.01,1.58-1.01,2.51h-.55c-.41-.25-.84-.51-1.31-.75-2.04-1.07-4.28-1.71-6.57-1.9v.02c-.86-.07-1.72,0-2.55.19-.76.18-1.48.46-2.15.85,0-.62-.31-1.19-.82-1.53-1.06-.53-2.34-.11-2.88.94-.7.95-.52,2.28.42,3,.24.15.52.24.81.25-.36.8-.43,1.7-.21,2.54.03.11.06.21.1.32-.93.36-1.95.45-2.93.26-.19.07-.34.21-.43.39l-3.07,5.09c-.18.38-.02.83.36,1,0,0,0,0,0,0l.46.22c.12.06.27,0,.33-.12l2.1-3.04c.18-.38.63-.54,1.01-.36,0,0,0,0,0,0,1.41.57,2.91.91,4.43,1.02.82.05,1.64,0,2.45-.17.08-.02.16-.05.23-.09.9-.59,1.7-1.03,2.3-1.35,1.99-1.05,2.6-1.07,3.05-.98.38.08.4.19,1.34.71,1.57.89,2.04.85,2.85,1.39.91.61,1.66,1.43,2.18,2.38.14.15.32.24.53.24l6.3.96c.42.02.77-.3.79-.72,0,0,0,0,0,0l.02-.5c.07-.33-.15-.65-.48-.72,0,0,0,0,0,0l-.7-.14c-.24-.05-.49.06-.63.26l-2.46-.53c-.42-.02-.74-.37-.72-.78,0,0,0,0,0-.01.07-1.27-.11-2.54-.52-3.75-.08-.23-.17-.44-.25-.65.16-.1.31-.19.45-.29.73.1,1.47.06,2.18-.11"/>
    </g>
  </g>
</svg>