<?xml version="1.0" encoding="UTF-8" standalone="no"?>
<svg id="Ebene_1" width="65.730003" height="58" viewBox="0 0 65.730003 58" version="1.1" sodipodi:docname="k_app_bewertung_links_1.svg" inkscape:version="1.3.2 (091e20e, 2023-11-25)" xmlns:inkscape="http://www.inkscape.org/namespaces/inkscape" xmlns:sodipodi="http://sodipodi.sourceforge.net/DTD/sodipodi-0.dtd" xmlns="http://www.w3.org/2000/svg" xmlns:svg="http://www.w3.org/2000/svg">
  <sodipodi:namedview id="namedview8" pagecolor="#ffffff" bordercolor="#666666" borderopacity="1.0" inkscape:showpageshadow="2" inkscape:pageopacity="0.0" inkscape:pagecheckerboard="0" inkscape:deskcolor="#d1d1d1" inkscape:zoom="11.068966" inkscape:cx="32.839564" inkscape:cy="29" inkscape:window-width="1440" inkscape:window-height="855" inkscape:window-x="0" inkscape:window-y="23" inkscape:window-maximized="1" inkscape:current-layer="Ebene_1" />
  <defs id="defs1">
    <style id="style1">.cls-1{fill:#e9f1f4;}.cls-1,.cls-2,.cls-3,.cls-4,.cls-5,.cls-6{stroke-width:0px;}.cls-2{fill:none;}.cls-3{fill:#e6725a;}.cls-4{fill:#74a070;}.cls-7{opacity:.7;}.cls-5{fill:#88b2c2;}.cls-6{fill:#fff;}</style>
  </defs>
  <path class="cls-1" d="M 65.73,0 H 29 C 12.98,0 0,12.98 0,29 0,45.02 12.98,58 29,58 h 36.73 z" id="path1" />
  <path id="Pfad_3438" class="cls-6" d="m 52.48,28.97 c 0,11.11 -9.01,20.11 -20.12,20.11 -11.11,0 -20.11,-9.01 -20.11,-20.12 0,-11.11 9.01,-20.11 20.12,-20.11 11.11,0 20.12,9.01 20.12,20.12 v 0" />
  <path class="cls-3" d="m 32.36,50.58 v 0 c -11.92,0 -21.61,-9.7 -21.61,-21.62 0,-11.92 9.7,-21.61 21.62,-21.61 11.92,0 21.62,9.7 21.62,21.62 v 0 c 0,5.78 -2.25,11.21 -6.33,15.29 -4.08,4.08 -9.51,6.33 -15.28,6.33 z m 0,-40.23 c -10.26,0 -18.61,8.35 -18.62,18.61 0,10.26 8.35,18.62 18.61,18.62 v 0 c 4.97,0 9.64,-1.94 13.16,-5.45 3.52,-3.52 5.45,-8.19 5.46,-13.16 v 0 C 50.97,18.7 42.62,10.35 32.35,10.35 Z" id="path3" />
  <path class="cls-3" d="m 33.77,28.96 6.57,-6.57 c 0.39,-0.39 0.39,-1.02 0,-1.41 -0.39,-0.39 -1.02,-0.39 -1.41,0 l -6.57,6.57 -6.57,-6.57 c -0.39,-0.39 -1.02,-0.39 -1.41,0 -0.39,0.39 -0.39,1.02 0,1.41 l 6.57,6.57 -6.57,6.57 c -0.39,0.39 -0.39,1.02 0,1.41 0.2,0.2 0.45,0.29 0.71,0.29 0.26,0 0.51,-0.1 0.71,-0.29 l 6.57,-6.57 6.57,6.57 c 0.2,0.2 0.45,0.29 0.71,0.29 0.26,0 0.51,-0.1 0.71,-0.29 0.39,-0.39 0.39,-1.02 0,-1.41 l -6.57,-6.57 z" id="path4" />
  <path class="cls-5" d="m 60.56,47.59 h -9.63 l 4.51,-4.51 c 0.2,-0.2 0.2,-0.51 0,-0.71 -0.2,-0.2 -0.51,-0.2 -0.71,0 l -5.37,5.37 c 0,0 -0.08,0.1 -0.11,0.16 -0.03,0.06 -0.04,0.13 -0.04,0.19 0,0.06 0.01,0.13 0.04,0.19 0.03,0.06 0.06,0.12 0.11,0.16 l 5.27,5.27 c 0.1,0.1 0.23,0.15 0.35,0.15 0.12,0 0.26,-0.05 0.35,-0.15 0.2,-0.2 0.2,-0.51 0,-0.71 l -4.42,-4.42 h 9.63 c 0.28,0 0.5,-0.22 0.5,-0.5 0,-0.28 -0.22,-0.5 -0.5,-0.5 z" id="path7" style="opacity:0.7" />
</svg>
