<?xml version="1.0" encoding="UTF-8"?><svg id="Ebene_1" xmlns="http://www.w3.org/2000/svg" viewBox="0 0 30.59 15.65"><defs><style>.cls-1{fill:#adccd8;stroke-width:0px;}</style></defs><g id="Gruppe_252"><path id="Pfad_107" class="cls-1" d="m.02,6.02c-.16,1.5.66,2.93,2.04,3.54-.07.16-.1.34-.1.51,0,.84.68,1.53,1.52,1.53,0,0,0,0,0,0h.1l-.75,1.43c-.31.57-.27,1.27.1,1.8.33.51.89.82,1.5.82h.14l.61-.03c1.12-.09,2-.98,2.08-2.1l.11-1.91h11.2l.1,1.9c.06,1.13.95,2.03,2.08,2.11l.61.03h.14c.61,0,1.17-.31,1.5-.82.37-.53.41-1.23.1-1.8l-.75-1.46c.79-.06,1.39-.71,1.4-1.5,1.17-.16,2.29-.59,3.27-1.26,1.07-.87,1.79-2.11,2.01-3.47h1.05c.28,0,.5-.23.51-.51.07-2.05-1.53-3.77-3.57-3.84-.08,0-.16,0-.25,0-1.97-.14-3.67,1.35-3.8,3.31,0,.11,0,.22,0,.33,0,.44-.07.95-1.09,1.22C20.24,2.36,16.77.08,12.92,0,8.62.1,4.86,2.89,3.52,6.98c-.98-.22-1.91-.64-2.72-1.23-.13-.11-.32-.13-.48-.07-.15.06-.26.19-.31.34Z"/></g></svg>