<?xml version="1.0" encoding="UTF-8"?><svg id="Ebene_1" xmlns="http://www.w3.org/2000/svg" width="134.5" height="58" viewBox="0 0 134.5 58"><defs><style>.cls-1{fill:none;stroke:#89b3c3;stroke-linecap:round;stroke-linejoin:round;stroke-width:2.5px;}.cls-2{fill:#89b3c3;}.cls-2,.cls-3{stroke-width:0px;}.cls-3{fill:#eaf2f5;}</style></defs><g id="Rechteck_353"><path class="cls-3" d="m29,56.5c-15.16,0-27.5-12.34-27.5-27.5S13.84,1.5,29,1.5h76.5c15.16,0,27.5,12.34,27.5,27.5s-12.34,27.5-27.5,27.5H29Z"/><path class="cls-2" d="m105.5,3c14.34,0,26,11.66,26,26s-11.66,26-26,26H29c-14.34,0-26-11.66-26-26S14.66,3,29,3h76.5m0-3H29C12.98,0,0,12.98,0,29s12.98,29,29,29h76.5c16.02,0,29-12.98,29-29S121.51,0,105.5,0h0Z"/></g><polyline class="cls-1" points="92.74 18.38 103.56 29.2 92.54 40.22"/><line class="cls-1" x1="103.56" y1="29.2" x2="32.74" y2="29.2"/></svg>