<?xml version="1.0" encoding="UTF-8"?><svg id="Ebene_1" xmlns="http://www.w3.org/2000/svg" width="89.55" height="89.55" viewBox="0 0 89.55 89.55"><defs><style>.cls-1{fill:none;stroke:#89b3c3;stroke-linecap:round;stroke-linejoin:round;stroke-width:3px;}.cls-2{fill:#89b3c3;}.cls-2,.cls-3{stroke-width:0px;}.cls-3{fill:#fff;}</style></defs><g id="Gruppe_1834"><g id="Gruppe_1833-2"><path id="Pfad_3453" class="cls-3" d="m88.05,44.77c0,23.9-19.37,43.27-43.27,43.27S1.5,68.67,1.5,44.77,20.87,1.5,44.77,1.5c23.9,0,43.27,19.37,43.27,43.27h0"/><circle id="Ellipse_305" class="cls-1" cx="44.77" cy="44.77" r="43.27"/></g></g><g id="Gruppe_1836"><g id="Gruppe_1835"><path id="Pfad_3454" class="cls-2" d="m65.46,41.88c1.6.92,2.14,2.97,1.22,4.56-.29.51-.71.93-1.22,1.22l-14.9,8.6-14.9,8.6c-1.6.92-3.64.37-4.56-1.23-.29-.51-.45-1.08-.45-1.67V27.56c0-1.85,1.5-3.34,3.34-3.34.59,0,1.16.15,1.67.45l14.9,8.6,14.9,8.61Z"/></g></g></svg>