<?xml version="1.0" encoding="UTF-8"?><svg id="Ebene_1" xmlns="http://www.w3.org/2000/svg" width="45.29" height="59.96" viewBox="0 0 45.29 59.96"><defs><style>.cls-1{fill:none;stroke:#fff;}.cls-1,.cls-2{stroke-linecap:round;stroke-linejoin:round;}.cls-2{fill:#fff;stroke:#5883a5;stroke-width:2px;}.cls-3{fill:#5883a5;stroke-width:0px;}</style></defs><circle class="cls-2" cx="22.64" cy="22.64" r="21.64"/><g id="Gruppe_787"><g id="Gruppe_786"><path id="Pfad_2337" class="cls-3" d="m33.24,49.36c0,5.85-4.75,10.6-10.6,10.6s-10.6-4.75-10.6-10.6c0-5.85,4.75-10.6,10.6-10.6h0c5.85,0,10.6,4.75,10.6,10.6"/><path id="Pfad_2338" class="cls-1" d="m17.49,52.43c1.27,2.82,4.59,4.08,7.41,2.81,2.82-1.27,4.08-4.59,2.81-7.41-.91-2.01-2.91-3.3-5.12-3.3-1.38,0-2.71.5-3.74,1.42"/><path id="Pfad_2339" class="cls-1" d="m22.28,47.26l-3.42-1.3,1.33-3.45"/></g></g><path class="cls-3" d="m33.58,23.78c1.99-.47,3.61-1.68,3.42-3.2-.17-1.39-2.24-3.97-5.14-3.79-.03-.1-.06-.2-.09-.3-.14-.43-.61-1.78-2.32-3.58-.83-.87-2.24-2.17-4.39-3.29-.17-.09-.36.07-.31.25.24.85.88,2.72,2.22,4.46-.13-.06-.26-.12-.4-.19-1.11-.5-2.94-1.18-5.39-1.41-.16-.01-.26.16-.16.29.55.71,2.03,2.46,4.24,3.62,1.45.76,2.93,1.12,4.03,1.29-.61.65-.97,1.51-.97,2.43h-.53c-.39-.24-.82-.49-1.27-.72-2.59-1.35-4.96-1.72-6.35-1.84,0,0,0,0,0,.01-.79-.07-1.62-.02-2.47.18-.76.18-1.46.47-2.08.83-.02-.61-.3-1.17-.8-1.48-.88-.55-2.13-.14-2.78.91-.66,1.05-.48,2.35.4,2.9.24.15.51.23.78.24-.34.79-.43,1.64-.2,2.46.03.1.06.21.1.31-.64.27-1.54.45-2.83.25-.18.07-.33.2-.41.38l-2.97,4.92c-.17.36-.02.8.35.97l.44.21c.12.06.26,0,.32-.11l2.03-2.93c.17-.37.61-.52.98-.35.84.41,2.79.9,4.28.99.92.06,1.73-.03,2.36-.16.08-.02.16-.05.23-.09.87-.57,1.64-1,2.22-1.31,1.93-1.02,2.51-1.04,2.95-.95.37.08.39.18,1.29.69,1.52.86,1.97.83,2.75,1.34.61.4,1.4,1.08,2.11,2.3.13.14.31.23.51.24l6.09.93c.4.02.74-.3.76-.7l.02-.49c.06-.32-.14-.63-.46-.69l-.68-.13c-.24-.05-.48.06-.61.25l-2.38-.51c-.41-.02-.72-.36-.7-.77.05-.94-.02-2.22-.51-3.62-.08-.22-.16-.43-.24-.62.15-.09.3-.19.44-.28.68.09,1.4.06,2.11-.11Z"/></svg>