<?xml version="1.0" encoding="UTF-8" standalone="no"?>
<svg id="Ebene_1" width="79.695" height="68.711998" viewBox="0 0 79.695 68.712" version="1.1" sodipodi:docname="k_app_ohr_1.svg" inkscape:version="1.3.2 (091e20e, 2023-11-25)" xmlns:inkscape="http://www.inkscape.org/namespaces/inkscape" xmlns:sodipodi="http://sodipodi.sourceforge.net/DTD/sodipodi-0.dtd" xmlns="http://www.w3.org/2000/svg" xmlns:svg="http://www.w3.org/2000/svg">
  <sodipodi:namedview id="namedview12" pagecolor="#ffffff" bordercolor="#666666" borderopacity="1.0" inkscape:showpageshadow="2" inkscape:pageopacity="0.0" inkscape:pagecheckerboard="0" inkscape:deskcolor="#d1d1d1" inkscape:zoom="9.3433464" inkscape:cx="39.814429" inkscape:cy="34.355999" inkscape:window-width="1440" inkscape:window-height="855" inkscape:window-x="0" inkscape:window-y="23" inkscape:window-maximized="1" inkscape:current-layer="Ebene_1" />
  <defs id="defs1">
    <style id="style1">.cls-1{fill:#d6e6eb;}.cls-1,.cls-2{stroke-width:0px;}.cls-2{fill:#fff;}</style>
  </defs>
  <path class="cls-1" d="m 61.54,30.38 c 0,-4.21 1.63,-8.15 4.6,-11.12 0.59,-0.58 0.59,-1.54 0,-2.12 -0.59,-0.58 -1.54,-0.59 -2.12,0 -3.53,3.53 -5.48,8.23 -5.48,13.24 0,5.01 1.95,9.71 5.48,13.24 0.29,0.29 0.68,0.44 1.06,0.44 0.38,0 0.77,-0.15 1.06,-0.44 0.58,-0.59 0.58,-1.54 0,-2.12 -2.97,-2.96 -4.6,-6.91 -4.6,-11.12 z" id="path1" />
  <path class="cls-1" d="m 72.09,20.02 c -0.59,-0.59 -1.54,-0.58 -2.12,0 -2.77,2.76 -4.29,6.44 -4.29,10.36 0,3.92 1.52,7.6 4.29,10.36 0.29,0.29 0.68,0.44 1.06,0.44 0.38,0 0.77,-0.15 1.06,-0.44 0.58,-0.59 0.58,-1.54 0,-2.12 -2.2,-2.2 -3.41,-5.12 -3.41,-8.24 0,-3.12 1.21,-6.04 3.41,-8.24 0.59,-0.59 0.59,-1.54 0,-2.12 z" id="path2" />
  <path class="cls-1" d="m 75.81,30.39 c 0,-2.02 0.79,-3.93 2.22,-5.36 0.59,-0.59 0.59,-1.54 0,-2.12 -0.59,-0.59 -1.54,-0.58 -2.12,0 -2,2 -3.1,4.66 -3.1,7.48 0,2.82 1.1,5.48 3.1,7.48 0.29,0.29 0.68,0.44 1.06,0.44 0.38,0 0.77,-0.15 1.06,-0.44 0.58,-0.59 0.58,-1.54 0,-2.12 -1.43,-1.43 -2.22,-3.33 -2.22,-5.36 z" id="path3" />
  <path class="cls-1" d="M 54.61,24.37 C 54.43,24.09 54.2,23.86 53.95,23.65 52.37,10.15 41.51,0 27.92,0 c -0.05,0 -0.1,0 -0.14,0 -0.07,0 -0.13,-0.01 -0.2,-0.01 -0.2,0 -0.4,0.03 -0.6,0.03 -0.31,0 -0.61,0.03 -0.92,0.05 C 25.78,0.09 25.5,0.11 25.22,0.13 12.65,1.39 2.6,11.28 1.07,23.76 0.87,23.94 0.69,24.14 0.54,24.37 0.19,24.92 0,25.55 0,26.21 c 0,0.04 0,0.08 0,0.12 l 0.84,7.97 c 0.03,1.73 1.36,3.16 3.11,3.34 0.08,0 0.17,0 0.25,0 l 3.27,10.33 c 0.04,1.53 0.73,2.97 1.9,3.97 1.21,1.02 2.79,1.46 4.34,1.2 1.71,-0.28 2.96,-0.55 4.07,-0.78 0.04,0 0.07,-0.02 0.11,-0.02 2.88,1.58 6.13,2.43 9.67,2.43 3.54,0 6.94,-0.89 9.87,-2.54 0.2,0.04 0.4,0.08 0.61,0.13 1.11,0.23 2.36,0.49 4.07,0.78 0.29,0.05 0.59,0.07 0.88,0.07 1.26,0 2.49,-0.44 3.46,-1.27 1.18,-1 1.87,-2.45 1.9,-3.99 l 2.88,-10.31 c 1.73,-0.2 3.03,-1.62 3.06,-3.33 l 0.84,-7.97 c 0,0 0,-0.08 0,-0.12 0,-0.66 -0.19,-1.29 -0.54,-1.84 z" id="path4" />
  <path class="cls-2" d="m 52.72,25.6 c -1.503281,-1.474708 -1.877218,0.835977 -2.66875,1.58875 -2.534011,0.476173 -1.463557,-3.1062 -2.082385,-4.616863 C 47.6039,20.860588 44.728051,22.630866 43.272188,22.364219 35.143016,23.316149 26.924885,23.51431 18.76,22.94 18.52,19.77 18.28,16.6 18.04,13.43 16.3,16.416667 14.56,19.403333 12.82,22.39 11.089337,22.56638 8.2065846,21.051091 7.2450781,22.201113 6.5192329,23.82067 7.6929652,26.957952 5.4479688,27.315 4.1773961,26.985316 4.247522,23.908317 2.43,25.6 2.0643745,26.751727 2.5568768,28.01368 2.5748243,29.213348 2.776818,31.011784 2.934273,32.819983 3.16,34.6125 c 0.6556555,1.453506 2.1015256,0.405263 3.1357128,0.12396 1.9282822,-1.178446 2.58735,1.306333 2.8829156,2.790843 C 11.205337,43.979291 15.928418,50.038479 22.680957,51.858164 29.209352,53.774727 36.692852,51.56828 41.083185,46.35831 43.853332,43.218476 45.621078,39.304124 46.64,35.27 c 0.596276,-1.550794 2.211719,-0.444722 3.278531,-0.147971 1.289685,0.854675 2.388841,-0.441657 2.211184,-1.755523 C 52.379834,30.971006 52.629928,28.575504 52.88,26.18 53.105714,25.99183 52.540459,25.741982 52.72,25.6 Z M 27.57,42.1 c 2.466434,0.04734 4.787409,-1.038989 6.721094,-2.486406 3.126946,0.678094 -0.777239,3.304671 -2.31294,3.631897 -4.0622,1.667374 -9.136817,0.863267 -12.304873,-2.212991 -0.125273,-3.01382 2.878494,-0.07179 4.20523,0.346565 C 25.048447,41.850658 26.308048,42.101792 27.57,42.1 Z M 18.23,32 c -1.743354,-1.910036 0.121221,-5.248028 2.635603,-4.854436 2.264733,0.131684 3.570984,3.14097 2.024397,4.854436 -1.546564,0 -3.146804,0 -4.66,0 z m 18.69,0 c -1.556667,0 -3.113333,0 -4.67,0 -1.743354,-1.910036 0.121221,-5.248028 2.635603,-4.854436 C 37.18049,27.302659 38.433751,30.267736 36.92,32 Z" id="path6" style="display:inline" />
  <path class="cls-1" d="m 33.94,39.79 c -0.84,0.7 -3.12,2.3 -6.37,2.3 h -0.06 c -3.21,-0.02 -5.48,-1.62 -6.31,-2.3 -0.42,-0.35 -1.06,-0.29 -1.41,0.13 -0.35,0.42 -0.29,1.06 0.13,1.41 1.23,1.02 3.86,2.74 7.58,2.76 h 0.07 c 3.9,0 6.64,-1.93 7.65,-2.76 0.42,-0.35 0.48,-0.98 0.13,-1.41 C 35,39.5 34.37,39.44 33.94,39.79 Z" id="path7" />
  <path class="cls-1" d="m 34.58,27.13 c -1.66,0 -3,1.35 -3,3 0,0.71 0.26,1.35 0.67,1.87 h 4.67 c 0.41,-0.51 0.67,-1.16 0.67,-1.87 0,-1.66 -1.35,-3 -3,-3 z" id="path8" />
  <path class="cls-1" d="m 23.57,30.13 c 0,-1.66 -1.35,-3 -3,-3 -1.65,0 -3,1.35 -3,3 0,0.71 0.26,1.35 0.67,1.87 h 4.67 c 0.41,-0.51 0.67,-1.16 0.67,-1.87 z" id="path9" />
</svg>
