<?xml version="1.0" encoding="UTF-8"?><svg id="Ebene_1" xmlns="http://www.w3.org/2000/svg" viewBox="0 0 95.3 66.45"><defs><style>.cls-1{fill:#fff;}.cls-2{fill:#e72f71;}.cls-3{fill:#7bb8d0;}</style></defs><path class="cls-1" d="m95.3,33.84c0-8.44-6.84-15.29-15.29-15.29-.16,0-.32.02-.49.02-.41-5.62-5.09-10.06-10.82-10.06-2.93,0-5.58,1.17-7.54,3.05C57.82,4.72,50.81,0,42.68,0s-15.64,5.06-18.84,12.29c-.72-.07-1.45-.11-2.19-.11C9.69,12.18,0,21.88,0,33.84s9.69,21.65,21.65,21.65c1.85,0,3.65-.23,5.36-.67,1.1,1.76,3.04,2.94,5.27,2.94,1.95,0,3.68-.9,4.82-2.3,2.87,1.68,6.2,2.66,9.77,2.66,4.87,0,9.32-1.82,12.72-4.79,2.6,1.3,5.53,2.05,8.63,2.05,5.75,0,10.9-2.52,14.45-6.51,7.17-1.26,12.63-7.51,12.63-15.04Z"/><path class="cls-2" d="m18.95,33.13l5.46-8.55c.13-.2.14-.45.03-.65-.11-.2-.32-.32-.55-.32h-2.06c-.62,0-1.2.32-1.53.84l-5.15,8.35v-8.14c0-.58-.48-1.05-1.06-1.05h-1.78c-.59,0-1.06.47-1.06,1.05v18.9c0,.58.48,1.05,1.06,1.05h1.78c.59,0,1.06-.47,1.06-1.05v-9.74l5.39,9.92c.3.53.89.87,1.5.87h2.24c.25,0,.47-.13.6-.34.12-.21.12-.45,0-.65l-5.92-10.49Z"/><path class="cls-2" d="m37.3,45.93h-5.68v-16.58c0-.58-.48-1.05-1.06-1.05h-1.75c-.59,0-1.06.47-1.06,1.05v18.9c0,.58.48,1.05,1.06,1.05h8.5c.59,0,1.06-.47,1.06-1.05v-1.26c0-.58-.48-1.06-1.06-1.06Z"/><path class="cls-2" d="m45.36,20.17c-.17-.59-.69-.99-1.3-.99h-2c-.62,0-1.17.41-1.33.99l-5.68,18.96c-.08.25-.04.51.11.72.16.22.4.34.68.34h1.84c.6,0,1.14-.41,1.3-.99l1.12-4.14h5.49l1.07,4.14c.17.57.72.99,1.3.99h2.06c.27,0,.51-.12.67-.33.16-.21.21-.47.14-.73l-5.47-18.96Zm-.55,11.79h-3.85l.92-3.38c.61-2.18.87-3.48,1.06-4.6.18,1.11.42,2.38,1,4.6l.87,3.38Z"/><path class="cls-2" d="m65.72,42.9c-.66-1.99-1.4-3.1-2.44-3.6,2.51-.8,3.59-2.46,3.59-5.48,0-3.96-2.37-5.97-7.05-5.97h-5.23c-.59,0-1.06.47-1.06,1.05v18.9c0,.58.48,1.05,1.06,1.05h1.78c.59,0,1.06-.47,1.06-1.05v-7.62h1.33c1.39,0,2.08.38,2.81,2.7l1.57,4.98c.16.58.71.99,1.33.99h2.09c.26,0,.5-.13.65-.34.15-.21.18-.46.1-.69l-1.6-4.92Zm-2.94-8.93c0,2.31-.79,3.17-2.9,3.17h-2.45v-5.99h2.42c2.14,0,2.93.76,2.93,2.81Z"/><path class="cls-2" d="m77.26,22.94c-5.42,0-8.17,3.69-8.17,10.96s2.68,10.83,8.2,10.83,8.11-3.57,8.11-10.92-2.74-10.87-8.14-10.87Zm0,3.19c2.86,0,3.93,2.1,3.93,7.73s-1.06,7.71-3.93,7.71-3.96-2.11-3.96-7.79,1.07-7.64,3.96-7.64Z"/><path class="cls-3" d="m82.25,61.41l-67.77,5.03c-.46.03-.84-.33-.84-.82v-8.94c0-.49.38-.91.84-.95l67.77-5.03c.46-.03.84.33.84.82v8.94c0,.49-.38.91-.84.95Z"/><path class="cls-1" d="m17.65,64.03c-.13,0-.24-.09-.24-.23v-5.96c0-.13.11-.25.24-.26l1.67-.12c1.37-.1,1.87.58,1.87,1.59,0,.67-.17,1.05-.79,1.36.63.13,1.08.59,1.08,1.54,0,1.28-.85,1.87-2.05,1.95l-1.77.12Zm.61-3.76l1.07-.08c.76-.05.93-.38.93-1.06s-.22-1-.98-.95l-1.03.07v2.01Zm0,2.99l1.06-.07c.9-.06,1.23-.43,1.23-1.22s-.29-1.11-1.19-1.05l-1.09.08v2.26Z"/><path class="cls-1" d="m23.4,63.62c-.13,0-.25-.09-.25-.23v-5.96c0-.13.11-.25.25-.26l.38-.03c.13,0,.25.09.25.23v5.45l1.97-.14c.13,0,.24.09.24.23v.26c0,.13-.11.25-.24.26l-2.59.18Z"/><path class="cls-1" d="m27.78,63.31c-.13,0-.24-.09-.24-.22v-.02c0-.12.1-.24.23-.27l.43-.08v-5.34l-.43-.03c-.13,0-.23-.11-.23-.24v-.02c0-.12.1-.23.23-.24l1.73-.12c.12,0,.23.09.23.21v.02c0,.13-.09.24-.23.27l-.43.09v5.34l.43.02c.12,0,.23.12.23.24v.02c0,.13-.1.24-.23.25l-1.72.12Z"/><path class="cls-1" d="m32.75,62.96c-.13,0-.25-.1-.25-.23v-5.45l-1.29.09c-.13,0-.25-.1-.25-.23v-.26c0-.13.11-.25.25-.26l3.45-.24c.13,0,.25.1.25.23v.26c0,.13-.11.25-.25.26l-1.29.09v5.45c0,.13-.11.25-.25.26l-.38.03Z"/><path class="cls-1" d="m36.19,62.72c-.13,0-.25-.1-.25-.23v-.17c0-.15.05-.33.11-.47l2.64-5.01-2.32.16c-.13,0-.25-.09-.25-.23v-.26c0-.13.11-.25.25-.26l3.09-.22c.13,0,.25.09.25.23v.2c0,.15-.05.33-.11.47l-2.62,4.98,2.48-.17c.13,0,.25.1.25.23v.26c0,.13-.11.25-.25.26l-3.27.23Z"/><path class="cls-1" d="m41.61,62.33c-.13,0-.25-.1-.25-.23v-5.96c0-.13.11-.25.25-.26l.38-.03c.13,0,.25.1.25.23v5.45l1.97-.14c.13,0,.24.09.24.23v.26c0,.13-.11.25-.24.26l-2.59.18Z"/><path class="cls-1" d="m46.32,62c-.13,0-.25-.09-.25-.23v-5.96c0-.13.11-.25.25-.26l2.84-.2c.13,0,.25.09.25.23v.25c0,.13-.11.25-.25.26l-2.21.16v1.96l1.74-.12c.13,0,.24.09.24.23v.25c0,.13-.11.25-.24.26l-1.74.12v2.25l2.34-.17c.13,0,.24.1.24.23v.26c0,.13-.11.25-.24.26l-2.96.21Z"/><path class="cls-1" d="m52.69,61.67c-.67.05-1.3-.11-1.75-.38-.11-.07-.14-.21-.08-.34l.12-.22c.07-.13.23-.17.33-.1.42.25.76.35,1.31.31.87-.06,1.19-.48,1.19-1.14,0-.79-.44-.98-1.23-1.22-1.07-.34-1.56-.73-1.56-1.81s.7-1.71,1.83-1.79c.59-.04,1,.04,1.36.22.11.06.16.2.09.33l-.12.25c-.07.12-.22.17-.33.12-.29-.15-.57-.21-.95-.18-.62.04-1.02.32-1.02.97s.25.82,1.04,1.07c1.01.31,1.8.65,1.8,1.94,0,.95-.48,1.88-2.02,1.99Z"/><path class="cls-1" d="m56.72,61.26c-.13,0-.25-.09-.25-.23v-5.96c0-.13.11-.25.25-.26l2.84-.2c.13,0,.25.09.25.23v.25c0,.13-.11.25-.25.26l-2.21.16v1.96l1.74-.12c.13,0,.24.1.24.23v.25c0,.13-.11.25-.24.26l-1.74.12v2.25l2.34-.17c.13,0,.24.1.24.23v.26c0,.13-.11.25-.24.26l-2.96.21Z"/><path class="cls-1" d="m61.47,58.14c-.13,0-.24-.09-.24-.23v-.37c0-.13.11-.25.24-.26l1.33-.09c.13,0,.24.09.24.23v.37c0,.13-.11.25-.24.26l-1.33.09Z"/><path class="cls-1" d="m64.31,60.73c-.12,0-.21-.1-.17-.22l1.86-6.12c.05-.14.18-.25.32-.26l.47-.03c.14,0,.27.07.31.21l1.82,5.86c.04.12-.06.24-.18.25l-.46.03c-.14.01-.27-.07-.31-.21l-.46-1.61-2.01.14-.48,1.67c-.04.14-.17.25-.31.26l-.4.03Zm1.73-3.84l-.33,1.14,1.58-.11-.31-1.09c-.28-.98-.36-1.34-.45-1.83h-.02c-.09.52-.18.89-.47,1.9Z"/><path class="cls-1" d="m70.68,60.28c-.13,0-.24-.09-.24-.23v-5.96c0-.13.11-.25.24-.26l1.66-.12c1.32-.09,1.98.55,1.98,1.79s-.58,2.03-1.88,2.12l-1.14.08v2.28c0,.13-.11.25-.25.26l-.38.03Zm.62-3.3l1.03-.07c.73-.05,1.07-.38,1.07-1.29s-.32-1.21-1.11-1.16l-.99.07v2.45Z"/><path class="cls-1" d="m76.19,59.89c-.13,0-.25-.09-.25-.23v-5.96c0-.13.11-.25.25-.26l1.66-.12c1.32-.09,1.98.55,1.98,1.79s-.58,2.03-1.88,2.12l-1.14.08v2.28c0,.13-.11.25-.25.26l-.38.03Zm.62-3.3l1.03-.07c.73-.05,1.07-.38,1.07-1.29s-.32-1.21-1.11-1.16l-.99.07v2.45Z"/></svg>