<?xml version="1.0" encoding="UTF-8" standalone="no"?>
<svg viewBox="0 0 80 80" width="80" height="80" version="1.1" id="svg1" sodipodi:docname="magic-spell.svg" inkscape:version="1.3.2 (091e20e, 2023-11-25)" xmlns:inkscape="http://www.inkscape.org/namespaces/inkscape" xmlns:sodipodi="http://sodipodi.sourceforge.net/DTD/sodipodi-0.dtd" xmlns="http://www.w3.org/2000/svg" xmlns:svg="http://www.w3.org/2000/svg">
  <defs id="defs1" />
  <sodipodi:namedview id="namedview1" pagecolor="#ffffff" bordercolor="#666666" borderopacity="1.0" inkscape:showpageshadow="2" inkscape:pageopacity="0.0" inkscape:pagecheckerboard="0" inkscape:deskcolor="#d1d1d1" inkscape:zoom="5.3353516" inkscape:cx="40.016107" inkscape:cy="39.922393" inkscape:window-width="1440" inkscape:window-height="855" inkscape:window-x="0" inkscape:window-y="23" inkscape:window-maximized="1" inkscape:current-layer="svg1" />
  <circle stroke="blue" class="circle" cx="40" cy="40" r="38" id="circle1" style="fill:#eaf2f5;fill-opacity:1;stroke:none" />
  <polygon class="cls-24" points="467.42,358.55 473.97,360 477.37,354.22 478.01,360.9 484.56,362.35 478.41,365.02 479.06,371.7 474.61,366.68 468.47,369.35 471.87,363.57 " id="polygon3" style="isolation:isolate;fill:#fedddd;fill-opacity:1;stroke-width:0px" transform="matrix(0.47459814,0,0,0.47459814,-154.79195,-165.04476)" />
  <polygon class="cls-24" points="473.97,360 477.37,354.22 478.01,360.9 484.56,362.35 478.41,365.02 479.06,371.7 474.61,366.68 468.47,369.35 471.87,363.57 467.42,358.55 " id="polygon4" style="isolation:isolate;fill:#fedddd;fill-opacity:1;stroke-width:0px" transform="matrix(0.47459814,0,0,0.47459814,-216.26869,-156.61045)" />
  <polygon class="cls-24" points="477.37,354.22 478.01,360.9 484.56,362.35 478.41,365.02 479.06,371.7 474.61,366.68 468.47,369.35 471.87,363.57 467.42,358.55 473.97,360 " id="polygon5" style="isolation:isolate;fill:#fedddd;fill-opacity:1;stroke-width:0px" transform="matrix(0.47459814,0,0,0.47459814,-153.47995,-115.18862)" />
  <polygon class="cls-24" points="478.01,360.9 484.56,362.35 478.41,365.02 479.06,371.7 474.61,366.68 468.47,369.35 471.87,363.57 467.42,358.55 473.97,360 477.37,354.22 " id="polygon6" style="isolation:isolate;fill:#fedddd;fill-opacity:1;stroke-width:0px" transform="matrix(0.47459814,0,0,0.47459814,-212.52011,-99.444578)" />
</svg>
