<?xml version="1.0" encoding="UTF-8" standalone="no"?>
<!-- Created with Inkscape (http://www.inkscape.org/) -->

<svg version="1.1" id="svg1" width="150" height="150" viewBox="-10 -24 149 149" sodipodi:docname="klaro_logo.svg" inkscape:version="1.3.1 (91b66b0, 2023-11-16)" inkscape:export-filename="klaro_logo.png" inkscape:export-xdpi="655.35999" inkscape:export-ydpi="655.35999" xmlns:inkscape="http://www.inkscape.org/namespaces/inkscape" xmlns:sodipodi="http://sodipodi.sourceforge.net/DTD/sodipodi-0.dtd" xmlns="http://www.w3.org/2000/svg" xmlns:svg="http://www.w3.org/2000/svg">
  <sodipodi:namedview id="namedview1" pagecolor="#ffffff" bordercolor="#666666" borderopacity="1.0" inkscape:showpageshadow="2" inkscape:pageopacity="0.0" inkscape:pagecheckerboard="0" inkscape:deskcolor="#d1d1d1" inkscape:zoom="7.8408711" inkscape:cx="74.035141" inkscape:cy="68.80613" inkscape:window-width="2000" inkscape:window-height="1284" inkscape:window-x="0" inkscape:window-y="23" inkscape:window-maximized="0" inkscape:current-layer="layer-MC0" />
  <defs id="defs1">
    <clipPath clipPathUnits="userSpaceOnUse" id="clipPath2">
      <path d="M 0,141.732 H 141.732 V 0 H 0 Z" transform="translate(-118.51611,-70.247002)" id="path2" />
    </clipPath>
    <clipPath clipPathUnits="userSpaceOnUse" id="clipPath4">
      <path d="M 0,141.732 H 141.732 V 0 H 0 Z" transform="translate(-42.166101,-70.957002)" id="path4" />
    </clipPath>
    <clipPath clipPathUnits="userSpaceOnUse" id="clipPath6">
      <path d="M 0,141.732 H 141.732 V 0 H 0 Z" transform="translate(-60.516101,-58.157004)" id="path6" />
    </clipPath>
    <clipPath clipPathUnits="userSpaceOnUse" id="clipPath8">
      <path d="M 0,141.732 H 141.732 V 0 H 0 Z" transform="translate(-68.026102,-72.127002)" id="path8" />
    </clipPath>
    <clipPath clipPathUnits="userSpaceOnUse" id="clipPath10">
      <path d="M 0,141.732 H 141.732 V 0 H 0 Z" transform="translate(-85.996105,-70.117002)" id="path10" />
    </clipPath>
    <clipPath clipPathUnits="userSpaceOnUse" id="clipPath12">
      <path d="M 0,141.732 H 141.732 V 0 H 0 Z" transform="translate(-100.47621,-77.957002)" id="path12" />
    </clipPath>
    <clipPath clipPathUnits="userSpaceOnUse" id="clipPath14">
      <path d="M 0,141.732 H 141.732 V 0 H 0 Z" transform="translate(-105.46611,-42.677004)" id="path14" />
    </clipPath>
    <clipPath clipPathUnits="userSpaceOnUse" id="clipPath16">
      <path d="M 0,141.732 H 141.732 V 0 H 0 Z" transform="translate(-41.476101,-40.827001)" id="path16" />
    </clipPath>
    <clipPath clipPathUnits="userSpaceOnUse" id="clipPath18">
      <path d="M 0,141.732 H 141.732 V 0 H 0 Z" transform="translate(-46.616101,-40.467001)" id="path18" />
    </clipPath>
    <clipPath clipPathUnits="userSpaceOnUse" id="clipPath20">
      <path d="M 0,141.732 H 141.732 V 0 H 0 Z" transform="translate(-50.996101,-40.776999)" id="path20" />
    </clipPath>
    <clipPath clipPathUnits="userSpaceOnUse" id="clipPath22">
      <path d="M 0,141.732 H 141.732 V 0 H 0 Z" transform="translate(-55.966102,-41.127001)" id="path22" />
    </clipPath>
    <clipPath clipPathUnits="userSpaceOnUse" id="clipPath24">
      <path d="M 0,141.732 H 141.732 V 0 H 0 Z" transform="translate(-59.406101,-41.367001)" id="path24" />
    </clipPath>
    <clipPath clipPathUnits="userSpaceOnUse" id="clipPath26">
      <path d="M 0,141.732 H 141.732 V 0 H 0 Z" transform="translate(-64.826102,-41.757001)" id="path26" />
    </clipPath>
    <clipPath clipPathUnits="userSpaceOnUse" id="clipPath28">
      <path d="M 0,141.732 H 141.732 V 0 H 0 Z" transform="translate(-69.536102,-42.087001)" id="path28" />
    </clipPath>
    <clipPath clipPathUnits="userSpaceOnUse" id="clipPath30">
      <path d="M 0,141.732 H 141.732 V 0 H 0 Z" transform="translate(-75.906099,-42.417001)" id="path30" />
    </clipPath>
    <clipPath clipPathUnits="userSpaceOnUse" id="clipPath32">
      <path d="M 0,141.732 H 141.732 V 0 H 0 Z" transform="translate(-79.936104,-42.827004)" id="path32" />
    </clipPath>
    <clipPath clipPathUnits="userSpaceOnUse" id="clipPath34">
      <path d="M 0,141.732 H 141.732 V 0 H 0 Z" transform="translate(-84.686102,-45.947004)" id="path34" />
    </clipPath>
    <clipPath clipPathUnits="userSpaceOnUse" id="clipPath36">
      <path d="M 0,141.732 H 141.732 V 0 H 0 Z" transform="translate(-89.2561,-47.196999)" id="path36" />
    </clipPath>
    <clipPath clipPathUnits="userSpaceOnUse" id="clipPath38">
      <path d="M 0,141.732 H 141.732 V 0 H 0 Z" transform="translate(-94.516105,-47.106999)" id="path38" />
    </clipPath>
    <clipPath clipPathUnits="userSpaceOnUse" id="clipPath40">
      <path d="M 0,141.732 H 141.732 V 0 H 0 Z" transform="translate(-100.02621,-47.496999)" id="path40" />
    </clipPath>
  </defs>
  <g id="layer-MC0" transform="translate(-30.954807,-50.193334)">
    <path id="path1" d="m 0,0 c 0,8.44 -6.84,15.29 -15.29,15.29 -0.16,0 -0.32,-0.02 -0.49,-0.02 -0.41,5.62 -5.09,10.06 -10.82,10.06 -2.93,0 -5.58,-1.17 -7.54,-3.05 -3.34,6.84 -10.35,11.56 -18.48,11.56 -8.13,0 -15.64,-5.06 -18.84,-12.29 -0.72,0.07 -1.45,0.11 -2.19,0.11 -11.96,0 -21.65,-9.7 -21.65,-21.66 0,-11.96 9.69,-21.65 21.65,-21.65 1.85,0 3.65,0.23 5.36,0.67 1.1,-1.76 3.04,-2.94 5.27,-2.94 1.95,0 3.68,0.9 4.82,2.3 2.87,-1.68 6.2,-2.66 9.77,-2.66 4.87,0 9.32,1.82 12.72,4.79 2.6,-1.3 5.53,-2.05 8.63,-2.05 5.75,0 10.9,2.52 14.45,6.51 C -5.46,-13.77 0,-7.52 0,0.01 Z" style="fill:#f1f6dd;fill-opacity:1;fill-rule:nonzero;stroke:none" transform="matrix(1.3333333,0,0,-1.3333333,158.02147,95.313333)" clip-path="url(#clipPath2)" />
    <path id="path3" d="M 0,0 5.46,8.55 C 5.59,8.75 5.6,9 5.49,9.2 5.38,9.4 5.17,9.52 4.94,9.52 H 2.88 C 2.26,9.52 1.68,9.2 1.35,8.68 L -3.8,0.33 v 8.14 c 0,0.58 -0.48,1.05 -1.06,1.05 H -6.64 C -7.23,9.52 -7.7,9.05 -7.7,8.47 v -18.9 c 0,-0.58 0.48,-1.05 1.06,-1.05 h 1.78 c 0.59,0 1.06,0.47 1.06,1.05 v 9.74 l 5.39,-9.92 c 0.3,-0.53 0.89,-0.87 1.5,-0.87 h 2.24 c 0.25,0 0.47,0.13 0.6,0.34 0.12,0.21 0.12,0.45 0,0.65 L 0.01,0 Z" style="fill:#ee2078;fill-opacity:1;fill-rule:nonzero;stroke:none" transform="matrix(1.3333333,0,0,-1.3333333,56.221467,94.366667)" clip-path="url(#clipPath4)" />
    <path id="path5" d="m 0,0 h -5.68 v 16.58 c 0,0.58 -0.48,1.05 -1.06,1.05 h -1.75 c -0.59,0 -1.06,-0.47 -1.06,-1.05 v -18.9 c 0,-0.58 0.48,-1.05 1.06,-1.05 h 8.5 c 0.59,0 1.06,0.47 1.06,1.05 v 1.26 C 1.07,-0.48 0.59,0 0.01,0 Z" style="fill:#ee2078;fill-opacity:1;fill-rule:nonzero;stroke:none" transform="matrix(1.3333333,0,0,-1.3333333,80.688133,111.43333)" clip-path="url(#clipPath6)" />
    <path id="path7" d="m 0,0 h -3.85 l 0.92,3.38 c 0.61,2.18 0.87,3.48 1.06,4.6 0.18,-1.11 0.42,-2.38 1,-4.6 z m 0.55,11.79 c -0.17,0.59 -0.69,0.99 -1.3,0.99 h -2 c -0.62,0 -1.17,-0.41 -1.33,-0.99 L -9.76,-7.17 c -0.08,-0.25 -0.04,-0.51 0.11,-0.72 0.16,-0.22 0.4,-0.34 0.68,-0.34 h 1.84 c 0.6,0 1.14,0.41 1.3,0.99 l 1.12,4.14 h 5.49 l 1.07,-4.14 c 0.17,-0.57 0.72,-0.99 1.3,-0.99 h 2.06 c 0.27,0 0.51,0.12 0.67,0.33 0.16,0.21 0.21,0.47 0.14,0.73 0,0 -5.47,18.96 -5.47,18.96" style="fill:#ee2078;fill-opacity:1;fill-rule:nonzero;stroke:none" transform="matrix(1.3333333,0,0,-1.3333333,90.701467,92.806667)" clip-path="url(#clipPath8)" />
    <path id="path9" d="m 0,0 c 0,-2.31 -0.79,-3.17 -2.9,-3.17 h -2.45 v 5.99 h 2.42 C -0.79,2.82 0,2.06 0,0.01 Z m 2.94,-8.93 c -0.66,1.99 -1.4,3.1 -2.44,3.6 2.51,0.8 3.59,2.46 3.59,5.48 0,3.96 -2.37,5.97 -7.05,5.97 h -5.23 c -0.59,0 -1.06,-0.47 -1.06,-1.05 v -18.9 c 0,-0.58 0.48,-1.05 1.06,-1.05 h 1.78 c 0.59,0 1.06,0.47 1.06,1.05 v 7.62 h 1.33 c 1.39,0 2.08,-0.38 2.81,-2.7 l 1.57,-4.98 c 0.16,-0.58 0.71,-0.99 1.33,-0.99 h 2.09 c 0.26,0 0.5,0.13 0.65,0.34 0.15,0.21 0.18,0.46 0.1,0.69 l -1.6,4.92 z" style="fill:#ee2078;fill-opacity:1;fill-rule:nonzero;stroke:none" transform="matrix(1.3333333,0,0,-1.3333333,114.66147,95.486667)" clip-path="url(#clipPath10)" />
    <path id="path11" d="m 0,0 c 2.86,0 3.93,-2.1 3.93,-7.73 0,-5.63 -1.06,-7.71 -3.93,-7.71 -2.87,0 -3.96,2.11 -3.96,7.79 0,5.68 1.07,7.64 3.96,7.64 z m 0,3.19 c -5.42,0 -8.17,-3.69 -8.17,-10.96 0,-7.27 2.68,-10.83 8.2,-10.83 5.52,0 8.11,3.57 8.11,10.92 C 8.14,-0.33 5.4,3.19 0,3.19" style="fill:#ee2078;fill-opacity:1;fill-rule:nonzero;stroke:none" transform="matrix(1.3333333,0,0,-1.3333333,133.96827,85.033333)" clip-path="url(#clipPath12)" />
    <path id="path13" d="m 0,0 -67.77,-5.03 c -0.46,-0.03 -0.84,0.33 -0.84,0.82 v 8.94 c 0,0.49 0.38,0.91 0.84,0.95 L 0,10.71 C 0.46,10.74 0.84,10.38 0.84,9.89 V 0.95 C 0.84,0.46 0.46,0.04 0,0" style="fill:#77b9cd;fill-opacity:1;fill-rule:nonzero;stroke:none" transform="matrix(1.3333333,0,0,-1.3333333,140.62147,132.07333)" clip-path="url(#clipPath14)" />
    <path id="path15" d="M 0,0 1.06,0.07 C 1.96,0.13 2.29,0.5 2.29,1.29 2.29,2.08 2,2.4 1.1,2.34 L 0.01,2.26 V 0 Z M 0,2.99 1.07,3.07 C 1.83,3.12 2,3.45 2,4.13 2,4.81 1.78,5.13 1.02,5.08 L -0.01,5.01 V 3 Z m -0.61,-3.76 c -0.13,0 -0.24,0.09 -0.24,0.23 v 5.96 c 0,0.13 0.11,0.25 0.24,0.26 L 1.06,5.8 C 2.43,5.9 2.93,5.22 2.93,4.21 2.93,3.54 2.76,3.16 2.14,2.85 2.77,2.72 3.22,2.26 3.22,1.31 3.22,0.03 2.37,-0.56 1.17,-0.64 L -0.6,-0.76 Z" style="fill:#ffffff;fill-opacity:1;fill-rule:nonzero;stroke:none" transform="matrix(1.3333333,0,0,-1.3333333,55.301467,134.54)" clip-path="url(#clipPath16)" />
    <path id="path17" d="m 0,0 c -0.13,0 -0.25,0.09 -0.25,0.23 v 5.96 c 0,0.13 0.11,0.25 0.25,0.26 l 0.38,0.03 c 0.13,0 0.25,-0.09 0.25,-0.23 V 0.8 L 2.6,0.94 c 0.13,0 0.24,-0.09 0.24,-0.23 V 0.45 C 2.84,0.32 2.73,0.2 2.6,0.19 L 0.01,0.01 Z" style="fill:#ffffff;fill-opacity:1;fill-rule:nonzero;stroke:none" transform="matrix(1.3333333,0,0,-1.3333333,62.1548,135.02)" clip-path="url(#clipPath18)" />
    <path id="path19" d="m 0,0 c -0.13,0 -0.24,0.09 -0.24,0.22 v 0.02 c 0,0.12 0.1,0.24 0.23,0.27 l 0.43,0.08 v 5.34 l -0.43,0.03 c -0.13,0 -0.23,0.11 -0.23,0.24 v 0.02 c 0,0.12 0.1,0.23 0.23,0.24 l 1.73,0.12 c 0.12,0 0.23,-0.09 0.23,-0.21 V 6.35 C 1.95,6.22 1.86,6.11 1.72,6.08 L 1.29,5.99 V 0.65 L 1.72,0.63 c 0.12,0 0.23,-0.12 0.23,-0.24 V 0.37 C 1.95,0.24 1.85,0.13 1.72,0.12 Z" style="fill:#ffffff;fill-opacity:1;fill-rule:nonzero;stroke:none" transform="matrix(1.3333333,0,0,-1.3333333,67.9948,134.60667)" clip-path="url(#clipPath20)" />
    <path id="path21" d="M 0,0 C -0.13,0 -0.25,0.1 -0.25,0.23 V 5.68 L -1.54,5.59 c -0.13,0 -0.25,0.1 -0.25,0.23 v 0.26 c 0,0.13 0.11,0.25 0.25,0.26 l 3.45,0.24 c 0.13,0 0.25,-0.1 0.25,-0.23 V 6.09 C 2.16,5.96 2.05,5.84 1.91,5.83 L 0.62,5.74 V 0.29 C 0.62,0.16 0.51,0.04 0.37,0.03 L -0.01,0 Z" style="fill:#ffffff;fill-opacity:1;fill-rule:nonzero;stroke:none" transform="matrix(1.3333333,0,0,-1.3333333,74.621467,134.14)" clip-path="url(#clipPath22)" />
    <path id="path23" d="M 0,0 C -0.13,0 -0.25,0.1 -0.25,0.23 V 0.4 c 0,0.15 0.05,0.33 0.11,0.47 L 2.5,5.88 0.18,5.72 c -0.13,0 -0.25,0.09 -0.25,0.23 v 0.26 c 0,0.13 0.11,0.25 0.25,0.26 L 3.27,6.69 C 3.4,6.69 3.52,6.6 3.52,6.46 V 6.26 C 3.52,6.11 3.47,5.93 3.41,5.79 L 0.79,0.81 3.27,0.98 c 0.13,0 0.25,-0.1 0.25,-0.23 V 0.49 C 3.52,0.36 3.41,0.24 3.27,0.23 Z" style="fill:#ffffff;fill-opacity:1;fill-rule:nonzero;stroke:none" transform="matrix(1.3333333,0,0,-1.3333333,79.208133,133.82)" clip-path="url(#clipPath24)" />
    <path id="path25" d="m 0,0 c -0.13,0 -0.25,0.1 -0.25,0.23 v 5.96 c 0,0.13 0.11,0.25 0.25,0.26 l 0.38,0.03 c 0.13,0 0.25,-0.1 0.25,-0.23 V 0.8 L 2.6,0.94 c 0.13,0 0.24,-0.09 0.24,-0.23 V 0.45 C 2.84,0.32 2.73,0.2 2.6,0.19 L 0.01,0.01 Z" style="fill:#ffffff;fill-opacity:1;fill-rule:nonzero;stroke:none" transform="matrix(1.3333333,0,0,-1.3333333,86.4348,133.3)" clip-path="url(#clipPath26)" />
    <path id="path27" d="m 0,0 c -0.13,0 -0.25,0.09 -0.25,0.23 v 5.96 c 0,0.13 0.11,0.25 0.25,0.26 l 2.84,0.2 c 0.13,0 0.25,-0.09 0.25,-0.23 V 6.17 C 3.09,6.04 2.98,5.92 2.84,5.91 L 0.63,5.75 V 3.79 L 2.37,3.91 C 2.5,3.91 2.61,3.82 2.61,3.68 V 3.43 C 2.61,3.3 2.5,3.18 2.37,3.17 L 0.63,3.05 V 0.8 l 2.34,0.17 c 0.13,0 0.24,-0.1 0.24,-0.23 V 0.48 C 3.21,0.35 3.1,0.23 2.97,0.22 L 0.01,0.01 Z" style="fill:#ffffff;fill-opacity:1;fill-rule:nonzero;stroke:none" transform="matrix(1.3333333,0,0,-1.3333333,92.7148,132.86)" clip-path="url(#clipPath28)" />
    <path id="path29" d="m 0,0 c -0.67,-0.05 -1.3,0.11 -1.75,0.38 -0.11,0.07 -0.14,0.21 -0.08,0.34 l 0.12,0.22 c 0.07,0.13 0.23,0.17 0.33,0.1 0.42,-0.25 0.76,-0.35 1.31,-0.31 0.87,0.06 1.19,0.48 1.19,1.14 0,0.79 -0.44,0.98 -1.23,1.22 -1.07,0.34 -1.56,0.73 -1.56,1.81 0,1.08 0.7,1.71 1.83,1.79 0.59,0.04 1,-0.04 1.36,-0.22 C 1.63,6.41 1.68,6.27 1.61,6.14 L 1.49,5.89 C 1.42,5.77 1.27,5.72 1.16,5.77 0.87,5.92 0.59,5.98 0.21,5.95 -0.41,5.91 -0.81,5.63 -0.81,4.98 -0.81,4.33 -0.56,4.16 0.23,3.91 1.24,3.6 2.03,3.26 2.03,1.97 2.03,1.02 1.55,0.09 0.01,-0.02 Z" style="fill:#ffffff;fill-opacity:1;fill-rule:nonzero;stroke:none" transform="matrix(1.3333333,0,0,-1.3333333,101.20813,132.42)" clip-path="url(#clipPath30)" />
    <path id="path31" d="m 0,0 c -0.13,0 -0.25,0.09 -0.25,0.23 v 5.96 c 0,0.13 0.11,0.25 0.25,0.26 l 2.84,0.2 c 0.13,0 0.25,-0.09 0.25,-0.23 V 6.17 C 3.09,6.04 2.98,5.92 2.84,5.91 L 0.63,5.75 V 3.79 l 1.74,0.12 c 0.13,0 0.24,-0.1 0.24,-0.23 V 3.43 C 2.61,3.3 2.5,3.18 2.37,3.17 L 0.63,3.05 V 0.8 l 2.34,0.17 c 0.13,0 0.24,-0.1 0.24,-0.23 V 0.48 C 3.21,0.35 3.1,0.23 2.97,0.22 L 0.01,0.01 Z" style="fill:#ffffff;fill-opacity:1;fill-rule:nonzero;stroke:none" transform="matrix(1.3333333,0,0,-1.3333333,106.58147,131.87333)" clip-path="url(#clipPath32)" />
    <path id="path33" d="M 0,0 C -0.13,0 -0.24,0.09 -0.24,0.23 V 0.6 c 0,0.13 0.11,0.25 0.24,0.26 l 1.33,0.09 c 0.13,0 0.24,-0.09 0.24,-0.23 V 0.35 C 1.57,0.22 1.46,0.1 1.33,0.09 Z" style="fill:#ffffff;fill-opacity:1;fill-rule:nonzero;stroke:none" transform="matrix(1.3333333,0,0,-1.3333333,112.9148,127.71333)" clip-path="url(#clipPath34)" />
    <path id="path35" d="M 0,0 -0.33,-1.14 1.25,-1.03 0.94,0.06 C 0.66,1.04 0.58,1.4 0.49,1.89 H 0.47 C 0.38,1.37 0.29,1 0,-0.01 Z m -1.73,-3.84 c -0.12,0 -0.21,0.1 -0.17,0.22 l 1.86,6.12 c 0.05,0.14 0.18,0.25 0.32,0.26 l 0.47,0.03 c 0.14,0 0.27,-0.07 0.31,-0.21 L 2.88,-3.28 C 2.92,-3.4 2.82,-3.52 2.7,-3.53 L 2.24,-3.56 C 2.1,-3.57 1.97,-3.49 1.93,-3.35 l -0.46,1.61 -2.01,-0.14 -0.48,-1.67 c -0.04,-0.14 -0.17,-0.25 -0.31,-0.26 0,0 -0.4,-0.03 -0.4,-0.03" style="fill:#ffffff;fill-opacity:1;fill-rule:nonzero;stroke:none" transform="matrix(1.3333333,0,0,-1.3333333,119.00813,126.04667)" clip-path="url(#clipPath36)" />
    <path id="path37" d="M 0,0 1.03,0.07 C 1.76,0.12 2.1,0.45 2.1,1.36 2.1,2.27 1.78,2.57 0.99,2.52 L 0,2.45 Z m -0.62,-3.3 c -0.13,0 -0.24,0.09 -0.24,0.23 v 5.96 c 0,0.13 0.11,0.25 0.24,0.26 L 1.04,3.27 C 2.36,3.36 3.02,2.72 3.02,1.48 3.02,0.24 2.44,-0.55 1.14,-0.64 L 0,-0.72 V -3 c 0,-0.13 -0.11,-0.25 -0.25,-0.26 l -0.38,-0.03 z" style="fill:#ffffff;fill-opacity:1;fill-rule:nonzero;stroke:none" transform="matrix(1.3333333,0,0,-1.3333333,126.02147,126.16667)" clip-path="url(#clipPath38)" />
    <path id="path39" d="M 0,0 1.03,0.07 C 1.76,0.12 2.1,0.45 2.1,1.36 2.1,2.27 1.78,2.57 0.99,2.52 L 0,2.45 Z m -0.62,-3.3 c -0.13,0 -0.25,0.09 -0.25,0.23 v 5.96 c 0,0.13 0.11,0.25 0.25,0.26 L 1.04,3.27 C 2.36,3.36 3.02,2.72 3.02,1.48 3.02,0.24 2.44,-0.55 1.14,-0.64 L 0,-0.72 V -3 c 0,-0.13 -0.11,-0.25 -0.25,-0.26 l -0.38,-0.03 z" style="fill:#ffffff;fill-opacity:1;fill-rule:nonzero;stroke:none" transform="matrix(1.3333333,0,0,-1.3333333,133.36827,125.64667)" clip-path="url(#clipPath40)" />
  </g>
</svg>
